<?xml version="1.0" encoding="UTF-8"?> <svg xmlns="http://www.w3.org/2000/svg" width="43" height="40" viewBox="0 0 43 40" fill="none"><path d="M42.1434 6.42871V36.4287C42.1434 37.1865 41.8424 37.9132 41.3066 38.449C40.7708 38.9848 40.044 39.2859 39.2863 39.2859H3.57199C2.81422 39.2859 2.0875 38.9848 1.55168 38.449C1.01586 37.9132 0.714844 37.1865 0.714844 36.4287V6.42871H42.1434Z" fill="#6E1F8C" fill-opacity="0.1"></path><path d="M39.9997 6.42871V36.4287C39.9997 37.1865 39.6987 37.9132 39.1629 38.449C38.6271 38.9848 37.9003 39.2859 37.1426 39.2859H39.2854C40.0432 39.2859 40.7699 38.9848 41.3057 38.449C41.8416 37.9132 42.1426 37.1865 42.1426 36.4287V6.42871H39.9997Z" fill="#6E1F8C" fill-opacity="0.3"></path><path d="M42.1434 3.57101V6.42815H0.714844V3.57101C0.714844 2.81325 1.01586 2.08652 1.55168 1.5507C2.0875 1.01489 2.81422 0.713867 3.57199 0.713867H39.2863C40.044 0.713867 40.7708 1.01489 41.3066 1.5507C41.8424 2.08652 42.1434 2.81325 42.1434 3.57101Z" fill="white"></path><path d="M39.2854 0.713867H37.1426C37.9003 0.713867 38.6271 1.01489 39.1629 1.5507C39.6987 2.08652 39.9997 2.81325 39.9997 3.57101V6.42815H42.1426V3.57101C42.1426 2.81325 41.8416 2.08652 41.3057 1.5507C40.7699 1.01489 40.0432 0.713867 39.2854 0.713867Z" fill="#6E1F8C" fill-opacity="0.3"></path><path d="M15.7154 33.5714C18.0823 33.5714 20.0011 31.6526 20.0011 29.2857C20.0011 26.9188 18.0823 25 15.7154 25C13.3485 25 11.4297 26.9188 11.4297 29.2857C11.4297 31.6526 13.3485 33.5714 15.7154 33.5714Z" fill="white"></path><path d="M15.714 25C15.3526 25.0022 14.9926 25.05 14.6426 25.1429C15.5621 25.3795 16.3769 25.9151 16.9586 26.6655C17.5404 27.4159 17.8561 28.3384 17.8561 29.2879C17.8561 30.2373 17.5404 31.1599 16.9586 31.9103C16.3769 32.6606 15.5621 33.1963 14.6426 33.4329C15.2321 33.5865 15.8476 33.6127 16.4481 33.5097C17.0485 33.4068 17.6201 33.1769 18.1247 32.8356C18.6293 32.4943 19.0554 32.0493 19.3745 31.5303C19.6935 31.0113 19.8983 30.4303 19.9751 29.8259C20.0519 29.2215 19.9989 28.6077 19.8198 28.0255C19.6406 27.4432 19.3394 26.9058 18.9362 26.4491C18.5329 25.9924 18.037 25.627 17.4813 25.3771C16.9257 25.1272 16.3232 24.9987 15.714 25Z" fill="#6E1F8C" fill-opacity="0.3"></path><path d="M27.1431 33.5714C29.5101 33.5714 31.4289 31.6526 31.4289 29.2857C31.4289 26.9188 29.5101 25 27.1431 25C24.7762 25 22.8574 26.9188 22.8574 29.2857C22.8574 31.6526 24.7762 33.5714 27.1431 33.5714Z" fill="white"></path><path d="M27.1437 25C26.7823 25.0022 26.4223 25.05 26.0723 25.1429C26.9918 25.3795 27.8066 25.9151 28.3883 26.6655C28.9701 27.4159 29.2858 28.3384 29.2858 29.2879C29.2858 30.2373 28.9701 31.1599 28.3883 31.9103C27.8066 32.6606 26.9918 33.1963 26.0723 33.4329C26.6618 33.5865 27.2773 33.6127 27.8777 33.5097C28.4782 33.4068 29.0498 33.1769 29.5544 32.8356C30.059 32.4943 30.4851 32.0493 30.8041 31.5303C31.1232 31.0113 31.328 30.4303 31.4048 29.8259C31.4815 29.2215 31.4286 28.6077 31.2494 28.0255C31.0703 27.4432 30.7691 26.9058 30.3658 26.4491C29.9626 25.9924 29.4667 25.627 28.911 25.3771C28.3554 25.1272 27.7529 24.9987 27.1437 25Z" fill="#6E1F8C" fill-opacity="0.3"></path><path d="M34.5217 22.1432H8.33594C9.80344 20.6501 11.6391 19.5709 13.6574 19.0146C16.1712 18.2241 18.7937 17.8336 21.4288 17.8575C24.0645 17.8339 26.6859 18.2239 29.2002 19.0146C31.2185 19.5709 33.0541 20.6501 34.5217 22.1432Z" fill="white"></path><path d="M29.1991 19.0138C26.6853 18.2233 24.0628 17.8328 21.4277 17.8567C18.792 17.8331 16.1705 18.2231 13.6562 19.0138L15.7277 12.2781C15.8163 11.9908 15.9642 11.7253 16.1619 11.4988C16.3597 11.2723 16.6027 11.0899 16.8754 10.9633C17.1481 10.8367 17.4444 10.7688 17.745 10.7639C18.0456 10.7591 18.3439 10.8175 18.6205 10.9353L20.5848 11.7781C21.122 12.0138 21.7334 12.0138 22.2705 11.7781L24.2348 10.9353C24.5115 10.8175 24.8097 10.7591 25.1103 10.7639C25.411 10.7688 25.7072 10.8367 25.9799 10.9633C26.2526 11.0899 26.4957 11.2723 26.6934 11.4988C26.8911 11.7253 27.0391 11.9908 27.1277 12.2781L29.1991 19.0138Z" fill="white"></path><path d="M24.9864 12.2781L26.8728 18.4124C27.6593 18.5694 28.4365 18.7702 29.2007 19.0138L27.1292 12.2781C27.0406 11.9908 26.8927 11.7253 26.695 11.4988C26.4973 11.2723 26.2542 11.0899 25.9815 10.9633C25.7088 10.8367 25.4125 10.7688 25.1119 10.7639C24.8113 10.7591 24.513 10.8175 24.2364 10.9353L23.9785 11.046C24.4614 11.3103 24.8228 11.7524 24.9864 12.2781Z" fill="#6E1F8C" fill-opacity="0.3"></path><path d="M2.8577 36.4282V3.57101C2.8577 2.81325 3.15872 2.08652 3.69454 1.5507C4.23036 1.01489 4.95708 0.713867 5.71484 0.713867H3.57199C2.81423 0.713867 2.0875 1.01489 1.55168 1.5507C1.01586 2.08652 0.714844 2.81325 0.714844 3.57101V36.4282C0.714844 37.1859 1.01586 37.9126 1.55168 38.4485C2.0875 38.9843 2.81423 39.2853 3.57199 39.2853H5.71484C4.95708 39.2853 4.23036 38.9843 3.69454 38.4485C3.15872 37.9126 2.8577 37.1859 2.8577 36.4282Z" fill="white"></path><path d="M0 30.7139H1.42857V36.4282H0V30.7139Z" fill="white"></path><path d="M23.5724 2.85742H19.2867C19.0973 2.85742 18.9156 2.93268 18.7817 3.06663C18.6477 3.20059 18.5724 3.38227 18.5724 3.57171C18.5724 3.76115 18.6477 3.94283 18.7817 4.07678C18.9156 4.21074 19.0973 4.28599 19.2867 4.28599H23.5724C23.7619 4.28599 23.9436 4.21074 24.0775 4.07678C24.2115 3.94283 24.2867 3.76115 24.2867 3.57171C24.2867 3.38227 24.2115 3.20059 24.0775 3.06663C23.9436 2.93268 23.7619 2.85742 23.5724 2.85742ZM39.2867 2.85742H31.4296C31.2401 2.85742 31.0585 2.93268 30.9245 3.06663C30.7906 3.20059 30.7153 3.38227 30.7153 3.57171C30.7153 3.76115 30.7906 3.94283 30.9245 4.07678C31.0585 4.21074 31.2401 4.28599 31.4296 4.28599H39.2867C39.4762 4.28599 39.6579 4.21074 39.7918 4.07678C39.9258 3.94283 40.001 3.76115 40.001 3.57171C40.001 3.38227 39.9258 3.20059 39.7918 3.06663C39.6579 2.93268 39.4762 2.85742 39.2867 2.85742ZM0.729585 34.286C0.540144 34.2869 0.358087 34.2126 0.223463 34.0793C0.0888382 33.946 0.0126749 33.7647 0.0117277 33.5753C0.0107805 33.3858 0.085127 33.2038 0.218412 33.0692C0.351697 32.9345 0.533002 32.8584 0.722442 32.8574H0.729585C0.919025 32.8574 1.10071 32.9327 1.23466 33.0666C1.36862 33.2006 1.44387 33.3823 1.44387 33.5717C1.44387 33.7611 1.36862 33.9428 1.23466 34.0768C1.10071 34.2107 0.919025 34.286 0.729585 34.286Z" fill="#6E1F8C"></path><path d="M39.2857 0H3.57143C2.62457 0.00113418 1.71683 0.377773 1.0473 1.0473C0.377773 1.71683 0.00113418 2.62458 0 3.57143L0 30.7143C0 30.9037 0.0752549 31.0854 0.209209 31.2194C0.343164 31.3533 0.524845 31.4286 0.714286 31.4286C0.903726 31.4286 1.08541 31.3533 1.21936 31.2194C1.35332 31.0854 1.42857 30.9037 1.42857 30.7143V7.14286H41.4286V36.4286C41.4286 36.9969 41.2028 37.5419 40.8009 37.9438C40.3991 38.3457 39.854 38.5714 39.2857 38.5714H3.57143C3.00311 38.5714 2.45806 38.3457 2.0562 37.9438C1.65434 37.5419 1.42857 36.9969 1.42857 36.4286C1.42857 36.2391 1.35332 36.0574 1.21936 35.9235C1.08541 35.7895 0.903726 35.7143 0.714286 35.7143C0.524845 35.7143 0.343164 35.7895 0.209209 35.9235C0.0752549 36.0574 0 36.2391 0 36.4286C0.00113418 37.3754 0.377773 38.2832 1.0473 38.9527C1.71683 39.6222 2.62457 39.9989 3.57143 40H39.2857C40.2326 39.9989 41.1403 39.6222 41.8098 38.9527C42.4794 38.2832 42.856 37.3754 42.8571 36.4286V3.57143C42.856 2.62458 42.4794 1.71683 41.8098 1.0473C41.1403 0.377773 40.2326 0.00113418 39.2857 0ZM1.42857 5.71429V3.57143C1.42857 3.00311 1.65434 2.45806 2.0562 2.0562C2.45806 1.65434 3.00311 1.42857 3.57143 1.42857H39.2857C39.854 1.42857 40.3991 1.65434 40.8009 2.0562C41.2028 2.45806 41.4286 3.00311 41.4286 3.57143V5.71429H1.42857Z" fill="#6E1F8C"></path><path d="M3.57171 4.28599C3.9662 4.28599 4.28599 3.9662 4.28599 3.57171C4.28599 3.17722 3.9662 2.85742 3.57171 2.85742C3.17722 2.85742 2.85742 3.17722 2.85742 3.57171C2.85742 3.9662 3.17722 4.28599 3.57171 4.28599Z" fill="#6E1F8C"></path><path d="M6.42913 4.28599C6.82362 4.28599 7.14342 3.9662 7.14342 3.57171C7.14342 3.17722 6.82362 2.85742 6.42913 2.85742C6.03464 2.85742 5.71484 3.17722 5.71484 3.57171C5.71484 3.9662 6.03464 4.28599 6.42913 4.28599Z" fill="#6E1F8C"></path><path d="M9.28655 4.28599C9.68104 4.28599 10.0008 3.9662 10.0008 3.57171C10.0008 3.17722 9.68104 2.85742 9.28655 2.85742C8.89206 2.85742 8.57227 3.17722 8.57227 3.57171C8.57227 3.9662 8.89206 4.28599 9.28655 4.28599Z" fill="#6E1F8C"></path><path d="M27.1428 34.2858C28.0214 34.287 28.8848 34.0566 29.6461 33.618C30.4073 33.1793 31.0395 32.5478 31.479 31.787C31.9186 31.0262 32.1498 30.1631 32.1496 29.2845C32.1494 28.4059 31.9177 27.5428 31.4777 26.7823C31.0378 26.0218 30.4053 25.3906 29.6438 24.9523C28.8823 24.514 28.0188 24.2841 27.1402 24.2858C26.2616 24.2874 25.399 24.5206 24.6391 24.9617C23.8793 25.4029 23.2491 26.0364 22.8121 26.7986C22.3913 26.5563 21.9142 26.4287 21.4285 26.4287C20.9429 26.4287 20.4658 26.5563 20.045 26.7986C19.4098 25.6911 18.3788 24.8652 17.1594 24.4871C15.94 24.109 14.6226 24.2067 13.4723 24.7606C12.322 25.3145 11.4242 26.2835 10.9594 27.4726C10.4946 28.6617 10.4975 29.9827 10.9673 31.1698C11.4371 32.357 12.339 33.3221 13.4917 33.8711C14.6443 34.4201 15.9621 34.5123 17.1799 34.129C18.3977 33.7457 19.4252 32.9154 20.0556 31.8052C20.686 30.695 20.8726 29.3873 20.5778 28.1451C20.8287 27.9743 21.1251 27.8831 21.4285 27.8831C21.732 27.8831 22.0284 27.9743 22.2792 28.1451C22.104 28.8787 22.0975 29.6425 22.2604 30.379C22.4233 31.1155 22.7513 31.8054 23.2196 32.3967C23.6879 32.988 24.2843 33.4652 24.9639 33.7924C25.6435 34.1197 26.3885 34.2884 27.1428 34.2858ZM15.7142 32.8572C14.767 32.8572 13.8586 32.4809 13.1889 31.8112C12.5191 31.1414 12.1428 30.233 12.1428 29.2858C12.1428 28.3386 12.5191 27.4302 13.1889 26.7604C13.8586 26.0906 14.767 25.7143 15.7142 25.7143C16.6614 25.7143 17.5698 26.0906 18.2396 26.7604C18.9094 27.4302 19.2857 28.3386 19.2857 29.2858C19.2857 30.233 18.9094 31.1414 18.2396 31.8112C17.5698 32.4809 16.6614 32.8572 15.7142 32.8572ZM27.1428 25.7143C28.09 25.7143 28.9984 26.0906 29.6682 26.7604C30.338 27.4302 30.7142 28.3386 30.7142 29.2858C30.7142 30.233 30.338 31.1414 29.6682 31.8112C28.9984 32.4809 28.09 32.8572 27.1428 32.8572C26.1956 32.8572 25.2872 32.4809 24.6174 31.8112C23.9477 31.1414 23.5714 30.233 23.5714 29.2858C23.5714 28.3386 23.9477 27.4302 24.6174 26.7604C25.2872 26.0906 26.1956 25.7143 27.1428 25.7143ZM35.1714 22.4386C35.2282 22.3139 35.2479 22.1754 35.2281 22.0398C35.2083 21.9041 35.15 21.777 35.06 21.6736C33.5991 20.1714 31.7802 19.0653 29.7742 18.4593L27.8121 12.0715C27.6939 11.6885 27.4966 11.3345 27.233 11.0326C26.9693 10.7306 26.6452 10.4874 26.2816 10.3187C25.918 10.1499 25.523 10.0594 25.1222 10.053C24.7214 10.0466 24.3238 10.1245 23.955 10.2815L21.985 11.1272C21.63 11.2843 21.2242 11.2843 20.8692 11.1272L18.9014 10.2786C18.5326 10.1216 18.1349 10.0438 17.7341 10.0502C17.3333 10.0566 16.9383 10.1471 16.5747 10.3158C16.2111 10.4846 15.887 10.7278 15.6234 11.0297C15.3597 11.3317 15.1624 11.6856 15.0442 12.0686L13.08 18.4579C11.074 19.0639 9.25511 20.1699 7.79424 21.6722C7.70354 21.7757 7.64468 21.9032 7.62473 22.0394C7.60478 22.1756 7.6246 22.3146 7.68179 22.4398C7.73898 22.5649 7.83112 22.6709 7.94712 22.745C8.06312 22.819 8.19805 22.858 8.33567 22.8572H34.5214C34.6585 22.8572 34.7927 22.8177 34.9079 22.7435C35.0232 22.6692 35.1146 22.5634 35.1714 22.4386ZM16.4114 12.4879C16.4708 12.2966 16.5696 12.1198 16.7015 11.969C16.8333 11.8182 16.9953 11.6967 17.177 11.6123C17.3587 11.528 17.5561 11.4826 17.7564 11.4791C17.9567 11.4756 18.1555 11.5142 18.34 11.5922L20.2985 12.4322C20.6539 12.588 21.0377 12.6684 21.4257 12.6684C21.8137 12.6684 22.1975 12.588 22.5528 12.4322L24.515 11.5893C24.6995 11.5114 24.8983 11.473 25.0986 11.4766C25.2989 11.4802 25.4963 11.5256 25.6779 11.6101C25.8596 11.6945 26.0216 11.816 26.1534 11.9669C26.2853 12.1177 26.3841 12.2945 26.4435 12.4858L28.1271 17.9615C23.7271 16.8662 19.1257 16.8662 14.7257 17.9615L16.4114 12.4879ZM10.2142 21.4286C12.7257 19.6593 16.8878 18.5715 21.4285 18.5715C24.0092 18.5522 26.5772 18.9339 29.0407 19.7029C30.3192 20.0993 31.5335 20.6808 32.6428 21.4286H10.2142Z" fill="#6E1F8C"></path></svg> 