<?xml version="1.0" encoding="UTF-8"?> <svg xmlns="http://www.w3.org/2000/svg" width="50" height="40" viewBox="0 0 50 40" fill="none"><path fill-rule="evenodd" clip-rule="evenodd" d="M31.6676 4.16654V29.168H7.49955C6.61544 29.168 5.76754 28.8168 5.14238 28.1916C4.51723 27.5665 4.16602 26.7186 4.16602 25.8345V4.16654C4.16602 3.28243 4.51723 2.43453 5.14238 1.80938C5.76754 1.18422 6.61544 0.833008 7.49955 0.833008H28.3341C29.2182 0.833008 30.0661 1.18422 30.6913 1.80938C31.3164 2.43453 31.6676 3.28243 31.6676 4.16654Z" fill="#6E1F8C" fill-opacity="0.1"></path><path fill-rule="evenodd" clip-rule="evenodd" d="M28.3341 0.833008H25.834C26.7181 0.833008 27.566 1.18422 28.1911 1.80938C28.8163 2.43453 29.1675 3.28243 29.1675 4.16654V29.168H31.6677V4.16654C31.6677 3.28243 31.3165 2.43453 30.6913 1.80938C30.0661 1.18422 29.2182 0.833008 28.3341 0.833008Z" fill="#6E1F8C" fill-opacity="0.3"></path><path fill-rule="evenodd" clip-rule="evenodd" d="M47.5022 17.6097V24.1684H44.1687C43.7271 24.1697 43.3039 24.3458 42.9916 24.6581C42.6793 24.9703 42.5033 25.3935 42.5019 25.8352V29.1687H31.668V16.668H47.3689C47.4547 16.9747 47.4997 17.2913 47.5022 17.6097Z" fill="#6E1F8C" fill-opacity="0.1"></path><path fill-rule="evenodd" clip-rule="evenodd" d="M47.3693 16.668H44.8691C44.955 16.9747 45 17.2913 45.0025 17.6097V24.1684H47.5026V17.6097C47.4998 17.2913 47.455 16.9746 47.3693 16.668Z" fill="#6E1F8C" fill-opacity="0.3"></path><path fill-rule="evenodd" clip-rule="evenodd" d="M47.3689 16.668H31.668V5.83399H39.4351C39.863 5.83347 40.2838 5.94277 40.6573 6.15143C41.0309 6.36009 41.3446 6.66112 41.5686 7.02572L47.0105 15.8679C47.1622 16.1188 47.2822 16.3879 47.3689 16.668Z" fill="#6E1F8C" fill-opacity="0.1"></path><path fill-rule="evenodd" clip-rule="evenodd" d="M47.0111 15.8679L41.5692 7.02572C41.3452 6.66112 41.0315 6.36009 40.658 6.15143C40.2844 5.94277 39.8636 5.83347 39.4357 5.83399H36.9355C37.3634 5.83347 37.7843 5.94277 38.1578 6.15143C38.5313 6.36009 38.8451 6.66112 39.069 7.02572L44.511 15.8679C44.6627 16.1188 44.7827 16.3879 44.8693 16.668H47.3695C47.2829 16.3877 47.1626 16.1191 47.0111 15.8679Z" fill="#6E1F8C" fill-opacity="0.3"></path><path d="M47.5032 29.168H5.00075C4.08022 29.168 3.33398 29.9142 3.33398 30.8347V32.5015C3.33398 33.422 4.08022 34.1683 5.00075 34.1683H47.5032C48.4238 34.1683 49.17 33.422 49.17 32.5015V30.8347C49.17 29.9142 48.4238 29.168 47.5032 29.168Z" fill="white"></path><path fill-rule="evenodd" clip-rule="evenodd" d="M47.5021 29.168H45.002C45.4436 29.1693 45.8668 29.3453 46.1791 29.6576C46.4914 29.9699 46.6674 30.3931 46.6687 30.8347V32.5015C46.6674 32.9431 46.4914 33.3663 46.1791 33.6786C45.8668 33.9909 45.4436 34.1669 45.002 34.1683H47.5021C47.9437 34.1669 48.3669 33.9909 48.6792 33.6786C48.9915 33.3663 49.1675 32.9431 49.1689 32.5015V30.8347C49.1675 30.3931 48.9915 29.9699 48.6792 29.6576C48.3669 29.3453 47.9437 29.1693 47.5021 29.168Z" fill="#6E1F8C" fill-opacity="0.3"></path><path fill-rule="evenodd" clip-rule="evenodd" d="M47.5022 24.168V29.1683H42.502V25.8347C42.5033 25.3931 42.6793 24.9699 42.9916 24.6576C43.3039 24.3453 43.7271 24.1693 44.1687 24.168H47.5022Z" fill="#6E1F8C" fill-opacity="0.1"></path><path fill-rule="evenodd" clip-rule="evenodd" d="M45.002 24.168H47.5021V29.1683H45.002V24.168Z" fill="#6E1F8C" fill-opacity="0.3"></path><path fill-rule="evenodd" clip-rule="evenodd" d="M13.3341 29.168C12.9124 29.1705 12.4923 29.2263 12.084 29.3347C13.1568 29.6107 14.1074 30.2356 14.7862 31.1111C15.465 31.9866 15.8333 33.063 15.8333 34.1708C15.8333 35.2786 15.465 36.3549 14.7862 37.2304C14.1074 38.1059 13.1568 38.7309 12.084 39.0069C12.7718 39.1862 13.4899 39.2168 14.1905 39.0966C14.8911 38.9764 15.558 38.7083 16.1467 38.31C16.7355 37.9118 17.2326 37.3926 17.6048 36.7871C17.9771 36.1816 18.216 35.5036 18.3056 34.7985C18.3952 34.0934 18.3334 33.3772 18.1244 32.6979C17.9154 32.0185 17.5639 31.3915 17.0935 30.8587C16.623 30.3259 16.0443 29.8995 15.3961 29.6079C14.7478 29.3164 14.0449 29.1664 13.3341 29.168Z" fill="#6E1F8C" fill-opacity="0.3"></path><path fill-rule="evenodd" clip-rule="evenodd" d="M39.168 29.168C38.7464 29.1705 38.3263 29.2263 37.918 29.3347C38.9908 29.6107 39.9414 30.2356 40.6202 31.1111C41.2989 31.9866 41.6673 33.063 41.6673 34.1708C41.6673 35.2786 41.2989 36.3549 40.6202 37.2304C39.9414 38.1059 38.9908 38.7309 37.918 39.0069C38.6058 39.1862 39.3239 39.2168 40.0245 39.0966C40.7251 38.9764 41.392 38.7083 41.9807 38.31C42.5695 37.9118 43.0666 37.3926 43.4388 36.7871C43.8111 36.1816 44.05 35.5036 44.1396 34.7985C44.2292 34.0934 44.1674 33.3772 43.9584 32.6979C43.7494 32.0185 43.3979 31.3915 42.9274 30.8587C42.457 30.3259 41.8783 29.8995 41.2301 29.6079C40.5818 29.3164 39.8788 29.1664 39.168 29.168Z" fill="#6E1F8C" fill-opacity="0.3"></path><path fill-rule="evenodd" clip-rule="evenodd" d="M6.66751 25.8345V4.16654C6.66751 3.28243 7.01872 2.43453 7.64388 1.80938C8.26904 1.18422 9.11694 0.833008 10.001 0.833008H7.5009C6.61679 0.833008 5.76889 1.18422 5.14373 1.80938C4.51858 2.43453 4.16737 3.28243 4.16737 4.16654V25.8345C4.16737 26.7186 4.51858 27.5665 5.14373 28.1916C5.76889 28.8168 6.61679 29.168 7.5009 29.168H10.001C9.11694 29.168 8.26904 28.8168 7.64388 28.1916C7.01872 27.5665 6.66751 26.7186 6.66751 25.8345ZM5.00075 34.1683H7.5009C7.05925 34.167 6.63607 33.991 6.32377 33.6787C6.01148 33.3664 5.83545 32.9432 5.83413 32.5015V30.8348C5.83545 30.3931 6.01148 29.9699 6.32377 29.6576C6.63607 29.3454 7.05925 29.1693 7.5009 29.168H5.00075C4.5591 29.1693 4.13592 29.3454 3.82363 29.6576C3.51133 29.9699 3.3353 30.3931 3.33398 30.8348V32.5015C3.3353 32.9432 3.51133 33.3664 3.82363 33.6787C4.13592 33.991 4.5591 34.167 5.00075 34.1683Z" fill="white"></path><path fill-rule="evenodd" clip-rule="evenodd" d="M7.5 0H14.1671V1.66676H7.5V0Z" fill="white"></path><path d="M10.8334 1.66676C11.2936 1.66676 11.6668 1.29365 11.6668 0.833382C11.6668 0.373118 11.2936 0 10.8334 0C10.3731 0 10 0.373118 10 0.833382C10 1.29365 10.3731 1.66676 10.8334 1.66676Z" fill="#6E1F8C"></path><path d="M48.3362 28.4883V17.611C48.3362 16.8402 48.1228 16.0843 47.7178 15.4276L42.2775 6.58372C41.9774 6.10075 41.5595 5.70203 41.0629 5.42504C40.5664 5.14804 40.0076 5.00188 39.439 5.00029H32.5019V4.16691C32.5006 3.06218 32.0611 2.00308 31.28 1.22192C30.4988 0.440761 29.4397 0.00132329 28.335 0L14.1675 0C13.9465 0 13.7345 0.0878025 13.5782 0.244092C13.4219 0.400382 13.3341 0.612356 13.3341 0.833382C13.3341 1.05441 13.4219 1.26638 13.5782 1.42267C13.7345 1.57896 13.9465 1.66676 14.1675 1.66676H28.335C28.9981 1.66676 29.634 1.93017 30.1029 2.39904C30.5717 2.86791 30.8351 3.50383 30.8351 4.16691V28.335H7.50044C6.83736 28.335 6.20144 28.0716 5.73257 27.6027C5.2637 27.1339 5.00029 26.4979 5.00029 25.8349V22.5013H15.0009C15.2219 22.5013 15.4339 22.4135 15.5902 22.2572C15.7465 22.1009 15.8343 21.889 15.8343 21.6679C15.8343 21.4469 15.7465 21.2349 15.5902 21.0787C15.4339 20.9224 15.2219 20.8346 15.0009 20.8346H5.00029V15.8343H12.5007C12.7218 15.8343 12.9337 15.7465 13.09 15.5902C13.2463 15.4339 13.3341 15.2219 13.3341 15.0009C13.3341 14.7799 13.2463 14.5679 13.09 14.4116C12.9337 14.2553 12.7218 14.1675 12.5007 14.1675H5.00029V9.16721H15.0009C15.2219 9.16721 15.4339 9.0794 15.5902 8.92311C15.7465 8.76682 15.8343 8.55485 15.8343 8.33382C15.8343 8.1128 15.7465 7.90082 15.5902 7.74453C15.4339 7.58824 15.2219 7.50044 15.0009 7.50044H5.00029V4.16691C5.00029 3.50383 5.2637 2.86791 5.73257 2.39904C6.20144 1.93017 6.83736 1.66676 7.50044 1.66676C7.72147 1.66676 7.93344 1.57896 8.08973 1.42267C8.24602 1.26638 8.33382 1.05441 8.33382 0.833382C8.33382 0.612356 8.24602 0.400382 8.08973 0.244092C7.93344 0.0878025 7.72147 0 7.50044 0C6.39571 0.00132329 5.33661 0.440761 4.55545 1.22192C3.77429 2.00308 3.33485 3.06218 3.33353 4.16691V7.50044H1.66676C1.44574 7.50044 1.23376 7.58824 1.07747 7.74453C0.921185 7.90082 0.833382 8.1128 0.833382 8.33382C0.833382 8.55485 0.921185 8.76682 1.07747 8.92311C1.23376 9.0794 1.44574 9.16721 1.66676 9.16721H3.33353V14.1675H0.833382C0.612356 14.1675 0.400382 14.2553 0.244092 14.4116C0.0878025 14.5679 0 14.7799 0 15.0009C0 15.2219 0.0878025 15.4339 0.244092 15.5902C0.400382 15.7465 0.612356 15.8343 0.833382 15.8343H3.33353V20.8346H1.66676C1.44574 20.8346 1.23376 20.9224 1.07747 21.0787C0.921185 21.2349 0.833382 21.4469 0.833382 21.6679C0.833382 21.889 0.921185 22.1009 1.07747 22.2572C1.23376 22.4135 1.44574 22.5013 1.66676 22.5013H3.33353V25.8349C3.3378 26.7909 3.6739 27.7159 4.28442 28.4517C3.77036 28.6045 3.31921 28.9188 2.99782 29.3481C2.67644 29.7774 2.50192 30.2989 2.50015 30.8351V32.5019C2.50015 33.165 2.76355 33.8009 3.23242 34.2698C3.70129 34.7387 4.33721 35.0021 5.00029 35.0021H7.56711C7.76637 36.3895 8.45917 37.6586 9.51843 38.5767C10.5777 39.4947 11.9324 40 13.3341 40C14.7358 40 16.0905 39.4947 17.1498 38.5767C18.2091 37.6586 18.9019 36.3895 19.1011 35.0021H33.402C33.6012 36.3895 34.294 37.6586 35.3533 38.5767C36.4125 39.4947 37.7673 40 39.169 40C40.5707 40 41.9254 39.4947 42.9847 38.5767C44.0439 37.6586 44.7367 36.3895 44.936 35.0021H47.5028C48.1659 35.0021 48.8018 34.7387 49.2707 34.2698C49.7395 33.8009 50.0029 33.165 50.0029 32.5019V30.8351C50.0008 30.3199 49.8395 29.8179 49.5412 29.3978C49.2428 28.9777 48.822 28.6601 48.3362 28.4883ZM32.5019 17.501H46.6619C46.6619 17.5377 46.6694 17.5744 46.6694 17.611V23.3347H44.1693C43.5062 23.3347 42.8703 23.5981 42.4014 24.067C41.9325 24.5359 41.6691 25.1718 41.6691 25.8349V28.335H32.5019V17.501ZM43.3359 25.8349C43.3359 25.6138 43.4237 25.4019 43.58 25.2456C43.7363 25.0893 43.9482 25.0015 44.1693 25.0015H46.6694V28.335H43.3359V25.8349ZM39.439 6.66706C39.723 6.66841 40.002 6.74193 40.2499 6.88071C40.4977 7.01949 40.7062 7.21898 40.8557 7.46044L46.011 15.8343H32.5019V6.66706H39.439ZM31.6685 30.0018H35.0946C34.1788 30.8963 33.5839 32.0681 33.402 33.3353H19.1011C18.9192 32.0681 18.3243 30.8963 17.4085 30.0018H31.6685ZM4.16691 32.5019V30.8351C4.16691 30.6141 4.25471 30.4021 4.411 30.2459C4.56729 30.0896 4.77927 30.0018 5.00029 30.0018H9.25971C8.34397 30.8963 7.74901 32.0681 7.56711 33.3353H5.00029C4.77927 33.3353 4.56729 33.2475 4.411 33.0912C4.25471 32.9349 4.16691 32.7229 4.16691 32.5019ZM13.3341 38.3356C12.229 38.3356 11.1691 37.8966 10.3877 37.1151C9.60622 36.3337 9.16721 35.2738 9.16721 34.1687C9.16721 33.0635 9.60622 32.0037 10.3877 31.2222C11.1691 30.4408 12.229 30.0018 13.3341 30.0018C14.4393 30.0018 15.4991 30.4408 16.2806 31.2222C17.062 32.0037 17.501 33.0635 17.501 34.1687C17.501 35.2738 17.062 36.3337 16.2806 37.1151C15.4991 37.8966 14.4393 38.3356 13.3341 38.3356ZM39.169 38.3356C38.0638 38.3356 37.004 37.8966 36.2225 37.1151C35.4411 36.3337 35.0021 35.2738 35.0021 34.1687C35.0021 33.0635 35.4411 32.0037 36.2225 31.2222C37.004 30.4408 38.0638 30.0018 39.169 30.0018C40.2741 30.0018 41.334 30.4408 42.1154 31.2222C42.8969 32.0037 43.3359 33.0635 43.3359 34.1687C43.3359 35.2738 42.8969 36.3337 42.1154 37.1151C41.334 37.8966 40.2741 38.3356 39.169 38.3356ZM48.3362 32.5019C48.3362 32.7229 48.2484 32.9349 48.0921 33.0912C47.9358 33.2475 47.7238 33.3353 47.5028 33.3353H44.936C44.7541 32.0681 44.1591 30.8963 43.2434 30.0018H47.5028C47.7238 30.0018 47.9358 30.0896 48.0921 30.2459C48.2484 30.4021 48.3362 30.6141 48.3362 30.8351V32.5019Z" fill="#6E1F8C"></path><path fill-rule="evenodd" clip-rule="evenodd" d="M40.0016 20.0014C40.0016 19.7803 39.9138 19.5683 39.7576 19.4121C39.6013 19.2558 39.3893 19.168 39.1683 19.168H35.0014C34.7803 19.168 34.5683 19.2558 34.4121 19.4121C34.2558 19.5683 34.168 19.7803 34.168 20.0014C34.168 20.2224 34.2558 20.4344 34.4121 20.5906C34.5683 20.7469 34.7803 20.8347 35.0014 20.8347H39.1683C39.3893 20.8347 39.6013 20.7469 39.7576 20.5906C39.9138 20.4344 40.0016 20.2224 40.0016 20.0014Z" fill="#6E1F8C"></path></svg> 