<?xml version="1.0" encoding="UTF-8"?> <svg xmlns="http://www.w3.org/2000/svg" width="38" height="43" viewBox="0 0 38 43" fill="none"><path d="M30.8843 30.5409C30.0585 31.3725 29.1316 32.0972 28.1253 32.698L23.5963 35.414L19.3682 37.9508C19.1452 38.0848 18.8901 38.1555 18.63 38.1555C18.37 38.1555 18.1148 38.0848 17.8919 37.9508L13.6638 35.414L9.13473 32.698C8.12846 32.0972 7.20154 31.3725 6.37571 30.5409C4.75054 28.9198 3.53941 26.9314 2.84466 24.7436C2.14991 22.5559 1.99194 20.233 2.38411 17.9713L4.2115 7.37238C4.23768 7.22494 4.30894 7.08924 4.41547 6.98399C4.522 6.87875 4.65855 6.80913 4.8063 6.78475C12.5889 5.55932 16.7955 2.18401 18.1427 0.908412C18.2745 0.784091 18.4488 0.714844 18.63 0.714844C18.8112 0.714844 18.9855 0.784091 19.1173 0.908412C20.4646 2.18401 24.6712 5.55932 32.4538 6.78475C32.7569 6.83491 32.9948 7.06997 33.0486 7.37238L34.8759 17.9713C35.2681 20.233 35.1101 22.5559 34.4154 24.7436C33.7206 26.9314 32.5095 28.9198 30.8843 30.5409Z" fill="white"></path><path d="M34.8755 17.9713L33.0482 7.37238C33.022 7.22494 32.9507 7.08924 32.8442 6.98399C32.7377 6.87875 32.6011 6.80913 32.4534 6.78475C24.6708 5.55932 20.4642 2.18401 19.1169 0.908412C18.9851 0.784091 18.8108 0.714844 18.6296 0.714844C18.4484 0.714844 18.2741 0.784091 18.1423 0.908412C17.9515 1.08814 17.7555 1.26236 17.5547 1.43083C19.3398 2.93575 23.421 5.70121 30.3035 6.78475C30.6066 6.83491 30.8445 7.06997 30.8983 7.37238L32.7257 17.9713C33.1178 20.233 32.9599 22.5559 32.2651 24.7436C31.5704 26.9314 30.3592 28.9198 28.7341 30.5409C27.9082 31.3725 26.9813 32.0972 25.975 32.698L21.446 35.414L17.5547 37.7488L17.8915 37.9508C18.1144 38.0848 18.3696 38.1555 18.6296 38.1555C18.8897 38.1555 19.1448 38.0848 19.3678 37.9508L23.5958 35.414L28.1249 32.698C29.1312 32.0972 30.0581 31.3725 30.8839 30.5409C32.5091 28.9198 33.7202 26.9314 34.415 24.7436C35.1097 22.5559 35.2677 20.233 34.8755 17.9713Z" fill="white"></path><path d="M10.6069 30.24C8.63064 29.0429 7.05929 27.2799 6.09642 25.1795C5.13354 23.0791 4.8235 20.738 5.20644 18.4593L6.778 9.346C11.0631 8.56089 15.1148 6.81602 18.6296 4.24219C22.1442 6.81617 26.196 8.56105 30.4811 9.346L32.0527 18.4593C32.436 20.7376 32.1265 23.0785 31.1643 25.1789C30.2021 27.2792 28.6314 29.0424 26.6558 30.24L18.6296 35.0535L10.6069 30.24Z" fill="#6E1F8C" fill-opacity="0.1"></path><path d="M32.0528 18.4593L30.4812 9.346C26.1961 8.56105 22.1443 6.81617 18.6296 4.24219C18.31 4.48512 17.9488 4.74383 17.5547 5.00826C20.8264 7.14938 24.4886 8.62348 28.3313 9.346L29.9029 18.4593C30.2862 20.7376 29.9767 23.0785 29.0144 25.1789C28.0522 27.2792 26.4816 29.0424 24.506 30.24L17.5547 34.4086L18.6296 35.0535L26.6558 30.24C28.6315 29.0424 30.2021 27.2792 31.1643 25.1789C32.1265 23.0785 32.436 20.7376 32.0528 18.4593Z" fill="#6E1F8C" fill-opacity="0.3"></path><path d="M13.6642 35.4141L7.00673 42.0715C6.91017 42.1673 6.78837 42.2336 6.65556 42.2627C6.52274 42.2918 6.38438 42.2825 6.25664 42.2359C6.1289 42.1893 6.01705 42.1073 5.93415 41.9996C5.85125 41.8918 5.80072 41.7626 5.78847 41.6272L5.47315 38.1731C5.43732 37.8291 5.165 37.5568 4.82102 37.521L1.36688 37.2056C1.23146 37.1934 1.10233 37.1429 0.994552 37.06C0.886776 36.9771 0.804809 36.8652 0.758221 36.7375C0.711633 36.6097 0.702348 36.4714 0.73145 36.3386C0.760552 36.2057 0.826839 36.0839 0.922572 35.9874L6.3761 30.541C7.20193 31.3726 8.12884 32.0973 9.13511 32.6981L13.6642 35.4141ZM35.8939 37.2056L32.4398 37.521C32.0958 37.5568 31.8235 37.8291 31.7877 38.1731L31.4724 41.6272C31.4601 41.7626 31.4096 41.8918 31.3267 41.9996C31.2438 42.1073 31.1319 42.1893 31.0042 42.2359C30.8764 42.2825 30.7381 42.2918 30.6053 42.2627C30.4725 42.2336 30.3507 42.1673 30.2541 42.0715L23.5966 35.4141L28.1257 32.6981C29.132 32.0973 30.0589 31.3726 30.8847 30.541L36.3383 35.9874C36.434 36.0839 36.5003 36.2057 36.5294 36.3386C36.5585 36.4714 36.5492 36.6097 36.5026 36.7375C36.456 36.8652 36.3741 36.9771 36.2663 37.06C36.1585 37.1429 36.0294 37.1934 35.8939 37.2056Z" fill="#6E1F8C" fill-opacity="0.1"></path><path d="M36.3382 35.9874L30.8847 30.541C30.5264 30.8993 30.148 31.239 29.7524 31.5572L34.1883 35.9874C34.2841 36.0839 34.3503 36.2057 34.3794 36.3386C34.4085 36.4714 34.3993 36.6097 34.3527 36.7375C34.3061 36.8652 34.2241 36.9771 34.1163 37.06C34.0086 37.1429 33.8794 37.1934 33.744 37.2056L30.2899 37.521C29.9459 37.5568 29.6736 37.8291 29.6377 38.1731L29.3633 41.1829L30.254 42.0715C30.3506 42.1673 30.4724 42.2336 30.6052 42.2627C30.738 42.2918 30.8764 42.2825 31.0041 42.2359C31.1319 42.1893 31.2437 42.1073 31.3266 41.9996C31.4095 41.8918 31.4601 41.7626 31.4723 41.6272L31.7876 38.1731C31.8235 37.8291 32.0958 37.5568 32.4398 37.521L35.8939 37.2056C36.0293 37.1934 36.1585 37.1429 36.2662 37.06C36.374 36.9771 36.456 36.8652 36.5026 36.7375C36.5491 36.6097 36.5584 36.4714 36.5293 36.3386C36.5002 36.2057 36.4339 36.0839 36.3382 35.9874Z" fill="#6E1F8C" fill-opacity="0.3"></path><path d="M4.80669 6.78516C4.65894 6.80954 4.52238 6.87915 4.41585 6.9844C4.30932 7.08964 4.23806 7.22534 4.21189 7.37279L2.38449 17.9717C1.99232 20.2334 2.15029 22.5563 2.84504 24.744C3.5398 26.9318 4.75092 28.9203 6.3761 30.5413L0.922572 35.9877C0.826839 36.0842 0.760552 36.206 0.73145 36.3389C0.702348 36.4717 0.711633 36.61 0.758221 36.7378C0.804809 36.8655 0.886776 36.9774 0.994552 37.0603C1.10233 37.1432 1.23146 37.1937 1.36688 37.2059L4.82102 37.5213C5.165 37.5571 5.43732 37.8294 5.47315 38.1734L5.78847 41.6275C5.80072 41.763 5.85125 41.8921 5.93415 41.9999C6.01705 42.1076 6.1289 42.1896 6.25664 42.2362C6.38438 42.2828 6.52274 42.2921 6.65556 42.263C6.78838 42.2339 6.91017 42.1676 7.00673 42.0718L7.8975 41.1811L7.62303 38.1712C7.5872 37.8273 7.31488 37.5549 6.9709 37.5191L3.51676 37.2038C3.38134 37.1915 3.25221 37.141 3.14443 37.0581C3.03666 36.9752 2.95469 36.8634 2.9081 36.7356C2.86151 36.6079 2.85223 36.4695 2.88133 36.3367C2.91043 36.2039 2.97672 36.0821 3.07245 35.9855L7.55925 31.5045C8.0831 30.9742 8.11464 30.13 7.63091 29.5624C6.30596 27.9701 5.34282 26.1088 4.80816 24.1075C4.2735 22.1062 4.18008 20.0127 4.53437 17.9717L6.36177 7.37279C6.38794 7.22534 6.4592 7.08964 6.56573 6.9844C6.67226 6.87915 6.80882 6.80954 6.95657 6.78516H4.80669Z" fill="white"></path><path d="M2.52539 12.899L3.5 7.25195L4.91176 7.49561L3.93715 13.1426L2.52539 12.899Z" fill="white"></path><path d="M3.73584 10.9125C3.9259 10.9125 4.10818 10.837 4.24258 10.7026C4.37697 10.5682 4.45247 10.3859 4.45247 10.1958C4.45247 10.0058 4.37697 9.82351 4.24258 9.68912C4.10818 9.55473 3.9259 9.47922 3.73584 9.47922H3.72868C3.53862 9.48017 3.35672 9.55659 3.223 9.69165C3.08927 9.82672 3.01468 10.0094 3.01563 10.1994C3.01658 10.3895 3.093 10.5714 3.22806 10.7051C3.36313 10.8388 3.54578 10.9134 3.73584 10.9125ZM10.2371 30.8555L18.2633 35.6683C18.3748 35.7353 18.5023 35.7707 18.6324 35.7707C18.7624 35.7707 18.89 35.7353 19.0014 35.6683L27.0276 30.8548C29.1271 29.5825 30.7963 27.7094 31.8193 25.4779C32.8423 23.2464 33.172 20.7591 32.7657 18.3382L31.1862 9.22482C31.1617 9.08228 31.0947 8.95048 30.9939 8.84675C30.8931 8.74302 30.7633 8.67221 30.6215 8.64364C26.4422 7.88162 22.4901 6.18193 19.0623 3.6724C18.9377 3.57766 18.7854 3.52637 18.6288 3.52637C18.4722 3.52637 18.3199 3.57766 18.1952 3.6724C14.7673 6.18177 10.8153 7.88166 6.63603 8.64435C6.49425 8.67293 6.36443 8.74373 6.26365 8.84746C6.16286 8.95119 6.09581 9.08299 6.07133 9.22554L4.49905 18.3382C4.09276 20.7592 4.42245 23.2465 5.44544 25.4782C6.46844 27.7098 8.13765 29.583 10.2371 30.8555ZM5.91152 18.5818L7.40067 9.94933C11.4366 9.14022 15.2603 7.50076 18.6288 5.13503C21.9973 7.50063 25.8209 9.13986 29.8569 9.94861L31.346 18.5818C31.7043 20.7179 31.4133 22.9124 30.5107 24.8814C29.6081 26.8503 28.1353 28.503 26.2831 29.6257L18.6288 34.2186L10.9745 29.6265C9.12208 28.5037 7.64927 26.8508 6.74663 24.8818C5.84399 22.9127 5.55307 20.7181 5.91152 18.5818Z" fill="#6E1F8C"></path><path d="M14.5398 26.3044C14.6742 26.4387 14.8564 26.5142 15.0465 26.5142C15.2365 26.5142 15.4187 26.4387 15.5531 26.3044L27.7358 14.1217C27.8663 13.9865 27.9386 13.8055 27.9369 13.6176C27.9353 13.4297 27.8599 13.25 27.7271 13.1171C27.5942 12.9843 27.4144 12.9089 27.2265 12.9073C27.0386 12.9056 26.8576 12.9779 26.7225 13.1084L15.0465 24.7844L10.5367 20.2747C10.4016 20.1441 10.2206 20.0719 10.0327 20.0735C9.84477 20.0752 9.66503 20.1505 9.53216 20.2834C9.39929 20.4163 9.32393 20.596 9.32229 20.7839C9.32066 20.9718 9.39289 21.1528 9.52343 21.288L14.5398 26.3044Z" fill="#6E1F8C"></path><path d="M1.30145 37.9196L4.75917 38.2385L5.07448 41.6869C5.11748 42.2423 5.48224 42.721 6.0061 42.9095C6.26209 43.0058 6.54051 43.0257 6.80762 42.967C7.07473 42.9082 7.31907 42.7732 7.51101 42.5784L13.7715 36.3187L17.5223 38.5689C17.8564 38.7694 18.2387 38.8753 18.6284 38.8753C19.0181 38.8753 19.4004 38.7694 19.7345 38.5689L23.4846 36.3187L29.7451 42.5784C29.937 42.7732 30.1814 42.9082 30.4485 42.967C30.7156 43.0257 30.994 43.0058 31.25 42.9095C31.506 42.8176 31.7301 42.6537 31.8953 42.4377C32.0606 42.2216 32.16 41.9624 32.1816 41.6912L32.4998 38.2335L35.9489 37.9189C36.22 37.8949 36.4786 37.7942 36.6946 37.6286C36.9105 37.463 37.0748 37.2393 37.1683 36.9837C37.2619 36.7282 37.2807 36.4513 37.2226 36.1854C37.1645 35.9195 37.0319 35.6757 36.8404 35.4824L31.8742 30.5226C33.4074 28.827 34.5372 26.8064 35.179 24.6123C35.8207 22.4182 35.9578 20.1073 35.5798 17.8526L33.7517 7.24658C33.6998 6.95152 33.5567 6.68016 33.3425 6.47064C33.1284 6.26111 32.854 6.12397 32.5578 6.07847C25.0562 4.89461 21.0029 1.7049 19.6084 0.389176C19.344 0.139252 18.994 0 18.6302 0C18.2664 0 17.9164 0.139252 17.652 0.389176C16.2574 1.7049 12.2056 4.89461 4.69826 6.07991C4.40213 6.1254 4.12771 6.26255 3.91356 6.47207C3.69941 6.68159 3.55631 6.95295 3.50436 7.24801C3.48807 7.34108 3.49029 7.43645 3.51086 7.52867C3.53144 7.62089 3.56998 7.70815 3.62428 7.78548C3.67858 7.8628 3.74758 7.92868 3.82734 7.97934C3.90709 8.02999 3.99605 8.06445 4.08912 8.08073C4.1822 8.09701 4.27756 8.0948 4.36978 8.07422C4.462 8.05365 4.54927 8.01511 4.62659 7.96081C4.78276 7.85114 4.88896 7.68393 4.92184 7.49596C12.8255 6.2476 17.1446 2.83861 18.6245 1.43187C20.1158 2.83861 24.4349 6.2476 32.3443 7.49238L34.1724 18.0942C34.6267 20.8001 34.2582 23.58 33.1147 26.0742C31.9712 28.5683 30.1053 30.6617 27.7586 32.0834L19 37.3392C18.8884 37.4063 18.7607 37.4417 18.6306 37.4417C18.5004 37.4417 18.3727 37.4063 18.2611 37.3392L9.5018 32.0834C7.99335 31.1667 6.67244 29.9723 5.60909 28.5634C4.55287 27.1488 3.78158 25.5424 3.3381 23.8336C2.88683 22.1266 2.77964 20.3468 3.02278 18.5979C3.28937 16.8186 3.63908 14.9589 3.94365 13.143C3.97615 12.9556 3.93287 12.7629 3.82334 12.6074C3.71381 12.452 3.547 12.3463 3.3596 12.3138C3.1722 12.2813 2.97956 12.3246 2.82407 12.4341C2.66857 12.5437 2.56296 12.7105 2.53046 12.8979C2.22231 14.7375 1.8855 16.5212 1.59885 18.4059C1.33067 20.3391 1.4493 22.3064 1.94784 24.1934C2.43653 26.0834 3.28844 27.8602 4.45604 29.4247C4.74269 29.8088 5.04869 30.1765 5.37117 30.5298L0.415695 35.4809C0.224322 35.6739 0.0917396 35.9172 0.0334088 36.1826C-0.0249221 36.4481 -0.00659761 36.7246 0.0862453 36.98C0.179088 37.2354 0.342623 37.4591 0.557781 37.6251C0.772939 37.7911 1.03085 37.8925 1.30145 37.9175V37.9196ZM28.4967 33.3124C29.3424 32.8003 30.1346 32.2046 30.8616 31.5345L35.8292 36.4921L32.3651 36.8081C32.0339 36.8449 31.7253 36.9939 31.4906 37.2304C31.2559 37.4669 31.1093 37.7767 31.0751 38.1081L30.7605 41.563L24.7538 35.5562L28.4967 33.3124ZM6.39308 31.5373C7.12641 32.2014 7.92004 32.7957 8.76368 33.3124L12.5066 35.5583L6.502 41.563L6.18597 38.1002C6.14912 37.7691 6.00006 37.4606 5.76357 37.2259C5.52708 36.9912 5.2174 36.8446 4.88601 36.8103L1.43115 36.495L6.39308 31.5373Z" fill="#6E1F8C"></path></svg> 