<?xml version="1.0" encoding="UTF-8"?> <svg xmlns="http://www.w3.org/2000/svg" width="36" height="40" viewBox="0 0 36 40" fill="none"><path d="M22.562 3.7803C22.3849 4.62221 22.5001 5.49935 22.8887 6.26695C23.2271 6.96405 23.8147 7.50883 24.5353 7.79361C24.8718 7.93116 25.2319 8.00137 25.5953 8.00027H4.92881C4.78124 8.00019 4.63398 7.9868 4.48881 7.96027C4.27587 7.93149 4.0675 7.87547 3.86882 7.79361C3.14816 7.50883 2.56056 6.96405 2.22216 6.26695C1.80155 5.43632 1.7023 4.47968 1.94342 3.58039C2.18454 2.6811 2.74908 1.90244 3.52882 1.39365C4.20807 0.944059 5.00107 0.696681 5.81547 0.680325V0.666992H26.5487V0.673659C25.7112 0.681523 24.8939 0.93158 24.1953 1.39365C23.3565 1.94172 22.7692 2.79996 22.562 3.7803Z" fill="white"></path><path d="M24.1968 1.39365C24.8953 0.93158 25.7126 0.681523 26.5501 0.673659V0.666992H24.5501V0.673659C23.7126 0.681523 22.8953 0.93158 22.1968 1.39365C21.417 1.90244 20.8525 2.6811 20.6114 3.58039C20.3703 4.47968 20.4695 5.43632 20.8901 6.26695C21.2285 6.96405 21.8161 7.50883 22.5368 7.79361C22.8732 7.93116 23.2333 8.00137 23.5968 8.00027H25.5968C25.2333 8.00137 24.8732 7.93116 24.5368 7.79361C23.8161 7.50883 23.2285 6.96405 22.8901 6.26695C22.4695 5.43632 22.3703 4.47968 22.6114 3.58039C22.8525 2.6811 23.417 1.90244 24.1968 1.39365Z" fill="#6E1F8C" fill-opacity="0.3"></path><path d="M34.6034 38.9469L34.4834 38.8136L29.8168 34.6669L23.8168 39.3336H22.7835C23.1081 39.3343 23.4218 39.216 23.6651 39.001C23.9083 38.7859 24.0643 38.4892 24.1035 38.1669L28.2034 6.05379C28.1187 6.44371 27.9368 6.80587 27.6745 7.10659C27.4123 7.40732 27.0782 7.63683 26.7034 7.77378C26.3615 7.91991 25.994 7.99691 25.6221 8.00034C25.2503 8.00378 24.8814 7.93357 24.5368 7.79378C23.8161 7.509 23.2285 6.96422 22.8901 6.26712C22.4695 5.43649 22.3703 4.47985 22.6114 3.58056C22.8525 2.68127 23.417 1.90261 24.1968 1.39382C24.8953 0.931749 25.7126 0.681693 26.5501 0.673828H26.5901C26.6901 0.673828 26.7834 0.673828 26.8834 0.680495C27.8333 0.748342 28.7347 1.12532 29.4501 1.75382C30.1598 2.35704 30.6825 3.15035 30.9567 4.04047C31.1608 4.97581 31.2945 5.92513 31.3567 6.88045L34.9767 37.8402C35.0036 38.041 34.9838 38.2452 34.9191 38.4371C34.8544 38.629 34.7463 38.8034 34.6034 38.9469Z" fill="#6E1F8C" fill-opacity="0.3"></path><path d="M28.2029 6.05371L24.103 38.1668C24.0638 38.4891 23.9078 38.7859 23.6646 39.0009C23.4213 39.2159 23.1076 39.3342 22.783 39.3335H1.99646C1.80754 39.3331 1.62086 39.2925 1.44879 39.2145C1.27673 39.1365 1.1232 39.0228 0.998395 38.881C0.873587 38.7392 0.780344 38.5724 0.724845 38.3918C0.669346 38.2113 0.652858 38.0209 0.676474 37.8335L4.48311 8.00036L4.48978 7.96036C4.63495 7.98689 4.78221 8.00028 4.92978 8.00036H25.5963C25.9768 8.00115 26.3534 7.92401 26.703 7.7737C27.0777 7.63675 27.4118 7.40724 27.674 7.10651C27.9363 6.80579 28.1182 6.44363 28.2029 6.05371Z" fill="#6E1F8C" fill-opacity="0.1"></path><path d="M26.7032 7.7737C26.4654 7.87209 26.2149 7.93628 25.9592 7.96436L22.1032 38.1668C22.064 38.4891 21.9081 38.7859 21.6648 39.0009C21.4215 39.2159 21.1079 39.3342 20.7832 39.3335H22.7832C23.1079 39.3342 23.4215 39.2159 23.6648 39.0009C23.908 38.7859 24.064 38.4891 24.1032 38.1668L28.2032 6.05371C28.1184 6.44363 27.9365 6.80579 27.6742 7.10651C27.412 7.40724 27.0779 7.63675 26.7032 7.7737Z" fill="#6E1F8C" fill-opacity="0.3"></path><path d="M34.603 38.947C34.4776 39.0713 34.3288 39.1696 34.1651 39.2359C34.0015 39.3023 33.8263 39.3355 33.6497 39.3336H23.8164L29.8164 34.667L34.483 38.8136L34.603 38.947Z" fill="white"></path><path d="M2.67646 37.8334L6.4831 8.00027L6.48977 7.96027C6.27682 7.93149 6.06845 7.87547 5.86977 7.79361C5.14911 7.50883 4.56151 6.96405 4.22312 6.26695C3.80251 5.43632 3.70325 4.47968 3.94437 3.58039C4.18549 2.6811 4.75003 1.90244 5.52977 1.39365C6.20902 0.944059 7.00202 0.696681 7.81642 0.680325V0.666992H5.81644V0.680325C5.00204 0.696681 4.20904 0.944059 3.52979 1.39365C2.75004 1.90244 2.18551 2.6811 1.94438 3.58039C1.70326 4.47968 1.80252 5.43632 2.22313 6.26695C2.56152 6.96405 3.14912 7.50883 3.86978 7.79361C4.06846 7.87547 4.27683 7.93149 4.48978 7.96027L4.48311 8.00027L0.676474 37.8334C0.652858 38.0208 0.669346 38.2112 0.724845 38.3918C0.780344 38.5723 0.873587 38.7391 0.998395 38.8809C1.1232 39.0227 1.27673 39.1364 1.44879 39.2144C1.62086 39.2924 1.80754 39.333 1.99646 39.3334H3.99645C3.80753 39.333 3.62085 39.2924 3.44878 39.2144C3.27671 39.1364 3.12319 39.0227 2.99838 38.8809C2.87357 38.7391 2.78033 38.5723 2.72483 38.3918C2.66933 38.2112 2.65284 38.0208 2.67646 37.8334Z" fill="white"></path><path d="M3.14844 13.2096L3.82577 7.91895L5.14842 8.08828L4.4711 13.3789L3.14844 13.2096Z" fill="white"></path><path d="M4.15828 11.3118C4.07074 11.3123 3.98396 11.2955 3.90291 11.2624C3.82186 11.2293 3.74812 11.1805 3.68591 11.1189C3.56026 10.9945 3.48917 10.8253 3.48829 10.6485C3.48741 10.4717 3.55679 10.3018 3.68119 10.1761C3.80559 10.0505 3.97481 9.9794 4.15162 9.97852H4.15828C4.33509 9.97852 4.50466 10.0488 4.62969 10.1738C4.75471 10.2988 4.82495 10.4684 4.82495 10.6452C4.82495 10.822 4.75471 10.9916 4.62969 11.1166C4.50466 11.2416 4.33509 11.3118 4.15828 11.3118Z" fill="#6E1F8C"></path><path d="M31.9492 6.15196C31.8959 5.38033 31.7779 4.61454 31.5966 3.86264C31.2755 2.76563 30.613 1.79959 29.7053 1.10493C28.7976 0.410275 27.692 0.0232103 26.5493 0L5.81607 0C4.75451 0.00378556 3.72534 0.365975 2.89538 1.02786C2.06542 1.68975 1.48332 2.61253 1.24343 3.64664C0.717438 6.21662 2.47009 8.66661 4.92941 8.66661H25.5959C26.1788 8.67212 26.7525 8.52059 27.2566 8.22794L23.4426 38.0844C23.422 38.2451 23.3436 38.3929 23.222 38.5C23.1004 38.6071 22.944 38.6662 22.782 38.6664H1.99676C1.90218 38.6663 1.8087 38.6461 1.72254 38.6071C1.63637 38.5681 1.55949 38.5112 1.497 38.4402C1.43452 38.3692 1.38785 38.2857 1.36011 38.1953C1.33237 38.1049 1.32418 38.0096 1.3361 37.9157L4.46941 13.3772C4.49178 13.2018 4.44355 13.0247 4.33535 12.8849C4.22714 12.7451 4.06781 12.6539 3.89242 12.6316C3.71702 12.6092 3.53992 12.6574 3.40009 12.7656C3.26025 12.8739 3.16912 13.0332 3.14675 13.2086L0.0161097 37.7464C-0.0198337 38.0279 0.00453084 38.3138 0.0875849 38.5851C0.170639 38.8564 0.310481 39.107 0.49782 39.3201C0.68516 39.5333 0.915708 39.7041 1.17415 39.8213C1.43259 39.9384 1.713 39.9993 1.99676 39.9997H33.6492C33.9331 40.0045 34.2147 39.9479 34.4748 39.8337C34.7348 39.7195 34.967 39.5505 35.1556 39.3382C35.3442 39.1259 35.4847 38.8754 35.5675 38.6038C35.6503 38.3321 35.6734 38.0458 35.6352 37.7644C34.1219 24.7932 32.0392 7.04662 31.9492 6.15196ZM29.7872 35.5331L33.3125 38.6664H25.7586L29.7872 35.5331ZM2.54943 3.91731C2.765 3.20249 3.19509 2.57122 3.78143 2.10902C4.36777 1.64682 5.08201 1.37602 5.8274 1.33332C7.14939 1.33332 18.4826 1.33666 23.2079 1.33332C22.5491 1.95373 22.0961 2.76104 21.91 3.64664C21.7706 4.28926 21.7794 4.95515 21.9355 5.59388C22.0917 6.23262 22.3912 6.82744 22.8113 7.33328H4.92941C3.31742 7.33328 2.19476 5.64796 2.54943 3.91731ZM26.4386 7.16128C26.1723 7.27523 25.8856 7.33375 25.5959 7.33328C23.9839 7.33328 22.8626 5.64796 23.2153 3.91731C23.3974 3.16627 23.8319 2.50054 24.4461 2.03142C25.0602 1.56229 25.8168 1.31821 26.5893 1.33999C27.4324 1.36908 28.2452 1.66201 28.913 2.17749C29.5809 2.69297 30.0702 3.40502 30.3119 4.2133C30.4729 4.89239 30.5775 5.58363 30.6246 6.27996C30.6912 7.01328 31.8392 16.7339 34.2912 37.7537L30.4826 34.3678V15.9999C30.4826 15.8231 30.4123 15.6535 30.2873 15.5285C30.1623 15.4035 29.9927 15.3332 29.8159 15.3332C29.6391 15.3332 29.4695 15.4035 29.3445 15.5285C29.2195 15.6535 29.1492 15.8231 29.1492 15.9999V34.3404L24.8373 37.6944C25.2513 34.4504 23.4313 48.7083 28.9039 5.81796C28.9737 5.24469 28.8549 4.66429 28.5655 4.16454C28.2761 3.66478 27.8318 3.27284 27.2999 3.04798C26.0493 2.58132 24.5199 3.42798 24.6226 4.76997C24.6276 4.85845 24.6501 4.94505 24.6889 5.02472C24.7277 5.10438 24.7821 5.17551 24.8487 5.23394C24.9153 5.29237 24.9929 5.33692 25.077 5.365C25.1611 5.39308 25.2499 5.40412 25.3382 5.39747C25.4266 5.39082 25.5128 5.36662 25.5917 5.32628C25.6706 5.28594 25.7407 5.23028 25.7978 5.16254C25.8549 5.0948 25.898 5.01635 25.9245 4.93178C25.9509 4.8472 25.9603 4.75819 25.9519 4.66997C25.9474 4.62663 25.9538 4.58285 25.9706 4.54263C26.0699 4.41704 26.2061 4.32567 26.3599 4.28131C26.5138 4.23696 26.6777 4.24185 26.8286 4.2953C27.0863 4.41848 27.2979 4.62069 27.4327 4.8725C27.5675 5.12431 27.6183 5.41256 27.5779 5.69529C27.5557 6.02547 27.4354 6.34147 27.2322 6.6027C27.0291 6.86393 26.7531 7.05846 26.4386 7.16128Z" fill="#6E1F8C"></path><path d="M4.18843 31.3748C4.01313 31.354 3.83666 31.4028 3.69701 31.5108C3.55736 31.6188 3.4657 31.7773 3.44176 31.9522L2.8511 36.5821C2.83907 36.6761 2.8472 36.7715 2.87493 36.862C2.90267 36.9526 2.94937 37.0362 3.01195 37.1073C3.07452 37.1784 3.15152 37.2353 3.23781 37.2743C3.32411 37.3133 3.41773 37.3335 3.51243 37.3335H9.14972C9.32653 37.3335 9.4961 37.2632 9.62113 37.1382C9.74615 37.0132 9.81639 36.8436 9.81639 36.6668C9.81639 36.49 9.74615 36.3204 9.62113 36.1954C9.4961 36.0704 9.32653 36.0001 9.14972 36.0001H4.26976L4.76509 32.1215C4.77631 32.0346 4.77029 31.9463 4.74737 31.8618C4.72446 31.7772 4.6851 31.698 4.63154 31.6286C4.57798 31.5593 4.51128 31.5012 4.43524 31.4576C4.35921 31.4141 4.27534 31.3859 4.18843 31.3748Z" fill="#6E1F8C"></path></svg> 