<?xml version="1.0" encoding="UTF-8"?> <svg xmlns="http://www.w3.org/2000/svg" width="50" height="40" viewBox="0 0 50 40" fill="none"><path d="M49.1701 21.5177V32.5017C49.1687 32.9433 48.9927 33.3665 48.6804 33.6788C48.3681 33.9911 47.9449 34.1671 47.5033 34.1685H45.8365C45.8365 32.8423 45.3097 31.5705 44.372 30.6327C43.4342 29.695 42.1624 29.1682 40.8362 29.1682C39.5101 29.1682 38.2382 29.695 37.3005 30.6327C36.3628 31.5705 35.8359 32.8423 35.8359 34.1685V9.16699H40.0028V19.1676C40.0042 19.6092 40.1802 20.0324 40.4925 20.3447C40.8048 20.657 41.228 20.833 41.6696 20.8343H49.0951C49.1451 21.0587 49.1703 21.2879 49.1701 21.5177Z" fill="#6E1F8C" fill-opacity="0.1"></path><path d="M49.0944 20.835H46.5943C46.6443 21.0593 46.6695 21.2885 46.6693 21.5183V32.5023C46.6675 32.7955 46.5884 33.083 46.4401 33.3358C46.2917 33.5886 46.0793 33.7979 45.8242 33.9424C45.8242 34.0182 45.8359 34.0924 45.8359 34.1691H47.5027C47.9443 34.1678 48.3675 33.9917 48.6798 33.6794C48.9921 33.3671 49.1681 32.944 49.1694 32.5023V21.5183C49.1696 21.2885 49.1445 21.0593 49.0944 20.835Z" fill="#6E1F8C" fill-opacity="0.3"></path><path d="M49.0942 20.8343H41.6687C41.2271 20.833 40.8039 20.657 40.4916 20.3447C40.1793 20.0324 40.0033 19.6092 40.002 19.1676V9.16699H42.5188C43.0084 9.16745 43.4872 9.31134 43.896 9.5809C44.3048 9.85046 44.6256 10.2339 44.8189 10.6837L48.9025 20.2093C48.9876 20.4105 49.0518 20.62 49.0942 20.8343Z" fill="#6E1F8C" fill-opacity="0.3"></path><path d="M48.9034 20.2093L44.8198 10.6837C44.6265 10.2339 44.3057 9.85046 43.8969 9.5809C43.4881 9.31134 43.0093 9.16745 42.5197 9.16699H40.0195C40.5092 9.16745 40.988 9.31134 41.3967 9.5809C41.8055 9.85046 42.1264 10.2339 42.3197 10.6837L46.4032 20.2093C46.4883 20.4105 46.5526 20.62 46.5949 20.8343H49.0951C49.0527 20.62 48.9885 20.4105 48.9034 20.2093Z" fill="#6E1F8C" fill-opacity="0.3"></path><path d="M4.16754 34.1685H2.50077C2.05912 34.1672 1.63594 33.9912 1.32365 33.6789C1.01136 33.3666 0.835326 32.9434 0.834007 32.5017C0.832843 32.2829 0.875782 32.0661 0.96026 31.8642C1.04474 31.6623 1.16903 31.4795 1.3257 31.3267C1.4785 31.17 1.6613 31.0457 1.86319 30.9612C2.06508 30.8768 2.28192 30.8338 2.50077 30.835H35.8361V34.1685H4.16754Z" fill="#6E1F8C" fill-opacity="0.3"></path><path d="M33.3359 30.835H35.8361V34.1685H33.3359V30.835Z" fill="#6E1F8C" fill-opacity="0.3"></path><path d="M12.8839 30.8353H35.8353V25.835H2.5V30.8353H5.45017H12.8839Z" fill="white"></path><path d="M33.3359 25.835H35.8361V30.8353H33.3359V25.835Z" fill="#6E1F8C" fill-opacity="0.3"></path><path d="M5.83353 0.833008H32.5018C33.3859 0.833008 34.2338 1.18422 34.8589 1.80938C35.4841 2.43453 35.8353 3.28243 35.8353 4.16654V25.8345H2.5V4.16654C2.5 3.28243 2.85121 2.43453 3.47637 1.80938C4.10153 1.18422 4.94942 0.833008 5.83353 0.833008Z" fill="#6E1F8C" fill-opacity="0.1"></path><path d="M32.5021 0.833008H30.002C30.8861 0.833008 31.734 1.18422 32.3591 1.80938C32.9843 2.43453 33.3355 3.28243 33.3355 4.16654V25.8345H35.8356V4.16654C35.8356 3.28243 35.4844 2.43453 34.8593 1.80938C34.2341 1.18422 33.3862 0.833008 32.5021 0.833008Z" fill="#6E1F8C" fill-opacity="0.3"></path><path d="M40.8362 39.1686C43.5978 39.1686 45.8365 36.9298 45.8365 34.1683C45.8365 31.4067 43.5978 29.168 40.8362 29.168C38.0746 29.168 35.8359 31.4067 35.8359 34.1683C35.8359 36.9298 38.0746 39.1686 40.8362 39.1686Z" fill="#6E1F8C" fill-opacity="0.1"></path><path d="M40.836 29.168C40.4139 29.1704 39.9939 29.2264 39.5859 29.3347C40.6588 29.6107 41.6094 30.2356 42.2881 31.1111C42.9669 31.9866 43.3353 33.063 43.3353 34.1708C43.3353 35.2786 42.9669 36.3549 42.2881 37.2304C41.6094 38.1059 40.6588 38.7309 39.5859 39.0069C40.2738 39.1862 40.9919 39.2168 41.6925 39.0966C42.393 38.9764 43.0599 38.7083 43.6487 38.31C44.2374 37.9118 44.7345 37.3926 45.1068 36.7871C45.4791 36.1816 45.718 35.5036 45.8075 34.7985C45.8971 34.0934 45.8354 33.3772 45.6263 32.6979C45.4173 32.0185 45.0659 31.3915 44.5954 30.8587C44.1249 30.3259 43.5463 29.8995 42.898 29.6079C42.2498 29.3164 41.5468 29.1664 40.836 29.168Z" fill="#6E1F8C" fill-opacity="0.3"></path><path d="M9.16826 39.1686C11.9298 39.1686 14.1686 36.9298 14.1686 34.1683C14.1686 31.4067 11.9298 29.168 9.16826 29.168C6.40668 29.168 4.16797 31.4067 4.16797 34.1683C4.16797 36.9298 6.40668 39.1686 9.16826 39.1686Z" fill="#6E1F8C" fill-opacity="0.1"></path><path d="M9.16804 29.1681C8.74598 29.1705 8.32593 29.2265 7.91797 29.3347C8.98861 29.6125 9.93673 30.2378 10.6136 31.1127C11.2904 31.9875 11.6576 33.0623 11.6576 34.1684C11.6576 35.2744 11.2904 36.3492 10.6136 37.224C9.93673 38.0989 8.98861 38.7242 7.91797 39.002C8.60664 39.1843 9.32633 39.2174 10.0288 39.099C10.7313 38.9806 11.4004 38.7135 11.9913 38.3155C12.5822 37.9176 13.0812 37.3979 13.4549 36.7914C13.8286 36.1849 14.0684 35.5055 14.1583 34.7988C14.2481 34.0921 14.1859 33.3743 13.9758 32.6936C13.7657 32.0129 13.4126 31.3849 12.9401 30.8518C12.4676 30.3186 11.8866 29.8926 11.236 29.6022C10.5855 29.3118 9.88043 29.1638 9.16804 29.1681Z" fill="#6E1F8C" fill-opacity="0.3"></path><path d="M5.8343 0.833008H8.33445C7.45034 0.833008 6.60245 1.18422 5.97729 1.80938C5.35213 2.43453 5.00092 3.28243 5.00092 4.16654V30.8348C4.55988 30.838 4.13783 31.0147 3.82595 31.3266C3.51408 31.6384 3.33743 32.0605 3.33415 32.5015C3.33569 32.7957 3.41419 33.0843 3.56186 33.3387C3.70953 33.5931 3.92121 33.8044 4.17587 33.9516C4.16877 34.0236 4.16599 34.096 4.16754 34.1683H2.50077C2.05912 34.167 1.63594 33.991 1.32365 33.6787C1.01136 33.3664 0.835326 32.9432 0.834007 32.5015C0.832843 32.2827 0.875782 32.0658 0.96026 31.864C1.04474 31.6621 1.16903 31.4793 1.3257 31.3265C1.4785 31.1698 1.6613 31.0455 1.86319 30.961C2.06508 30.8765 2.28192 30.8336 2.50077 30.8348V4.16654C2.50077 3.28243 2.85198 2.43453 3.47714 1.80938C4.1023 1.18422 4.95019 0.833008 5.8343 0.833008Z" fill="white"></path><path d="M1.66602 4.16699H3.33278V10.8341H1.66602V4.16699Z" fill="white"></path><path d="M45.586 10.3564C45.3297 9.75555 44.9023 9.24336 44.3569 8.8837C43.8116 8.52404 43.1725 8.3328 42.5192 8.33382H36.6689V4.16691C36.6675 3.06218 36.2281 2.00308 35.4469 1.22192C34.6658 0.440761 33.6067 0.00132329 32.5019 0H5.83371C4.72898 0.00132329 3.66988 0.440761 2.88872 1.22192C2.10756 2.00308 1.66812 3.06218 1.6668 4.16691C1.6668 4.38794 1.7546 4.59991 1.91089 4.7562C2.06718 4.91249 2.27915 5.00029 2.50018 5.00029C2.72121 5.00029 2.93318 4.91249 3.08947 4.7562C3.24576 4.59991 3.33356 4.38794 3.33356 4.16691C3.33356 3.50383 3.59697 2.86791 4.06584 2.39904C4.53471 1.93017 5.17063 1.66676 5.83371 1.66676H32.5019C33.165 1.66676 33.8009 1.93017 34.2698 2.39904C34.7387 2.86791 35.0021 3.50383 35.0021 4.16691V25.0015H3.33356V10.834C3.33356 10.6129 3.24576 10.401 3.08947 10.2447C2.93318 10.0884 2.72121 10.0006 2.50018 10.0006C2.27915 10.0006 2.06718 10.0884 1.91089 10.2447C1.7546 10.401 1.6668 10.6129 1.6668 10.834V30.1526C1.3186 30.2714 1.00258 30.469 0.743409 30.7301C0.506665 30.9603 0.3188 31.2358 0.191066 31.5402C0.0633318 31.8447 -0.0016435 32.1718 3.1582e-05 32.5019C3.1582e-05 33.165 0.263439 33.8009 0.732308 34.2698C1.20118 34.7387 1.8371 35.0021 2.50018 35.0021H3.40023C3.59949 36.3895 4.29229 37.6586 5.35155 38.5767C6.41082 39.4947 7.76553 40 9.16724 40C10.5689 40 11.9237 39.4947 12.9829 38.5767C14.0422 37.6586 14.735 36.3895 14.9342 35.0021H35.0688C35.268 36.3895 35.9608 37.6586 37.0201 38.5767C38.0793 39.4947 39.4341 40 40.8358 40C42.2375 40 43.5922 39.4947 44.6515 38.5767C45.7107 37.6586 46.4035 36.3895 46.6028 35.0021H47.5028C48.1659 35.0021 48.8018 34.7387 49.2707 34.2698C49.7396 33.8009 50.003 33.165 50.003 32.5019V21.5179C50.0028 20.9555 49.8894 20.3989 49.6696 19.8812L45.586 10.3564ZM3.40023 33.3353H2.50018C2.27915 33.3353 2.06718 33.2475 1.91089 33.0912C1.7546 32.9349 1.6668 32.7229 1.6668 32.5019C1.66644 32.3908 1.68888 32.2808 1.73275 32.1788C1.77661 32.0767 1.84096 31.9847 1.92181 31.9085C1.99704 31.8316 2.08706 31.7706 2.18645 31.7294C2.28585 31.6882 2.39257 31.6674 2.50018 31.6685H3.90443C3.65317 32.1955 3.48318 32.7574 3.40023 33.3353ZM9.16724 38.3356C8.3431 38.3356 7.53747 38.0912 6.85223 37.6333C6.16698 37.1755 5.6329 36.5247 5.31751 35.7633C5.00213 35.0019 4.91961 34.1641 5.08039 33.3558C5.24117 32.5475 5.63803 31.805 6.22079 31.2222C6.80354 30.6395 7.54601 30.2426 8.35431 30.0818C9.16261 29.921 10.0004 30.0036 10.7618 30.319C11.5232 30.6343 12.174 31.1684 12.6319 31.8537C13.0898 32.5389 13.3341 33.3445 13.3341 34.1687C13.3328 35.2734 12.8934 36.3325 12.1122 37.1137C11.3311 37.8948 10.272 38.3343 9.16724 38.3356ZM35.0021 33.3353H14.9342C14.8513 32.7574 14.6813 32.1955 14.43 31.6685H35.0021V33.3353ZM35.0021 30.0018H13.2425C12.155 28.9335 10.6916 28.335 9.16724 28.335C7.64287 28.335 6.17945 28.9335 5.092 30.0018H3.33356V26.6682H35.0021V30.0018ZM40.8358 10.0006H42.5192C42.8459 10.0003 43.1656 10.096 43.4384 10.2759C43.7111 10.4558 43.925 10.7119 44.0535 11.0123L47.907 20.0012H41.6691C41.4481 20.0012 41.2361 19.9134 41.0799 19.7571C40.9236 19.6008 40.8358 19.3888 40.8358 19.1678V10.0006ZM40.8358 38.3356C40.0116 38.3356 39.206 38.0912 38.5208 37.6333C37.8355 37.1755 37.3014 36.5247 36.986 35.7633C36.6707 35.0019 36.5881 34.1641 36.7489 33.3558C36.9097 32.5475 37.3066 31.805 37.8893 31.2222C38.4721 30.6395 39.2145 30.2426 40.0228 30.0818C40.8311 29.921 41.669 30.0036 42.4304 30.319C43.1918 30.6343 43.8426 31.1684 44.3004 31.8537C44.7583 32.5389 45.0027 33.3445 45.0027 34.1687C45.0014 35.2734 44.5619 36.3325 43.7808 37.1137C42.9996 37.8948 41.9405 38.3343 40.8358 38.3356ZM48.3362 23.3347H45.8361C45.615 23.3347 45.4031 23.4225 45.2468 23.5788C45.0905 23.7351 45.0027 23.9471 45.0027 24.1681C45.0027 24.3891 45.0905 24.6011 45.2468 24.7574C45.4031 24.9137 45.615 25.0015 45.8361 25.0015H48.3362V32.5019C48.3362 32.7229 48.2484 32.9349 48.0921 33.0912C47.9358 33.2475 47.7239 33.3353 47.5028 33.3353H46.6028C46.4491 32.2585 45.9968 31.2462 45.2973 30.4133C44.5978 29.5803 43.6789 28.9599 42.6448 28.6225C41.6108 28.285 40.5028 28.244 39.4466 28.5039C38.3904 28.7639 37.4281 29.3146 36.6689 30.0934V10.0006H39.169V19.1678C39.169 19.8309 39.4324 20.4668 39.9013 20.9357C40.3701 21.4045 41.0061 21.6679 41.6691 21.6679H48.3362V23.3347Z" fill="#6E1F8C"></path><path d="M2.50135 8.33376C2.96162 8.33376 3.33473 7.96064 3.33473 7.50037C3.33473 7.04011 2.96162 6.66699 2.50135 6.66699C2.04109 6.66699 1.66797 7.04011 1.66797 7.50037C1.66797 7.96064 2.04109 8.33376 2.50135 8.33376Z" fill="#6E1F8C"></path><path d="M10.8349 10.8338C11.0559 10.8338 11.2679 10.746 11.4242 10.5897C11.5805 10.4334 11.6683 10.2214 11.6683 10.0004C11.6683 9.77935 11.5805 9.56737 11.4242 9.41108C11.2679 9.25479 11.0559 9.16699 10.8349 9.16699H7.50135C7.28032 9.16699 7.06835 9.25479 6.91206 9.41108C6.75577 9.56737 6.66797 9.77935 6.66797 10.0004V16.6674C6.66797 16.8885 6.75577 17.1004 6.91206 17.2567C7.06835 17.413 7.28032 17.5008 7.50135 17.5008C7.72238 17.5008 7.93435 17.413 8.09064 17.2567C8.24693 17.1004 8.33473 16.8885 8.33473 16.6674V14.1673H9.16812C9.38914 14.1673 9.60112 14.0795 9.75741 13.9232C9.9137 13.7669 10.0015 13.5549 10.0015 13.3339C10.0015 13.1129 9.9137 12.9009 9.75741 12.7446C9.60112 12.5883 9.38914 12.5005 9.16812 12.5005H8.33473V10.8338H10.8349ZM24.169 10.8338C24.39 10.8338 24.602 10.746 24.7583 10.5897C24.9146 10.4334 25.0024 10.2214 25.0024 10.0004C25.0024 9.77935 24.9146 9.56737 24.7583 9.41108C24.602 9.25479 24.39 9.16699 24.169 9.16699H20.8355C20.6144 9.16699 20.4025 9.25479 20.2462 9.41108C20.0899 9.56737 20.0021 9.77935 20.0021 10.0004V16.6674C20.0021 16.8885 20.0899 17.1004 20.2462 17.2567C20.4025 17.413 20.6144 17.5008 20.8355 17.5008H24.169C24.39 17.5008 24.602 17.413 24.7583 17.2567C24.9146 17.1004 25.0024 16.8885 25.0024 16.6674C25.0024 16.4464 24.9146 16.2344 24.7583 16.0781C24.602 15.9219 24.39 15.8341 24.169 15.8341H21.6688V14.1673H22.5022C22.7233 14.1673 22.9352 14.0795 23.0915 13.9232C23.2478 13.7669 23.3356 13.5549 23.3356 13.3339C23.3356 13.1129 23.2478 12.9009 23.0915 12.7446C22.9352 12.5883 22.7233 12.5005 22.5022 12.5005H21.6688V10.8338H24.169ZM30.8361 10.8338C31.0571 10.8338 31.2691 10.746 31.4253 10.5897C31.5816 10.4334 31.6694 10.2214 31.6694 10.0004C31.6694 9.77935 31.5816 9.56737 31.4253 9.41108C31.2691 9.25479 31.0571 9.16699 30.8361 9.16699H27.5025C27.2815 9.16699 27.0695 9.25479 26.9132 9.41108C26.7569 9.56737 26.6691 9.77935 26.6691 10.0004V16.6674C26.6691 16.8885 26.7569 17.1004 26.9132 17.2567C27.0695 17.413 27.2815 17.5008 27.5025 17.5008H30.8361C31.0571 17.5008 31.2691 17.413 31.4253 17.2567C31.5816 17.1004 31.6694 16.8885 31.6694 16.6674C31.6694 16.4464 31.5816 16.2344 31.4253 16.0781C31.2691 15.9219 31.0571 15.8341 30.8361 15.8341H28.3359V14.1673H29.1693C29.3903 14.1673 29.6023 14.0795 29.7586 13.9232C29.9149 13.7669 30.0027 13.5549 30.0027 13.3339C30.0027 13.1129 29.9149 12.9009 29.7586 12.7446C29.6023 12.5883 29.3903 12.5005 29.1693 12.5005H28.3359V10.8338H30.8361ZM18.3353 11.6671C18.3353 11.0041 18.0719 10.3681 17.603 9.89927C17.1342 9.4304 16.4983 9.16699 15.8352 9.16699H14.1684C13.9474 9.16699 13.7354 9.25479 13.5791 9.41108C13.4228 9.56737 13.335 9.77935 13.335 10.0004V16.6674C13.335 16.8885 13.4228 17.1004 13.5791 17.2567C13.7354 17.413 13.9474 17.5008 14.1684 17.5008C14.3894 17.5008 14.6014 17.413 14.7577 17.2567C14.914 17.1004 15.0018 16.8885 15.0018 16.6674V14.1673H15.6018L16.7286 16.9775C16.7677 17.0812 16.8271 17.1761 16.9034 17.2567C16.9796 17.3372 17.0712 17.4016 17.1727 17.4463C17.2742 17.491 17.3836 17.5149 17.4945 17.5168C17.6054 17.5186 17.7155 17.4983 17.8185 17.4571C17.9214 17.4158 18.0151 17.3544 18.094 17.2765C18.1729 17.1985 18.2354 17.1057 18.278 17.0032C18.3205 16.9008 18.3422 16.791 18.3418 16.6801C18.3413 16.5692 18.3187 16.4595 18.2753 16.3574L17.2269 13.7423C17.5678 13.5139 17.8472 13.2051 18.0405 12.8432C18.2338 12.4813 18.335 12.0774 18.3353 11.6671ZM15.8352 12.5005H15.0018V10.8338H15.8352C16.0562 10.8338 16.2682 10.9216 16.4245 11.0778C16.5808 11.2341 16.6686 11.4461 16.6686 11.6671C16.6686 11.8882 16.5808 12.1001 16.4245 12.2564C16.2682 12.4127 16.0562 12.5005 15.8352 12.5005Z" fill="#6E1F8C"></path></svg> 