<?xml version="1.0" encoding="UTF-8"?> <svg xmlns="http://www.w3.org/2000/svg" width="38" height="42" viewBox="0 0 38 42" fill="none"><path d="M22.4031 9.95411C22.4031 3.05902 25.0281 0.840003 25.196 0.707031C23.988 1.18588 22.8375 1.79876 21.7661 2.53418C16.3762 6.03681 13.1759 12.074 13.3032 18.501C13.3032 21.3499 14.7031 25.62 11.2031 25.62C10.8783 25.6165 10.5583 25.5424 10.2651 25.4028C9.6685 25.0819 9.17615 24.5971 8.84621 24.0054C8.51627 23.4138 8.36252 22.7401 8.4031 22.0639C8.4031 19.9288 10.5033 17.7871 10.5033 17.7871C9.36982 18.0921 8.29067 18.5714 7.30438 19.2078C4.44832 20.9789 0.703125 24.8289 0.703125 32.7458C0.703125 38.2197 3.93727 41.7198 14.1434 41.9858C14.5493 41.9928 14.9691 41.9999 15.4034 41.9999C21.703 41.9999 32.2029 39.8649 32.2029 28.4689C32.2029 18.501 22.4031 16.366 22.4031 9.95411Z" fill="#6E1F8C" fill-opacity="0.1"></path><path d="M32.2042 28.4691C32.2042 39.865 21.7042 42 15.4045 42C14.9703 42 14.5506 41.9929 14.1445 41.9859C20.4933 41.7968 30.1044 39.375 30.1044 28.4691C30.1044 18.5011 20.3042 16.366 20.3042 9.95419C20.3042 6.28619 21.0464 3.94126 21.7674 2.53427C22.8387 1.79882 23.9892 1.18591 25.1973 0.707031C25.0294 0.840003 22.4044 3.05902 22.4044 9.95411C22.4044 16.366 32.2042 18.501 32.2042 28.469V28.4691Z" fill="#6E1F8C" fill-opacity="0.3"></path><path d="M15.4046 42.0001C21.0046 42.0001 24.5047 38.4398 24.5047 32.743C24.5047 27.0467 18.9044 23.4863 18.9044 23.4863C18.9044 23.4863 21.7044 36.3034 13.3046 36.3034C9.80446 36.3034 8.40444 33.4551 8.40444 30.6067C8.40444 30.6067 6.30469 32.743 6.30469 37.0154C6.30469 41.2874 12.6047 42.0001 15.4046 42.0001Z" fill="#6E1F8C" fill-opacity="0.1"></path><path d="M12.3569 25.398L12.3653 25.4029C12.6584 25.5425 12.9785 25.6166 13.3032 25.6201C16.8033 25.6201 15.4033 21.3501 15.4033 18.5011C15.2761 12.0741 18.4759 6.0369 23.8662 2.53427H23.8711C24.1891 1.84451 24.6393 1.22374 25.196 0.707031C23.988 1.18588 22.8375 1.79876 21.7662 2.53418C16.3762 6.03681 13.1759 12.074 13.3032 18.501C13.3032 20.9676 14.3468 24.495 12.3569 25.3979V25.398ZM14.1434 41.9859C14.5493 41.9929 14.9691 42 15.4034 42C15.6741 42 15.9554 41.9942 16.2431 41.9859C6.03643 41.7199 2.80319 38.2198 2.80319 32.7459C2.80319 24.836 6.54396 20.986 9.39928 19.2114C9.72298 18.7039 10.0924 18.2271 10.5033 17.7871C9.36982 18.0922 8.29067 18.5715 7.30438 19.2079C4.44832 20.979 0.703125 24.829 0.703125 32.7458C0.703125 38.2198 3.93727 41.7199 14.1434 41.9859Z" fill="white"></path><path d="M2.8034 17.5007C2.71148 17.5007 2.62045 17.4826 2.53552 17.4474C2.4506 17.4122 2.37344 17.3606 2.30845 17.2956C2.24345 17.2306 2.1919 17.1534 2.15674 17.0685C2.12158 16.9835 2.10349 16.8925 2.10352 16.8006V14.0006C2.10352 13.6141 2.41687 13.3008 2.8034 13.3008C2.89533 13.3008 2.98635 13.3188 3.07128 13.354C3.15622 13.3892 3.23339 13.4407 3.29841 13.5057C3.36342 13.5707 3.415 13.6478 3.45019 13.7327C3.48539 13.8176 3.50352 13.9087 3.50354 14.0006V16.8006C3.50355 16.8925 3.48545 16.9835 3.45027 17.0685C3.41509 17.1534 3.36351 17.2306 3.2985 17.2956C3.23348 17.3607 3.1563 17.4122 3.07135 17.4474C2.9864 17.4826 2.89535 17.5007 2.8034 17.5007Z" fill="#6E1F8C"></path><path d="M4.20321 16.0998H1.40326C1.21756 16.0998 1.03948 16.026 0.908184 15.8947C0.776886 15.7634 0.703125 15.5853 0.703125 15.3996C0.703125 15.0133 1.01681 14.6999 1.40326 14.6999H4.20321C4.38885 14.6999 4.56689 14.7737 4.69816 14.9049C4.82943 15.0362 4.90318 15.2142 4.90318 15.3999C4.90318 15.5855 4.82943 15.7636 4.69816 15.8948C4.56689 16.0261 4.38885 16.0998 4.20321 16.0998ZM31.503 4.19989C31.4111 4.19989 31.3201 4.18178 31.2351 4.14659C31.1502 4.11141 31.073 4.05984 31.008 3.99482C30.943 3.92981 30.8914 3.85262 30.8562 3.76768C30.8211 3.68274 30.803 3.5917 30.803 3.49976V0.699804C30.803 0.313439 31.1163 0 31.5031 0C31.8895 0 32.2029 0.313357 32.2029 0.699804V3.49976C32.2029 3.59168 32.1849 3.6827 32.1497 3.76764C32.1145 3.85257 32.063 3.92975 31.998 3.99476C31.933 4.05977 31.8559 4.11135 31.771 4.14655C31.6861 4.18174 31.595 4.19987 31.5031 4.19989H31.503Z" fill="#6E1F8C"></path><path d="M32.9021 2.80045H30.1022C30.0096 2.80145 29.9177 2.78409 29.8319 2.74936C29.7461 2.71463 29.6681 2.66322 29.6023 2.59812C29.5364 2.53302 29.4842 2.45551 29.4485 2.37009C29.4129 2.28466 29.3945 2.19301 29.3945 2.10044C29.3945 2.00787 29.4129 1.91622 29.4485 1.83079C29.4842 1.74537 29.5364 1.66786 29.6023 1.60276C29.6681 1.53766 29.7461 1.48625 29.8319 1.45153C29.9177 1.4168 30.0096 1.39943 30.1022 1.40043H32.9021C33.0878 1.40043 33.2658 1.47418 33.3971 1.60546C33.5284 1.73674 33.6021 1.91479 33.6021 2.10044C33.6021 2.28609 33.5284 2.46414 33.3971 2.59542C33.2658 2.7267 33.0878 2.80045 32.9021 2.80045ZM35.7021 42.0002C35.6101 42.0002 35.5191 41.9821 35.4342 41.9469C35.3493 41.9117 35.2721 41.8601 35.2072 41.7951C35.1422 41.7301 35.0906 41.6529 35.0555 41.568C35.0203 41.483 35.0022 41.392 35.0023 41.3001V38.5001C35.0023 38.3145 35.076 38.1365 35.2073 38.0052C35.3385 37.8739 35.5166 37.8002 35.7022 37.8002C35.8879 37.8002 36.0659 37.8739 36.1972 38.0052C36.3285 38.1365 36.4022 38.3145 36.4022 38.5001V41.3001C36.4022 41.392 36.3841 41.4831 36.3489 41.568C36.3137 41.653 36.2622 41.7302 36.1972 41.7952C36.1321 41.8602 36.055 41.9118 35.97 41.947C35.8851 41.9821 35.794 42.0002 35.7021 42.0002Z" fill="#6E1F8C"></path><path d="M37.1033 40.5996H34.3034C34.2115 40.5996 34.1204 40.5814 34.0355 40.5462C33.9506 40.511 33.8734 40.4595 33.8084 40.3944C33.7434 40.3294 33.6919 40.2522 33.6567 40.1673C33.6216 40.0823 33.6035 39.9913 33.6035 39.8994C33.6035 39.513 33.9169 39.1992 34.3034 39.1992H37.1033C37.2871 39.202 37.4625 39.277 37.5915 39.408C37.7205 39.539 37.7928 39.7155 37.7928 39.8994C37.7928 40.0832 37.7205 40.2597 37.5915 40.3907C37.4625 40.5217 37.2871 40.5968 37.1033 40.5996Z" fill="#6E1F8C"></path><path d="M0.0040574 32.1998C-0.0631881 29.0262 0.706476 25.8909 2.23563 23.1092C3.12315 21.599 4.28664 20.2692 5.66551 19.1889C7.05134 18.0876 8.64729 17.2806 10.3557 16.8174L10.6496 18.1866C9.90769 18.3903 9.1888 18.67 8.50428 19.0211C6.39885 20.1118 4.64423 21.7749 3.44239 23.8189C2.0404 26.3857 1.33749 29.2759 1.40408 32.1998H0.0040574Z" fill="white"></path><path d="M1.00624 28.7167C0.914039 28.7024 0.819909 28.7067 0.729386 28.7293C0.638862 28.7519 0.553771 28.7924 0.479112 28.8483C0.404383 28.9042 0.341606 28.9744 0.29449 29.055C0.247375 29.1355 0.216878 29.2246 0.2048 29.3171C0.125279 29.793 0.0814612 30.2742 0.0737147 30.7566L0.00390625 32.1992H1.40385L1.47374 30.8447C1.47948 30.3939 1.52017 29.944 1.5958 29.4992C1.61833 29.3178 1.56942 29.1347 1.45939 28.9887C1.34937 28.8426 1.18687 28.7451 1.00624 28.7167V28.7167ZM10.651 18.1837L10.3568 16.8145C8.64845 17.2778 7.05261 18.0849 5.66692 19.1863C4.28779 20.2662 3.12422 21.596 2.23696 23.1062L1.88668 23.7544C1.83932 23.8352 1.80951 23.925 1.7992 24.0181C1.78889 24.1112 1.79832 24.2053 1.82687 24.2945C1.85541 24.3837 1.90244 24.4658 1.96487 24.5356C2.02731 24.6054 2.10375 24.6612 2.18921 24.6994C2.35561 24.7724 2.54292 24.7822 2.716 24.7269C2.88909 24.6716 3.03607 24.5551 3.12937 24.3992L3.44371 23.814C4.64543 21.77 6.39994 20.1069 8.50527 19.0162C9.19002 18.6657 9.90905 18.3868 10.651 18.1837ZM0.799853 26.4717C0.751198 26.657 0.77288 26.8538 0.860721 27.0241L0.93988 27.134C0.969986 27.1702 1.00526 27.202 1.04463 27.228C1.07802 27.2564 1.11575 27.2801 1.1562 27.2978C1.19885 27.3166 1.24266 27.3324 1.28753 27.3455C1.46802 27.387 1.65741 27.3621 1.82106 27.2754C1.97717 27.1848 2.09117 27.0362 2.13824 26.862C2.1853 26.6878 2.16161 26.502 2.07232 26.3451C2.02911 26.2657 1.97202 26.1946 1.90375 26.1352C1.83648 26.0741 1.75804 26.0266 1.67275 25.9952C1.49391 25.936 1.29915 25.9479 1.12888 26.0285C0.966181 26.1283 0.848307 26.2871 0.799853 26.4717Z" fill="#6E1F8C"></path><path d="M15.4039 41.9999C4.89753 41.9999 0.00390625 38.8862 0.00390625 32.1997C0.00390625 31.8134 0.317264 31.4999 0.70371 31.4999C0.795631 31.4999 0.886657 31.518 0.971589 31.5532C1.05652 31.5883 1.1337 31.6399 1.19871 31.7048C1.26372 31.7698 1.3153 31.847 1.3505 31.9319C1.38569 32.0168 1.40382 32.1078 1.40384 32.1997C1.40384 36.1106 2.99483 40.5999 15.4039 40.5999C29.9348 40.5999 31.5037 31.7884 31.5037 27.9998C31.5037 22.8479 28.7037 20.0044 25.9996 17.2548C23.7905 15.0101 21.7036 12.8899 21.7036 9.79986C21.6174 7.28904 22.0929 4.79065 23.0952 2.48698C17.386 5.63401 13.8866 11.6818 14.0039 18.1997C14.0039 18.78 14.0683 19.4305 14.1362 20.1178C14.3195 21.9721 14.5092 23.8887 13.4739 25.032C13.18 25.3312 12.8251 25.5636 12.4334 25.7133C12.0416 25.863 11.6222 25.9266 11.2036 25.8997C9.52037 25.8997 7.70388 24.294 7.70388 21.6998C7.70388 19.3373 9.91461 17.0994 10.0088 17.0049C10.1408 16.8773 10.3176 16.8067 10.5011 16.8082C10.6847 16.8097 10.8603 16.8832 10.9902 17.0128C11.1201 17.1425 11.1938 17.318 11.1955 17.5015C11.1973 17.685 11.1269 17.8619 10.9995 17.994C10.9807 18.0129 9.10382 19.9198 9.10382 21.6998C9.10382 23.4295 10.1937 24.4998 11.2036 24.4998C11.4263 24.5229 11.6514 24.4984 11.8639 24.4279C12.0764 24.3575 12.2715 24.2428 12.4363 24.0912C13.0554 23.4088 12.8895 21.7341 12.743 20.2566C12.6731 19.5641 12.603 18.8496 12.603 18.1997C12.6039 4.56244 24.8473 0.0834825 24.9707 0.0398422C25.1285 -0.0157664 25.3009 -0.0130873 25.4569 0.0473951C25.6128 0.107877 25.742 0.22217 25.821 0.369606C25.8999 0.517135 25.9234 0.68803 25.8872 0.851362C25.851 1.01469 25.7575 1.15967 25.6237 1.26005C25.6048 1.27481 23.1038 3.31369 23.1038 9.79994C23.1038 12.3198 24.9081 14.1504 26.997 16.2727C29.7662 19.0861 32.9036 22.2737 32.9036 27.9998C32.9036 40.9905 19.5092 41.9999 15.4038 41.9999H15.4039Z" fill="#6E1F8C"></path><path d="M15.4037 42.0003C13.7669 42.0003 5.60352 41.7298 5.60352 36.4C5.60352 31.9614 7.81425 29.6997 7.90875 29.6052C8.00669 29.5074 8.13142 29.4408 8.26718 29.4139C8.40294 29.3869 8.54364 29.4008 8.67151 29.4538C8.79937 29.5068 8.90867 29.5965 8.98558 29.7116C9.06249 29.8267 9.10356 29.9619 9.10362 30.1004C9.10362 32.469 10.2069 35.0001 13.3036 35.0001C14.0254 35.0479 14.7481 34.9239 15.4127 34.6382C16.0772 34.3525 16.6645 33.9133 17.1263 33.3566C19.7113 30.1365 18.2351 23.3199 18.2203 23.252C18.1904 23.1173 18.201 22.9769 18.2507 22.8482C18.3004 22.7196 18.387 22.6084 18.4996 22.5288C18.6122 22.4492 18.7459 22.4046 18.8837 22.4007C19.0216 22.3967 19.1576 22.4336 19.2746 22.5067C19.5168 22.6579 25.2035 26.2804 25.2035 32.2001C25.2035 38.1538 21.3571 42.0003 15.4037 42.0003ZM7.9382 32.0831C7.3037 33.4327 6.9841 34.9088 7.00354 36.4C7.00354 40.4827 14.544 40.6003 15.4037 40.6003C20.5835 40.6003 23.8036 37.3803 23.8036 32.2001C23.8036 28.7331 21.4403 26.094 19.8786 24.7299C20.1791 27.1799 20.3429 31.5842 18.2184 34.2323C17.6258 34.9529 16.8725 35.5244 16.0189 35.9009C15.1653 36.2774 14.2353 36.4483 13.3036 36.4C10.0964 36.4 8.49454 34.357 7.9382 32.0831Z" fill="#6E1F8C"></path></svg> 