<?xml version="1.0" encoding="UTF-8"?> <svg xmlns="http://www.w3.org/2000/svg" width="35" height="42" viewBox="0 0 35 42" fill="none"><path d="M33.5992 16.1003V38.5003C33.5992 39.243 33.3042 39.9551 32.7791 40.4802C32.254 41.0053 31.5418 41.3003 30.7992 41.3003H13.9992C13.2566 41.3003 12.5444 41.0053 12.0193 40.4802C11.4942 39.9551 11.1992 39.243 11.1992 38.5003V16.1003C11.2003 15.172 11.5676 14.2815 12.2212 13.6223L19.9212 5.92234C20.2287 5.61053 20.5951 5.36306 20.9992 5.19434V7.70034C20.998 7.86052 21.0265 8.01953 21.0832 8.16934C20.8379 8.36436 20.6399 8.61242 20.5041 8.89489C20.3683 9.17737 20.2983 9.48692 20.2992 9.80034C20.2992 10.3573 20.5205 10.8914 20.9143 11.2853C21.3081 11.6791 21.8423 11.9003 22.3992 11.9003C22.9562 11.9003 23.4903 11.6791 23.8841 11.2853C24.278 10.8914 24.4992 10.3573 24.4992 9.80034C24.5002 9.48692 24.4301 9.17737 24.2943 8.89489C24.1586 8.61242 23.9606 8.36436 23.7152 8.16934C23.7719 8.01953 23.8004 7.86052 23.7992 7.70034V5.19434C24.2033 5.36306 24.5698 5.61053 24.8772 5.92234L32.5772 13.6223C33.2309 14.2815 33.5981 15.172 33.5992 16.1003Z" fill="#6E1F8C" fill-opacity="0.1"></path><path d="M32.5768 13.6223L24.8768 5.92234C24.5694 5.61053 24.2029 5.36306 23.7988 5.19434V6.94434L30.4768 13.6223C31.1305 14.2815 31.4977 15.172 31.4988 16.1003V38.5003C31.4988 39.243 31.2038 39.9551 30.6787 40.4802C30.1536 41.0053 29.4414 41.3003 28.6988 41.3003H30.7988C31.5414 41.3003 32.2536 41.0053 32.7787 40.4802C33.3038 39.9551 33.5988 39.243 33.5988 38.5003V16.1003C33.5977 15.172 33.2305 14.2815 32.5768 13.6223Z" fill="#6E1F8C" fill-opacity="0.3"></path><path d="M20.9987 5.1377V5.1937C20.5946 5.36241 20.2282 5.60989 19.9207 5.9217L12.2207 13.6217C11.5671 14.2809 11.1998 15.1713 11.1987 16.0997V37.9187L2.42773 34.2787C2.088 34.1377 1.77938 33.9311 1.51951 33.6708C1.25964 33.4104 1.05362 33.1014 0.913202 32.7615C0.772788 32.4215 0.70074 32.0572 0.701174 31.6893C0.701608 31.3215 0.774515 30.9573 0.91573 30.6177L8.95873 11.2207C9.13477 10.7962 9.393 10.4107 9.71856 10.0863C10.0441 9.76197 10.4306 9.50517 10.8557 9.3307L20.9217 5.1657C20.9427 5.1587 20.9707 5.1447 20.9987 5.1377Z" fill="#6E1F8C" fill-opacity="0.3"></path><path d="M20.9207 5.1657L16.9209 6.8205L10.1197 13.6217C9.46599 14.2809 9.09875 15.1713 9.09766 16.0997V37.0472L11.1977 37.9187V16.0997C11.1987 15.1713 11.566 14.2809 12.2197 13.6217L19.9197 5.9217C20.2271 5.60989 20.5936 5.36241 20.9977 5.1937V5.1377C20.9697 5.1447 20.9417 5.1587 20.9207 5.1657Z" fill="white"></path><path d="M24.4988 9.79995C24.4988 10.3569 24.2776 10.891 23.8838 11.2849C23.4899 11.6787 22.9558 11.8999 22.3988 11.8999C21.8419 11.8999 21.3077 11.6787 20.9139 11.2849C20.5201 10.891 20.2988 10.3569 20.2988 9.79995C20.2979 9.48653 20.3679 9.17697 20.5037 8.8945C20.6395 8.61202 20.8375 8.36397 21.0828 8.16895C21.179 8.4411 21.3573 8.67673 21.5929 8.8434C21.8286 9.01006 22.1102 9.09956 22.3988 9.09956C22.6875 9.09956 22.9691 9.01006 23.2047 8.8434C23.4404 8.67673 23.6186 8.4411 23.7148 8.16895C23.9602 8.36397 24.1582 8.61202 24.294 8.8945C24.4297 9.17697 24.4998 9.48653 24.4988 9.79995Z" fill="white"></path><path d="M23.798 2.1002V7.7002C23.798 8.0715 23.6505 8.42759 23.388 8.69015C23.1254 8.9527 22.7694 9.1002 22.398 9.1002C22.0267 9.1002 21.6706 8.9527 21.4081 8.69015C21.1455 8.42759 20.998 8.0715 20.998 7.7002V2.1002C20.998 1.72889 21.1455 1.3728 21.4081 1.11025C21.6706 0.847695 22.0267 0.700195 22.398 0.700195C22.7694 0.700195 23.1254 0.847695 23.388 1.11025C23.6505 1.3728 23.798 1.72889 23.798 2.1002Z" fill="#6E1F8C" fill-opacity="0.1"></path><path d="M27.2961 25.1996C28.8425 25.1996 30.0961 23.946 30.0961 22.3996C30.0961 20.8532 28.8425 19.5996 27.2961 19.5996C25.7497 19.5996 24.4961 20.8532 24.4961 22.3996C24.4961 23.946 25.7497 25.1996 27.2961 25.1996Z" fill="#6E1F8C" fill-opacity="0.3"></path><path d="M17.4973 34.9994C19.0437 34.9994 20.2973 33.7458 20.2973 32.1994C20.2973 30.653 19.0437 29.3994 17.4973 29.3994C15.9509 29.3994 14.6973 30.653 14.6973 32.1994C14.6973 33.7458 15.9509 34.9994 17.4973 34.9994Z" fill="#6E1F8C" fill-opacity="0.3"></path><path d="M13.2992 38.5003V16.1003C13.3003 15.172 13.6676 14.2815 14.3212 13.6223L20.9992 6.94434V5.19434C20.5951 5.36306 20.2287 5.61053 19.9212 5.92234L12.2212 13.6223C11.5676 14.2815 11.2003 15.172 11.1992 16.1003V38.5003C11.1992 39.243 11.4942 39.9551 12.0193 40.4802C12.5444 41.0053 13.2566 41.3003 13.9992 41.3003H16.0992C15.3566 41.3003 14.6444 41.0053 14.1193 40.4802C13.5942 39.9551 13.2992 39.243 13.2992 38.5003Z" fill="white"></path><path d="M0.275391 30.3424L2.42019 25.168L3.71379 25.7042L1.56899 30.8786L0.275391 30.3424Z" fill="white"></path><path d="M2.00003 28.7311C1.90811 28.7315 1.817 28.7138 1.73191 28.679C1.64683 28.6442 1.56943 28.593 1.50413 28.5283C1.43884 28.4635 1.38693 28.3866 1.35137 28.3018C1.31581 28.2171 1.2973 28.1261 1.29688 28.0342C1.29647 27.9423 1.31416 27.8512 1.34896 27.7661C1.38376 27.681 1.43497 27.6036 1.49968 27.5383C1.63036 27.4064 1.80808 27.3319 1.99373 27.3311H2.00003C2.18568 27.3311 2.36373 27.4048 2.49501 27.5361C2.62628 27.6674 2.70003 27.8454 2.70003 28.0311C2.70003 28.2167 2.62628 28.3948 2.49501 28.526C2.36373 28.6573 2.18568 28.7311 2.00003 28.7311Z" fill="#6E1F8C"></path><path d="M0.266291 30.3492C-0.088502 31.2066 -0.0887735 32.1696 0.265536 33.0272C0.619846 33.8848 1.29981 34.5668 2.15629 34.9237L10.4982 38.3838V38.5C10.4993 39.4279 10.8684 40.3175 11.5245 40.9736C12.1807 41.6298 13.0703 41.9989 13.9982 42H30.7982C31.7261 41.9989 32.6157 41.6298 33.2718 40.9736C33.928 40.3175 34.2971 39.4279 34.2982 38.5V16.1C34.299 15.5481 34.191 15.0015 33.9805 14.4914C33.7699 13.9813 33.4609 13.5177 33.0711 13.1271L25.3711 5.4271C25.1108 5.17276 24.8171 4.95493 24.4982 4.7796V2.1C24.4982 1.54305 24.2769 1.0089 23.8831 0.615076C23.4893 0.221249 22.9551 0 22.3982 0C21.8412 0 21.3071 0.221249 20.9133 0.615076C20.5194 1.0089 20.2982 1.54305 20.2982 2.1V4.6669L10.5878 8.68C10.0774 8.88965 9.61372 9.19841 9.22346 9.58843C8.8332 9.97845 8.52415 10.442 8.31419 10.9522L2.41249 25.1769C2.37496 25.2622 2.35483 25.3541 2.35329 25.4473C2.35176 25.5405 2.36884 25.633 2.40354 25.7195C2.43824 25.806 2.48985 25.8847 2.55536 25.9509C2.62087 26.0172 2.69896 26.0697 2.78504 26.1054C2.87111 26.1411 2.96345 26.1593 3.05664 26.1588C3.14983 26.1584 3.24198 26.1393 3.32771 26.1028C3.41343 26.0662 3.49099 26.0129 3.55585 25.946C3.6207 25.8791 3.67154 25.7999 3.70539 25.7131L9.60709 11.4891L9.01979 11.2455L9.60779 11.4891C9.89364 10.8044 10.4383 10.2602 11.1233 9.975L17.5241 7.3283L11.7225 13.1299C10.9369 13.9186 10.4966 14.9868 10.4982 16.1V36.8683L2.69459 33.6301C2.18018 33.4168 1.77157 33.0078 1.55865 32.4932C1.34573 31.9786 1.34592 31.4005 1.55919 30.8861C1.59538 30.801 1.61437 30.7097 1.61505 30.6172C1.61574 30.5248 1.59811 30.4331 1.56319 30.3475C1.52826 30.262 1.47673 30.1841 1.41157 30.1186C1.34641 30.053 1.2689 30.001 1.18353 29.9656C1.09817 29.9301 1.00662 29.9119 0.914183 29.912C0.821746 29.9121 0.730248 29.9306 0.644969 29.9662C0.559691 30.0019 0.482321 30.0541 0.417327 30.1198C0.352332 30.1856 0.300999 30.2635 0.266291 30.3492ZM23.7982 9.8C23.8015 10.006 23.7593 10.2103 23.6745 10.3981C23.5898 10.5859 23.4646 10.7528 23.308 10.8866C23.1513 11.0205 22.967 11.1182 22.7683 11.1726C22.5696 11.2271 22.3612 11.237 22.1582 11.2016C21.9552 11.1663 21.7625 11.0866 21.5939 10.9681C21.4252 10.8497 21.2848 10.6955 21.1826 10.5166C21.0804 10.3376 21.019 10.1383 21.0027 9.93291C20.9865 9.72749 21.0158 9.521 21.0885 9.3282C21.4568 9.63313 21.92 9.79998 22.3982 9.79998C22.8764 9.79998 23.3396 9.63313 23.7079 9.3282C23.7652 9.47902 23.7957 9.63868 23.7982 9.8ZM21.6982 2.1C21.6982 1.91435 21.7719 1.7363 21.9032 1.60503C22.0345 1.47375 22.2125 1.4 22.3982 1.4C22.5838 1.4 22.7619 1.47375 22.8932 1.60503C23.0244 1.7363 23.0982 1.91435 23.0982 2.1V7.7C23.0982 7.88565 23.0244 8.0637 22.8932 8.19497C22.7619 8.32625 22.5838 8.4 22.3982 8.4C22.2125 8.4 22.0345 8.32625 21.9032 8.19497C21.7719 8.0637 21.6982 7.88565 21.6982 7.7V2.1ZM12.7151 14.1169L20.2982 6.5338V7.7C20.3017 7.7816 20.3099 7.86293 20.3227 7.9436C19.8583 8.45048 19.5999 9.11253 19.5982 9.8C19.5982 10.5426 19.8932 11.2548 20.4183 11.7799C20.9434 12.305 21.6556 12.6 22.3982 12.6C23.1408 12.6 23.853 12.305 24.3781 11.7799C24.9032 11.2548 25.1982 10.5426 25.1982 9.8C25.1965 9.11253 24.9381 8.45048 24.4737 7.9436C24.4865 7.86293 24.4947 7.7816 24.4982 7.7V6.5338L32.0785 14.1141C32.604 14.6413 32.8988 15.3556 32.8982 16.1V38.5C32.8982 39.057 32.6769 39.5911 32.2831 39.9849C31.8893 40.3787 31.3552 40.6 30.7982 40.6H13.9982C13.4412 40.6 12.9071 40.3787 12.5133 39.9849C12.1194 39.5911 11.8982 39.057 11.8982 38.5V16.1C11.8973 15.3569 12.1911 14.6438 12.7151 14.1169Z" fill="#6E1F8C"></path><path d="M29.6031 35.4953C29.7352 35.6228 29.912 35.6934 30.0955 35.6918C30.2791 35.6902 30.4546 35.6166 30.5844 35.4868C30.7142 35.357 30.7878 35.1814 30.7894 34.9979C30.791 34.8143 30.7205 34.6375 30.5929 34.5055L15.1929 19.1055C15.0609 18.978 14.8841 18.9074 14.7006 18.909C14.517 18.9106 14.3415 18.9842 14.2117 19.114C14.0819 19.2438 14.0083 19.4194 14.0067 19.6029C14.0051 19.7864 14.0756 19.9633 14.2031 20.0953L29.6031 35.4953ZM27.298 25.9004C27.9903 25.9004 28.667 25.6951 29.2425 25.3105C29.8181 24.926 30.2667 24.3793 30.5316 23.7398C30.7965 23.1002 30.8658 22.3965 30.7308 21.7176C30.5957 21.0386 30.2624 20.415 29.7729 19.9255C29.2834 19.436 28.6598 19.1027 27.9809 18.9676C27.3019 18.8326 26.5982 18.9019 25.9587 19.1668C25.3191 19.4317 24.7725 19.8803 24.3879 20.4559C24.0033 21.0315 23.798 21.7082 23.798 22.4004C23.7992 23.3283 24.1683 24.2179 24.8244 24.874C25.4805 25.5302 26.3701 25.8993 27.298 25.9004ZM27.298 20.3004C27.7134 20.3004 28.1194 20.4236 28.4647 20.6543C28.8101 20.8851 29.0792 21.213 29.2382 21.5968C29.3971 21.9805 29.4387 22.4027 29.3577 22.8101C29.2767 23.2174 29.0767 23.5916 28.783 23.8853C28.4893 24.179 28.1151 24.379 27.7077 24.46C27.3004 24.5411 26.8781 24.4995 26.4944 24.3405C26.1107 24.1816 25.7827 23.9124 25.552 23.5671C25.3212 23.2217 25.198 22.8157 25.198 22.4004C25.198 21.8434 25.4193 21.3093 25.8131 20.9155C26.207 20.5216 26.7411 20.3004 27.298 20.3004ZM17.498 35.7004C18.1903 35.7004 18.867 35.4951 19.4425 35.1105C20.0181 34.726 20.4667 34.1793 20.7316 33.5398C20.9965 32.9002 21.0658 32.1965 20.9308 31.5176C20.7957 30.8386 20.4624 30.215 19.9729 29.7255C19.4834 29.236 18.8598 28.9027 18.1809 28.7676C17.5019 28.6326 16.7982 28.7019 16.1587 28.9668C15.5191 29.2317 14.9725 29.6803 14.5879 30.2559C14.2033 30.8315 13.998 31.5082 13.998 32.2004C13.9992 33.1283 14.3683 34.0179 15.0244 34.674C15.6805 35.3302 16.5701 35.6993 17.498 35.7004ZM17.498 30.1004C17.9134 30.1004 18.3194 30.2236 18.6647 30.4543C19.0101 30.6851 19.2792 31.013 19.4382 31.3968C19.5971 31.7805 19.6387 32.2027 19.5577 32.6101C19.4767 33.0174 19.2767 33.3916 18.983 33.6853C18.6893 33.979 18.3151 34.179 17.9077 34.26C17.5004 34.3411 17.0781 34.2995 16.6944 34.1405C16.3107 33.9816 15.9827 33.7124 15.752 33.3671C15.5212 33.0217 15.398 32.6157 15.398 32.2004C15.398 31.6434 15.6193 31.1093 16.0131 30.7155C16.4069 30.3216 16.9411 30.1004 17.498 30.1004Z" fill="#6E1F8C"></path></svg> 