<?xml version="1.0" encoding="UTF-8"?> <svg xmlns="http://www.w3.org/2000/svg" width="44" height="44" viewBox="0 0 44 44" fill="none"><path d="M15.3939 17.06V18.013C15.3941 18.0564 15.3857 18.0994 15.3692 18.1395C15.3527 18.1796 15.3284 18.2161 15.2977 18.2468C15.2671 18.2775 15.2306 18.3017 15.1905 18.3182C15.1504 18.3347 15.1074 18.3431 15.064 18.3429H1.06231C1.01892 18.3431 0.975925 18.3347 0.935799 18.3182C0.895673 18.3017 0.859217 18.2775 0.828539 18.2468C0.797861 18.2161 0.773571 18.1796 0.757073 18.1395C0.740576 18.0994 0.732199 18.0564 0.732426 18.013V16.9941C0.733133 16.5141 0.862774 16.0432 1.10779 15.6305C1.35281 15.2179 1.70421 14.8786 2.12523 14.6482L5.09416 13.0281C5.28656 12.9251 5.44746 12.7718 5.55975 12.5847C5.67205 12.3975 5.73155 12.1834 5.73194 11.9652V11.0782C5.15775 10.3418 4.74557 9.49249 4.52237 8.58579C4.38353 8.49481 4.26936 8.37089 4.19006 8.22507C4.11075 8.07925 4.06876 7.91607 4.06784 7.75009V6.41587C4.06721 6.27612 4.0963 6.13784 4.15318 6.01019C4.21005 5.88254 4.2934 5.76843 4.39772 5.67544V3.74744C4.39772 3.74744 4.07514 1.32101 6.96349 0.829791C7.32735 0.77412 7.69501 0.747148 8.0631 0.749125C12.1243 0.749125 11.7285 3.74735 11.7285 3.74735V5.67535C11.8328 5.76835 11.9161 5.88245 11.973 6.0101C12.0299 6.13776 12.059 6.27604 12.0584 6.41578V7.75C12.0573 7.96208 11.9884 8.16825 11.8618 8.33839C11.7352 8.50853 11.5574 8.63372 11.3546 8.69566C11.1294 9.40734 10.7956 10.0799 10.365 10.6896C10.255 10.8436 10.1523 10.9755 10.0644 11.0782V11.9946C10.0634 12.2196 10.1253 12.4404 10.2432 12.6321C10.3611 12.8238 10.5302 12.9788 10.7314 13.0795L13.913 14.6702C14.3576 14.8915 14.7317 15.2324 14.9933 15.6546C15.2548 16.0767 15.3936 16.5634 15.3939 17.06ZM29.3222 41.9844V42.9374C29.3224 42.9807 29.314 43.0237 29.2975 43.0639C29.281 43.104 29.2567 43.1404 29.226 43.1711C29.1954 43.2018 29.1589 43.2261 29.1188 43.2426C29.0787 43.2591 29.0357 43.2675 28.9923 43.2672H14.9906C14.9472 43.2675 14.9042 43.2591 14.8641 43.2426C14.824 43.2261 14.7875 43.2018 14.7568 43.1711C14.7262 43.1404 14.7019 43.104 14.6854 43.0639C14.6689 43.0237 14.6605 42.9807 14.6607 42.9374V41.9184C14.6614 41.4385 14.7911 40.9676 15.0361 40.5549C15.2811 40.1422 15.6325 39.8029 16.0535 39.5726L19.0225 37.9525C19.2149 37.8494 19.3758 37.6962 19.4881 37.509C19.6003 37.3219 19.6599 37.1078 19.6602 36.8895V36.0025C19.0861 35.2662 18.6739 34.4168 18.4507 33.5101C18.3118 33.4192 18.1977 33.2952 18.1184 33.1494C18.039 33.0036 17.9971 32.8404 17.9961 32.6744V31.3402C17.9955 31.2005 18.0246 31.0622 18.0815 30.9345C18.1383 30.8069 18.2217 30.6928 18.326 30.5998V28.6718C18.326 28.6718 18.0034 26.2454 20.8918 25.7541C21.2556 25.6985 21.6233 25.6715 21.9914 25.6735C26.0526 25.6735 25.6568 28.6717 25.6568 28.6717V30.5997C25.7611 30.6927 25.8444 30.8068 25.9013 30.9345C25.9582 31.0621 25.9873 31.2004 25.9867 31.3401V32.6744C25.9856 32.8864 25.9167 33.0926 25.7901 33.2627C25.6635 33.4329 25.4857 33.5581 25.2829 33.62C25.0577 34.3317 24.7239 35.0043 24.2933 35.614C24.1833 35.7679 24.0806 35.8999 23.9927 36.0025V36.9189C23.9917 37.144 24.0536 37.3648 24.1715 37.5565C24.2894 37.7482 24.4585 37.9031 24.6597 38.0038L27.8413 39.5946C28.2859 39.8159 28.66 40.1568 28.9216 40.5789C29.1831 41.0011 29.3219 41.4878 29.3222 41.9844ZM43.2505 17.06V18.013C43.2507 18.0564 43.2423 18.0994 43.2258 18.1395C43.2093 18.1796 43.185 18.2161 43.1543 18.2468C43.1237 18.2775 43.0872 18.3017 43.0471 18.3182C43.007 18.3347 42.964 18.3431 42.9206 18.3429H28.919C28.8756 18.3431 28.8326 18.3347 28.7925 18.3182C28.7524 18.3017 28.7159 18.2775 28.6852 18.2468C28.6546 18.2161 28.6303 18.1796 28.6138 18.1395C28.5973 18.0994 28.5889 18.0564 28.5891 18.013V16.9941C28.5898 16.5141 28.7195 16.0432 28.9645 15.6305C29.2095 15.2179 29.5609 14.8786 29.9819 14.6482L32.9509 13.0281C33.1433 12.9251 33.3041 12.7718 33.4164 12.5847C33.5287 12.3975 33.5882 12.1834 33.5886 11.9652V11.0782C33.0144 10.3418 32.6023 9.49249 32.3791 8.58579C32.2402 8.49481 32.1261 8.37089 32.0467 8.22507C31.9674 8.07925 31.9254 7.91607 31.9245 7.75009V6.41587C31.9239 6.27612 31.953 6.13784 32.0099 6.01019C32.0667 5.88254 32.1501 5.76843 32.2544 5.67544V3.74744C32.2544 3.74744 31.9318 1.32101 34.8202 0.829791C35.184 0.77412 35.5517 0.747148 35.9198 0.749125C39.981 0.749125 39.5852 3.74735 39.5852 3.74735V5.67535C39.6895 5.76835 39.7728 5.88245 39.8297 6.0101C39.8866 6.13776 39.9157 6.27604 39.915 6.41578V7.75C39.914 7.96208 39.8451 8.16825 39.7185 8.33839C39.5918 8.50853 39.4141 8.63372 39.2113 8.69566C38.9861 9.40734 38.6523 10.0799 38.2217 10.6896C38.1117 10.8436 38.009 10.9755 37.9211 11.0782V11.9946C37.9201 12.2196 37.982 12.4404 38.0999 12.6321C38.2178 12.8238 38.3869 12.9788 38.5881 13.0795L41.7697 14.6702C42.2143 14.8915 42.5883 15.2324 42.8499 15.6546C43.1115 16.0767 43.2502 16.5634 43.2505 17.06Z" fill="#6E1F8C" fill-opacity="0.3"></path><path d="M13.1946 17.0594V18.0123C13.1949 18.0557 13.1865 18.0987 13.17 18.1388C13.1535 18.179 13.1292 18.2154 13.0985 18.2461C13.0679 18.2768 13.0314 18.3011 12.9913 18.3176C12.9511 18.3341 12.9081 18.3424 12.8648 18.3422H1.06231C1.01892 18.3424 0.975925 18.3341 0.935799 18.3176C0.895673 18.3011 0.859217 18.2768 0.828539 18.2461C0.797861 18.2154 0.773571 18.179 0.757073 18.1388C0.740576 18.0987 0.732199 18.0557 0.732426 18.0123V16.9934C0.733133 16.5134 0.862774 16.0425 1.10779 15.6298C1.35281 15.2172 1.70421 14.8779 2.12523 14.6475L5.09416 13.0274C5.28657 12.9244 5.44746 12.7711 5.55975 12.584C5.67205 12.3968 5.73155 12.1828 5.73194 11.9645V11.0775C5.15775 10.3411 4.74557 9.4918 4.52237 8.5851C4.38353 8.49412 4.26937 8.3702 4.19006 8.22438C4.11075 8.07857 4.06876 7.91539 4.06784 7.7494V6.41518C4.06721 6.27544 4.0963 6.13715 4.15318 6.0095C4.21005 5.88185 4.2934 5.76775 4.39772 5.67475V3.74675C4.39772 3.74675 4.07514 1.32032 6.96349 0.829102C9.85176 1.32023 9.52927 3.74675 9.52927 3.74675V5.67475C9.63358 5.76775 9.71694 5.88185 9.77381 6.0095C9.83068 6.13715 9.85977 6.27544 9.85915 6.41518V7.7494C9.85806 7.96148 9.78918 8.16765 9.66256 8.33779C9.53594 8.50793 9.35824 8.63312 9.1554 8.69506C8.93023 9.40674 8.59641 10.0793 8.16576 10.689C8.0558 10.843 7.95314 10.9749 7.86517 11.0776V11.994C7.86419 12.219 7.92613 12.4398 8.044 12.6315C8.16187 12.8232 8.33098 12.9782 8.53223 13.0789L11.7138 14.6696C12.1584 14.8909 12.5325 15.2318 12.7941 15.6539C13.0556 16.076 13.1944 16.5627 13.1946 17.0594ZM27.1229 41.9837V42.9367C27.1232 42.9801 27.1148 43.0231 27.0983 43.0632C27.0818 43.1033 27.0575 43.1398 27.0268 43.1704C26.9962 43.2011 26.9597 43.2254 26.9196 43.2419C26.8795 43.2584 26.8365 43.2668 26.7931 43.2666H14.9906C14.9472 43.2668 14.9042 43.2584 14.8641 43.2419C14.824 43.2254 14.7875 43.2011 14.7568 43.1704C14.7262 43.1398 14.7019 43.1033 14.6854 43.0632C14.6689 43.0231 14.6605 42.9801 14.6607 42.9367V41.9177C14.6614 41.4378 14.7911 40.9669 15.0361 40.5542C15.2811 40.1415 15.6325 39.8023 16.0535 39.5719L19.0225 37.9518C19.2149 37.8487 19.3758 37.6955 19.4881 37.5083C19.6004 37.3212 19.6599 37.1071 19.6602 36.8888V36.0019C19.0861 35.2655 18.6739 34.4162 18.4507 33.5094C18.3118 33.4185 18.1977 33.2946 18.1184 33.1487C18.039 33.0029 17.9971 32.8397 17.9961 32.6737V31.3395C17.9955 31.1998 18.0246 31.0615 18.0815 30.9339C18.1383 30.8062 18.2217 30.6921 18.326 30.5991V28.6711C18.326 28.6711 18.0034 26.2447 20.8918 25.7535C23.7801 26.2446 23.4576 28.6711 23.4576 28.6711V30.5991C23.5619 30.6921 23.6452 30.8062 23.7021 30.9339C23.759 31.0615 23.7881 31.1998 23.7875 31.3395V32.6737C23.7864 32.8858 23.7175 33.092 23.5909 33.2621C23.4642 33.4323 23.2865 33.5575 23.0837 33.6194C22.8585 34.3311 22.5247 35.0037 22.0941 35.6134C21.9841 35.7673 21.8814 35.8993 21.7935 36.0019V36.9183C21.7925 37.1434 21.8544 37.3642 21.9723 37.5559C22.0902 37.7476 22.2593 37.9025 22.4605 38.0032L25.6421 39.594C26.0867 39.8153 26.4608 40.1561 26.7224 40.5782C26.9839 41.0004 27.1227 41.4871 27.1229 41.9837ZM41.0513 17.0594V18.0123C41.0515 18.0557 41.0431 18.0987 41.0266 18.1388C41.0101 18.179 40.9858 18.2154 40.9551 18.2461C40.9245 18.2768 40.888 18.3011 40.8479 18.3176C40.8078 18.3341 40.7648 18.3424 40.7214 18.3422H28.919C28.8756 18.3424 28.8326 18.3341 28.7925 18.3176C28.7524 18.3011 28.7159 18.2768 28.6852 18.2461C28.6546 18.2154 28.6303 18.179 28.6138 18.1388C28.5973 18.0987 28.5889 18.0557 28.5891 18.0123V16.9934C28.5898 16.5134 28.7195 16.0425 28.9645 15.6298C29.2095 15.2172 29.5609 14.8779 29.9819 14.6475L32.9509 13.0274C33.1433 12.9244 33.3041 12.7711 33.4164 12.584C33.5287 12.3968 33.5882 12.1828 33.5886 11.9645V11.0775C33.0144 10.3411 32.6023 9.4918 32.3791 8.5851C32.2402 8.49412 32.1261 8.3702 32.0467 8.22438C31.9674 8.07857 31.9254 7.91539 31.9245 7.7494V6.41518C31.9239 6.27544 31.953 6.13715 32.0099 6.0095C32.0667 5.88185 32.1501 5.76775 32.2544 5.67475V3.74675C32.2544 3.74675 31.9318 1.32032 34.8202 0.829102C37.7085 1.32023 37.386 3.74675 37.386 3.74675V5.67475C37.4903 5.76775 37.5736 5.88185 37.6305 6.0095C37.6874 6.13715 37.7165 6.27544 37.7158 6.41518V7.7494C37.7147 7.96148 37.6459 8.16765 37.5193 8.33779C37.3926 8.50793 37.2149 8.63312 37.0121 8.69506C36.7869 9.40674 36.4531 10.0793 36.0224 10.689C35.9125 10.843 35.8098 10.9749 35.7219 11.0776V11.994C35.7209 12.219 35.7828 12.4398 35.9007 12.6315C36.0186 12.8232 36.1877 12.9782 36.3889 13.0789L39.5705 14.6696C40.0151 14.8909 40.3891 15.2318 40.6507 15.6539C40.9123 16.076 41.051 16.5627 41.0513 17.0594Z" fill="#6E1F8C" fill-opacity="0.1"></path><path d="M1.06222 18.3429H3.26143C3.21805 18.3431 3.17505 18.3347 3.13492 18.3182C3.0948 18.3017 3.05834 18.2775 3.02766 18.2468C2.99698 18.2161 2.97269 18.1796 2.9562 18.1395C2.9397 18.0994 2.93132 18.0564 2.93155 18.013V16.9941C2.93226 16.5141 3.0619 16.0432 3.30692 15.6305C3.55193 15.2179 3.90333 14.8786 4.32435 14.6482L7.29329 13.0281C7.48569 12.9251 7.64658 12.7718 7.75888 12.5847C7.87117 12.3975 7.93067 12.1834 7.93106 11.9652V11.0782C7.35688 10.3418 6.94469 9.49249 6.72149 8.58579C6.58265 8.49481 6.46849 8.37089 6.38918 8.22507C6.30987 8.07925 6.26788 7.91607 6.26696 7.75009V6.41587C6.26634 6.27612 6.29543 6.13784 6.3523 6.01019C6.40917 5.88254 6.49253 5.76844 6.59684 5.67544V3.74744C6.59684 3.74744 6.27942 1.34368 9.12739 0.837866C8.7757 0.778659 8.41966 0.748975 8.06301 0.749125C7.69493 0.747148 7.32726 0.77412 6.96341 0.829791C4.07514 1.32101 4.39772 3.74744 4.39772 3.74744V5.67544C4.2934 5.76844 4.21005 5.88254 4.15318 6.01019C4.0963 6.13784 4.06721 6.27612 4.06784 6.41587V7.75009C4.06876 7.91607 4.11075 8.07925 4.19006 8.22507C4.26936 8.37089 4.38353 8.49481 4.52237 8.58579C4.74553 9.4925 5.15772 10.3418 5.73194 11.0782V11.9652C5.73156 12.1834 5.67206 12.3975 5.55977 12.5847C5.44747 12.7718 5.28657 12.9251 5.09416 13.0281L2.12523 14.6482C1.70421 14.8786 1.35281 15.2179 1.10779 15.6305C0.862774 16.0432 0.733133 16.5141 0.732426 16.9941V18.013C0.732199 18.0564 0.740573 18.0994 0.757065 18.1395C0.773557 18.1796 0.79784 18.2161 0.828509 18.2467C0.859177 18.2774 0.895623 18.3017 0.935739 18.3182C0.975855 18.3347 1.01884 18.3431 1.06222 18.3429ZM30.7882 18.013V16.9941C30.7889 16.5141 30.9186 16.0432 31.1636 15.6305C31.4086 15.2179 31.76 14.8786 32.181 14.6482L35.15 13.0281C35.3424 12.9251 35.5033 12.7718 35.6156 12.5847C35.7279 12.3975 35.7874 12.1834 35.7877 11.9652V11.0782C35.2136 10.3418 34.8014 9.49249 34.5782 8.58579C34.4393 8.49481 34.3252 8.37089 34.2459 8.22507C34.1666 8.07925 34.1246 7.91607 34.1236 7.75009V6.41587C34.123 6.27612 34.1521 6.13784 34.209 6.01019C34.2659 5.88254 34.3492 5.76844 34.4535 5.67544V3.74744C34.4535 3.74744 34.1361 1.34368 36.9841 0.837866C36.6324 0.778659 36.2763 0.748975 35.9197 0.749125C35.5516 0.747148 35.1839 0.77412 34.8201 0.829791C31.9318 1.32092 32.2543 3.74744 32.2543 3.74744V5.67544C32.15 5.76844 32.0666 5.88254 32.0098 6.01019C31.9529 6.13784 31.9238 6.27612 31.9244 6.41587V7.75009C31.9254 7.91607 31.9673 8.07925 32.0467 8.22507C32.126 8.37089 32.2401 8.49481 32.379 8.58579C32.6021 9.4925 33.0143 10.3418 33.5885 11.0782V11.9652C33.5882 12.1834 33.5287 12.3975 33.4164 12.5847C33.3041 12.7718 33.1432 12.9251 32.9508 13.0281L29.9818 14.6482C29.5608 14.8786 29.2094 15.2179 28.9644 15.6305C28.7194 16.0432 28.5897 16.5141 28.589 16.9941V18.013C28.5888 18.0564 28.5972 18.0994 28.6137 18.1395C28.6302 18.1796 28.6545 18.2161 28.6851 18.2468C28.7158 18.2775 28.7523 18.3017 28.7924 18.3182C28.8325 18.3347 28.8755 18.3431 28.9189 18.3429H31.1181C31.0747 18.3431 31.0317 18.3347 30.9916 18.3182C30.9515 18.3017 30.915 18.2775 30.8843 18.2468C30.8537 18.2161 30.8294 18.1796 30.8129 18.1395C30.7964 18.0994 30.788 18.0564 30.7882 18.013ZM19.0225 37.9525L16.0535 39.5727C15.6325 39.803 15.2811 40.1423 15.0361 40.555C14.7911 40.9677 14.6614 41.4386 14.6607 41.9185V42.9374C14.6605 42.9808 14.6689 43.0238 14.6854 43.064C14.7019 43.1041 14.7262 43.1405 14.7568 43.1712C14.7875 43.2019 14.824 43.2262 14.8641 43.2427C14.9042 43.2592 14.9472 43.2676 14.9906 43.2673H17.1898C17.1464 43.2676 17.1034 43.2592 17.0633 43.2427C17.0232 43.2262 16.9867 43.2019 16.956 43.1712C16.9254 43.1405 16.9011 43.1041 16.8846 43.064C16.8681 43.0238 16.8597 42.9808 16.8599 42.9374V41.9185C16.8606 41.4386 16.9903 40.9677 17.2353 40.555C17.4803 40.1423 17.8317 39.803 18.2527 39.5727L21.2217 37.9525C21.4141 37.8495 21.575 37.6963 21.6873 37.5091C21.7996 37.322 21.8591 37.1079 21.8594 36.8896V36.0026C21.2853 35.2663 20.8731 34.4169 20.6499 33.5102C20.511 33.4193 20.3969 33.2953 20.3176 33.1495C20.2383 33.0037 20.1963 32.8405 20.1953 32.6745V31.3403C20.1947 31.2006 20.2238 31.0623 20.2807 30.9346C20.3376 30.807 20.4209 30.6929 20.5252 30.5999V28.6719C20.5252 28.6719 20.2078 26.2681 23.0558 25.7623C22.7041 25.7031 22.348 25.6734 21.9914 25.6736C21.6233 25.6716 21.2556 25.6986 20.8918 25.7542C18.0035 26.2454 18.326 28.6719 18.326 28.6719V30.5999C18.2217 30.6929 18.1383 30.807 18.0815 30.9346C18.0246 31.0623 17.9955 31.2006 17.9961 31.3403V32.6745C17.9971 32.8405 18.039 33.0037 18.1184 33.1495C18.1977 33.2953 18.3118 33.4193 18.4507 33.5102C18.6738 34.4169 19.086 35.2663 19.6602 36.0026V36.8896C19.6599 37.1079 19.6003 37.322 19.4881 37.5091C19.3758 37.6963 19.2149 37.8495 19.0225 37.9525Z" fill="white"></path><path d="M14.9961 42.5342H28.9904V44.0003H14.9961V42.5342Z" fill="white"></path><path d="M23.7912 42.5335C23.5968 42.5335 23.4103 42.6108 23.2729 42.7482C23.1354 42.8857 23.0582 43.0721 23.0582 43.2666C23.0582 43.461 23.1354 43.6474 23.2729 43.7849C23.4103 43.9224 23.5968 43.9996 23.7912 43.9996H28.9886C29.5773 43.9992 30.0545 43.5223 30.0553 42.9338V41.9859C30.0571 41.3532 29.8817 40.7327 29.5489 40.1947C29.2162 39.6566 28.7395 39.2225 28.1727 38.9414L24.989 37.3499C24.9091 37.31 24.8419 37.2486 24.795 37.1726C24.7481 37.0966 24.7234 37.0089 24.7236 36.9196V36.2657C24.7771 36.1968 24.8328 36.119 24.89 36.0406C25.2995 35.4594 25.6298 34.8263 25.8724 34.1581C26.1318 34.0065 26.3469 33.7895 26.4963 33.5287C26.6456 33.268 26.724 32.9726 26.7234 32.6721V31.3379C26.7223 30.973 26.6055 30.6178 26.3899 30.3234V28.7106C26.4556 27.8197 26.1698 26.9384 25.5938 26.2556C25.1245 25.7884 24.5593 25.4288 23.9373 25.2016C23.3153 24.9744 22.6514 24.885 21.9915 24.9398C21.3317 24.8845 20.6679 24.9733 20.0459 25.2C19.4239 25.4267 18.8586 25.7859 18.3891 26.2527C17.813 26.9352 17.5272 27.8163 17.593 28.707V30.3197C17.3774 30.6142 17.2606 30.9694 17.2595 31.3343V32.6671C17.2593 32.9026 17.3075 33.1356 17.4011 33.3517C17.4946 33.5679 17.6316 33.7625 17.8034 33.9235C18.0407 34.7566 18.4204 35.5424 18.9258 36.2459V36.8837C18.9259 36.9701 18.9027 37.055 18.8586 37.1293C18.8145 37.2037 18.7511 37.2647 18.6751 37.3059L15.7025 38.9275C15.1647 39.2206 14.716 39.6533 14.4037 40.1801C14.0913 40.7069 13.9269 41.3082 13.9277 41.9207V42.9338C13.9285 43.5224 14.4057 43.9993 14.9944 43.9996H17.9266C18.121 43.9996 18.3075 43.9224 18.4449 43.7849C18.5824 43.6474 18.6596 43.461 18.6596 43.2666C18.6596 43.0721 18.5824 42.8857 18.4449 42.7482C18.3075 42.6108 18.121 42.5335 17.9266 42.5335H15.3938V41.9207C15.3936 41.5722 15.4874 41.2302 15.6653 40.9307C15.8432 40.6311 16.0987 40.3851 16.4047 40.2185L19.3773 38.5969C19.6843 38.4297 19.9406 38.1828 20.1192 37.8822C20.2977 37.5816 20.3919 37.2385 20.3919 36.8889V36.0026C20.3913 35.8313 20.3315 35.6655 20.2225 35.5334C19.7241 34.8844 19.3653 34.1394 19.1684 33.3452C19.1256 33.1588 19.0117 32.9965 18.851 32.8929C18.8134 32.8696 18.7823 32.8373 18.7604 32.7988C18.7385 32.7604 18.7266 32.7172 18.7256 32.673V31.3381C18.7266 31.301 18.7352 31.2645 18.751 31.2309C18.7667 31.1974 18.7893 31.1675 18.8173 31.1431C18.8934 31.0744 18.9543 30.9905 18.9959 30.8968C19.0376 30.8031 19.0592 30.7017 19.0592 30.5991V28.6719C19.0592 28.6398 19.0571 28.6077 19.0526 28.5758C19.0186 28.0837 19.1762 27.5975 19.4924 27.2189C19.8283 26.9151 20.2245 26.6856 20.6551 26.5455C21.0858 26.4054 21.5411 26.3579 21.9915 26.4059C22.439 26.3589 22.8915 26.4058 23.3199 26.5436C23.7483 26.6815 24.1433 26.9072 24.4795 27.2064C24.7999 27.5881 24.9613 28.0784 24.9303 28.5758C24.9259 28.6075 24.9237 28.6397 24.9237 28.6718V30.599C24.9237 30.7016 24.9453 30.803 24.987 30.8967C25.0286 30.9904 25.0895 31.0743 25.1656 31.143C25.1936 31.1674 25.2162 31.1973 25.2319 31.2309C25.2477 31.2644 25.2563 31.3009 25.2573 31.338V32.6708C25.2557 32.7275 25.2362 32.7824 25.2016 32.8274C25.167 32.8724 25.119 32.9053 25.0645 32.9214C24.9521 32.9562 24.8497 33.0175 24.766 33.1002C24.6823 33.1829 24.6198 33.2845 24.5836 33.3965C24.3803 34.037 24.08 34.6425 23.6929 35.1918C23.6145 35.3047 23.5303 35.4136 23.4408 35.518C23.3228 35.6518 23.2576 35.8241 23.2575 36.0026V36.9181C23.2566 37.2804 23.3573 37.6357 23.5482 37.9436C23.7391 38.2515 24.0125 38.4996 24.3374 38.6599L27.5204 40.2514C27.8426 40.412 28.1135 40.6595 28.3024 40.9661C28.4913 41.2726 28.5907 41.6258 28.5893 41.9859V42.5334L23.7912 42.5335Z" fill="#6E1F8C"></path><path d="M20.3389 42.7466L20.2502 42.8565C20.2224 42.8974 20.2002 42.9418 20.1842 42.9885C20.1629 43.0299 20.1483 43.0745 20.141 43.1205C20.1325 43.1689 20.1276 43.2179 20.1263 43.2671C20.1288 43.4613 20.2048 43.6472 20.3389 43.7876C20.4794 43.9206 20.6656 43.9947 20.859 43.9947C21.0525 43.9947 21.2386 43.9206 21.3792 43.7876C21.4454 43.7175 21.4977 43.6354 21.5331 43.5457C21.5709 43.4576 21.5911 43.3629 21.5925 43.2671C21.5933 43.1215 21.5507 42.979 21.4702 42.8576C21.3898 42.7363 21.275 42.6417 21.1405 42.5859C21.006 42.53 20.858 42.5155 20.7152 42.5441C20.5725 42.5727 20.4415 42.6432 20.3389 42.7466ZM1.06653 19.0757H8.15306C8.09651 19.5624 8.06666 20.0519 8.06363 20.5419C8.06148 21.3456 8.13364 22.1478 8.27917 22.9382C8.8348 26.1131 10.4783 28.9955 12.9276 31.0907L12.5815 31.1259C12.389 31.1383 12.2091 31.2259 12.0807 31.3698C11.9523 31.5138 11.8857 31.7025 11.8954 31.8951C11.905 32.0878 11.9901 32.2689 12.1322 32.3993C12.2743 32.5297 12.4621 32.599 12.6548 32.5921H12.7281L14.9155 32.3655C14.9629 32.356 15.009 32.3415 15.0533 32.3223C15.0851 32.3148 15.1162 32.3051 15.1465 32.293C15.2249 32.2464 15.2986 32.1921 15.3664 32.131C15.4087 32.0829 15.4444 32.0294 15.4726 31.9719C15.4877 31.9484 15.5012 31.9239 15.5129 31.8986C15.5348 31.8363 15.5479 31.7711 15.5518 31.7051C15.5518 31.6809 15.5657 31.6596 15.5657 31.6318C15.5657 31.6208 15.562 31.6113 15.5613 31.6003C15.5605 31.5893 15.5671 31.5746 15.5657 31.56L15.3391 29.3726C15.3286 29.2425 15.2835 29.1176 15.2086 29.0108C15.1336 28.904 15.0315 28.8191 14.9128 28.765C14.7941 28.7108 14.6631 28.6893 14.5333 28.7027C14.4035 28.7161 14.2796 28.7639 14.1745 28.8412C14.0694 28.9185 13.9868 29.0224 13.9352 29.1422C13.8836 29.262 13.8649 29.3934 13.8811 29.5229L13.9346 30.0412C11.7082 28.1602 10.2143 25.5562 9.71432 22.6848C9.58546 21.978 9.52361 21.2605 9.52962 20.542C9.53332 20.0518 9.56691 19.5621 9.63005 19.0759H15.0606C15.6493 19.0754 16.1265 18.5986 16.1273 18.01V17.0621C16.1291 16.4295 15.9537 15.809 15.6209 15.2709C15.2882 14.7329 14.8115 14.2987 14.2447 14.0177L11.061 12.4262C10.9811 12.3863 10.9139 12.3249 10.867 12.2489C10.8201 12.1728 10.7954 12.0852 10.7956 11.9959V11.342C10.8492 11.2731 10.9048 11.1953 10.962 11.1169C11.3715 10.5357 11.7018 9.90261 11.9444 9.23432C12.2038 9.08272 12.419 8.86572 12.5683 8.60498C12.7176 8.34424 12.796 8.04888 12.7955 7.74839V6.41418C12.7943 6.04923 12.6775 5.69404 12.4619 5.39962V3.78681C12.5286 2.89462 12.2427 2.01186 11.6658 1.32807C11.1962 0.861537 10.6309 0.502576 10.0089 0.276021C9.387 0.0494655 8.72325 -0.039276 8.06363 0.0159349C7.40392 -0.0393109 6.74009 0.0494892 6.1181 0.276186C5.49611 0.502883 4.93083 0.86206 4.46139 1.32885C3.88528 2.01138 3.59949 2.89245 3.66529 3.7832V5.39962C3.44968 5.69406 3.3329 6.04924 3.33172 6.41418V7.74693C3.33156 7.98244 3.37976 8.21548 3.47333 8.43161C3.56689 8.64774 3.70384 8.84235 3.87568 9.0034C4.11295 9.83652 4.49268 10.6223 4.99805 11.3258V11.9636C4.99821 12.05 4.975 12.1349 4.93087 12.2092C4.88674 12.2835 4.82334 12.3446 4.74737 12.3858L1.77475 14.0074C1.23755 14.3002 0.789211 14.7323 0.476894 15.2584C0.164578 15.7845 -0.000165298 16.385 1.24456e-07 16.9968V18.0099C0.000687378 18.5985 0.477899 19.0754 1.06653 19.0757ZM1.466 16.9968C1.4658 16.6483 1.5596 16.3063 1.7375 16.0068C1.91541 15.7072 2.17084 15.4612 2.47686 15.2946L5.44949 13.673C5.75652 13.5058 6.01279 13.2589 6.19133 12.9583C6.36988 12.6577 6.46408 12.3146 6.46405 11.9649V11.0787C6.46351 10.9074 6.40368 10.7416 6.29472 10.6095C5.79632 9.96053 5.43743 9.21554 5.24056 8.4213C5.19779 8.23491 5.08388 8.0726 4.92314 7.969C4.88559 7.94568 4.85446 7.91335 4.83257 7.87494C4.81068 7.83654 4.79873 7.79327 4.7978 7.74908V6.41418C4.79873 6.37709 4.80736 6.34061 4.82314 6.30704C4.83892 6.27347 4.86151 6.24355 4.88946 6.21917C4.96559 6.15046 5.02645 6.06655 5.06812 5.97285C5.10979 5.87915 5.13134 5.77775 5.13138 5.67521V3.74798C5.13138 3.71585 5.12923 3.68381 5.12476 3.65193C5.09075 3.15982 5.24836 2.67362 5.5646 2.29504C5.90042 1.99121 6.29663 1.76174 6.72728 1.62164C7.15794 1.48155 7.61332 1.434 8.06363 1.4821C8.51121 1.43508 8.96368 1.48199 9.3921 1.61982C9.82052 1.75766 10.2155 1.98339 10.5517 2.28258C10.8721 2.66426 11.0335 3.15454 11.0025 3.65193C10.9981 3.68372 10.9959 3.71585 10.9959 3.74798V5.67521C10.9959 5.77775 11.0175 5.87915 11.0591 5.97284C11.1008 6.06654 11.1617 6.15046 11.2378 6.21917C11.2657 6.24355 11.2883 6.27347 11.3041 6.30704C11.3199 6.34061 11.3285 6.37709 11.3295 6.41418V7.74693C11.3279 7.80372 11.3084 7.85855 11.2738 7.90358C11.2392 7.94861 11.1912 7.98152 11.1367 7.99761C11.0243 8.0324 10.9219 8.09373 10.8382 8.17641C10.7545 8.2591 10.6919 8.36071 10.6558 8.47267C10.4525 9.11316 10.1521 9.71864 9.76509 10.2679C9.68667 10.3809 9.60252 10.4898 9.51296 10.5941C9.39493 10.728 9.32978 10.9003 9.32972 11.0787V11.9943C9.32879 12.3566 9.42949 12.7119 9.62037 13.0197C9.81126 13.3276 10.0847 13.5758 10.4096 13.7361L13.5926 15.3276C13.9148 15.4882 14.1857 15.7357 14.3746 16.0422C14.5635 16.3488 14.6628 16.702 14.6614 17.062V17.6096H1.46617L1.466 16.9968ZM42.1016 14.0175L38.9186 12.4245C38.8385 12.3848 38.7712 12.3234 38.7243 12.2474C38.6774 12.1713 38.6528 12.0836 38.6532 11.9942V11.3396C38.7067 11.2714 38.7617 11.193 38.8181 11.1153C39.2284 10.5345 39.559 9.90136 39.8012 9.23277C40.0605 9.08114 40.2755 8.86411 40.4248 8.60336C40.574 8.34261 40.6522 8.04727 40.6515 7.74685V6.41418C40.6507 6.04931 40.5341 5.69412 40.3187 5.39962V3.78681C40.3851 2.89453 40.099 2.01181 39.5219 1.32807C39.0524 0.861575 38.4872 0.502633 37.8653 0.276077C37.2435 0.0495217 36.5799 -0.0392391 35.9203 0.0159349C35.2606 -0.0392945 34.5968 0.0495128 33.9748 0.276209C33.3528 0.502904 32.7875 0.862072 32.318 1.32885C31.7419 2.01138 31.4561 2.89245 31.5219 3.7832V5.39962C31.3063 5.69406 31.1895 6.04924 31.1883 6.41418V7.74693C31.1882 7.98244 31.2364 8.21548 31.3299 8.43161C31.4235 8.64774 31.5604 8.84235 31.7323 9.0034C31.9696 9.83652 32.3493 10.6223 32.8547 11.3258V11.9636C32.8548 12.05 32.8316 12.1349 32.7875 12.2092C32.7433 12.2835 32.6799 12.3446 32.604 12.3858L29.6314 14.0074C29.0942 14.3002 28.6458 14.7323 28.3335 15.2584C28.0212 15.7845 27.8564 16.385 27.8566 16.9968V18.0099C27.8574 18.5986 28.3346 19.0754 28.9232 19.0758H34.3538C34.417 19.562 34.4505 20.0516 34.4542 20.542C34.4566 21.2649 34.3913 21.9864 34.2592 22.6972C33.7539 25.5567 32.2653 28.1497 30.0507 30.0278L30.1042 29.5147C30.1187 29.3242 30.0582 29.1356 29.9357 28.989C29.8132 28.8424 29.6384 28.7495 29.4483 28.7299C29.2583 28.7103 29.0681 28.7656 28.9183 28.8842C28.7685 29.0027 28.6708 29.175 28.6462 29.3645L28.4196 31.5519C28.4196 31.5637 28.4233 31.5739 28.4196 31.5857C28.4159 31.5975 28.4145 31.6106 28.4145 31.6238C28.4184 31.6523 28.4243 31.6804 28.4321 31.7081C28.4362 31.7686 28.4482 31.8282 28.468 31.8855C28.4805 31.9124 28.4945 31.9386 28.5098 31.9639C28.539 32.0224 28.5759 32.0767 28.6197 32.1252C28.6366 32.1428 28.6571 32.1559 28.6755 32.1721C28.7268 32.2186 28.7846 32.2573 28.847 32.2872C28.8719 32.2982 28.8983 32.3026 28.9248 32.3114C28.9718 32.3319 29.021 32.3472 29.0714 32.3569L31.2589 32.5834H31.3321C31.4284 32.5882 31.5247 32.574 31.6155 32.5416C31.7062 32.5092 31.7898 32.4593 31.8612 32.3946C31.9327 32.3299 31.9907 32.2518 32.032 32.1647C32.0733 32.0776 32.097 31.9832 32.1019 31.887C32.1067 31.7907 32.0925 31.6944 32.0601 31.6036C32.0277 31.5128 31.9777 31.4293 31.913 31.3579C31.8484 31.2864 31.7703 31.2283 31.6832 31.1871C31.5961 31.1458 31.5017 31.122 31.4054 31.1172L31.055 31.0813C33.4945 28.992 35.1358 26.123 35.7005 22.9611C35.8484 22.1632 35.922 21.3534 35.9204 20.542C35.9174 20.052 35.8875 19.5625 35.831 19.0758H42.9183C43.5067 19.0754 43.9838 18.5984 43.9841 18.0099V17.062C43.9859 16.4294 43.8105 15.8089 43.4778 15.2708C43.1451 14.7328 42.6683 14.2986 42.1016 14.0175ZM42.518 17.6096H29.3227V16.9968C29.3225 16.6483 29.4163 16.3063 29.5942 16.0068C29.7721 15.7072 30.0275 15.4612 30.3336 15.2946L33.3062 13.673C33.6132 13.5058 33.8695 13.2589 34.048 12.9583C34.2266 12.6577 34.3208 12.3146 34.3207 11.9649V11.0787C34.3202 10.9074 34.2604 10.7416 34.1514 10.6095C33.653 9.96053 33.2941 9.21554 33.0973 8.4213C33.0545 8.23491 32.9406 8.0726 32.7798 7.969C32.7423 7.94568 32.7112 7.91335 32.6893 7.87494C32.6674 7.83654 32.6554 7.79327 32.6545 7.74908V6.41418C32.6554 6.37709 32.6641 6.34061 32.6798 6.30704C32.6956 6.27347 32.7182 6.24355 32.7462 6.21917C32.8223 6.15046 32.8831 6.06655 32.9248 5.97285C32.9665 5.87915 32.988 5.77775 32.9881 5.67521V3.74798C32.9881 3.71585 32.9859 3.68381 32.9815 3.65193C32.9474 3.15982 33.105 2.67362 33.4213 2.29504C33.7571 1.99126 34.1534 1.76182 34.584 1.62173C35.0146 1.48164 35.47 1.43406 35.9203 1.4821C36.3678 1.43516 36.8202 1.48204 37.2486 1.61975C37.677 1.75746 38.072 1.98297 38.4083 2.28189C38.7287 2.6639 38.8901 3.1544 38.8592 3.65202C38.8548 3.68381 38.8526 3.71593 38.8526 3.74806V5.67529C38.8526 5.77765 38.8741 5.87886 38.9156 5.97242C38.9572 6.06597 39.0178 6.14979 39.0937 6.21848C39.1217 6.24297 39.1443 6.27301 39.1601 6.3067C39.1759 6.34039 39.1845 6.37699 39.1854 6.41418V7.74693C39.1838 7.80361 39.1644 7.85834 39.1299 7.90334C39.0954 7.94835 39.0476 7.98133 38.9933 7.99761C38.8807 8.03236 38.7781 8.09374 38.6943 8.17656C38.6105 8.25938 38.5478 8.36119 38.5117 8.47336C38.3086 9.11415 38.0082 9.7199 37.621 10.2694C37.5419 10.3823 37.4575 10.4914 37.3681 10.5964C37.2514 10.7299 37.187 10.9013 37.187 11.0787V11.9943C37.186 12.3565 37.2866 12.7117 37.4774 13.0196C37.6681 13.3275 37.9414 13.5757 38.2661 13.7361L41.4491 15.3276C41.7713 15.4882 42.0422 15.7357 42.2311 16.0422C42.42 16.3488 42.5194 16.702 42.518 17.062V17.6096Z" fill="#6E1F8C"></path><path d="M15.5413 6.75958C15.4492 6.73155 15.3525 6.72193 15.2566 6.7313C15.1608 6.74066 15.0677 6.76882 14.9828 6.81415C14.8978 6.85949 14.8226 6.92112 14.7615 6.99553C14.7004 7.06993 14.6545 7.15565 14.6265 7.24779L13.9873 9.35173V9.36049C13.9666 9.42724 13.9558 9.49663 13.9551 9.5665C13.9551 9.58041 13.9617 9.59141 13.9624 9.60464C13.9675 9.64785 13.9763 9.69055 13.9888 9.73221C13.998 9.7841 14.0132 9.83478 14.0342 9.88323C14.0342 9.892 14.0342 9.90231 14.0423 9.91038C14.0599 9.93633 14.0795 9.96081 14.1009 9.98366C14.1509 10.0702 14.2257 10.1396 14.3157 10.183C14.3539 10.2089 14.3947 10.2308 14.4374 10.2483C14.4514 10.2534 14.4617 10.2644 14.4763 10.2688L16.5802 10.908C16.6494 10.9291 16.7213 10.9398 16.7935 10.9395C16.9693 10.9395 17.1392 10.8763 17.2723 10.7615C17.4054 10.6466 17.4928 10.4878 17.5185 10.3139C17.5443 10.1401 17.5067 9.96271 17.4126 9.81422C17.3186 9.66573 17.1743 9.55598 17.0061 9.50499L16.5185 9.35835C18.2239 8.51815 20.0997 8.08149 22.0009 8.08213C23.902 8.08277 25.7775 8.52069 27.4824 9.36204L27.0058 9.50868C26.9137 9.53664 26.828 9.58248 26.7536 9.64356C26.6792 9.70465 26.6175 9.77979 26.5722 9.86471C26.4805 10.0362 26.4608 10.2371 26.5173 10.4231C26.5737 10.6092 26.7018 10.7652 26.8733 10.8568C27.0448 10.9484 27.2456 10.9682 27.4317 10.9117L29.5363 10.2725C29.5481 10.2725 29.5568 10.26 29.5685 10.2556C29.6112 10.238 29.6519 10.2161 29.6903 10.1904C29.7684 10.1547 29.8346 10.0971 29.8809 10.0247C29.9144 9.99199 29.9441 9.95557 29.9696 9.91622C29.9777 9.90231 29.9769 9.88547 29.9835 9.87147C29.9908 9.85154 29.9969 9.83126 30.0018 9.81064C30.029 9.73831 30.0443 9.66203 30.0473 9.58488V9.57242C30.0453 9.53569 30.0404 9.49918 30.0326 9.46324C30.0317 9.42784 30.0283 9.39256 30.0224 9.35766L29.3824 7.25372C29.3558 7.15991 29.3109 7.07233 29.2501 6.99611C29.1893 6.91989 29.114 6.85656 29.0284 6.80982C28.9428 6.76309 28.8488 6.73389 28.7519 6.72393C28.6549 6.71397 28.5569 6.72346 28.4636 6.75183C28.3704 6.7802 28.2837 6.82689 28.2087 6.88917C28.1337 6.95145 28.0719 7.02806 28.0268 7.11452C27.9818 7.20098 27.9545 7.29556 27.9464 7.39271C27.9384 7.48986 27.9498 7.58764 27.98 7.68033L28.0856 8.02782C26.1927 7.10229 24.1139 6.62021 22.0069 6.61817C19.8999 6.61613 17.8201 7.09419 15.9254 8.01605L16.0273 7.68033C16.0563 7.58798 16.0667 7.4908 16.0579 7.3944C16.0491 7.298 16.0214 7.2043 15.9762 7.1187C15.931 7.03309 15.8693 6.95728 15.7947 6.89565C15.72 6.83401 15.6339 6.78777 15.5413 6.75958Z" fill="#6E1F8C"></path></svg> 