<?xml version="1.0" encoding="UTF-8"?> <svg xmlns="http://www.w3.org/2000/svg" width="52" height="52" viewBox="0 0 52 34" fill="none"><path d="M17.9043 33.1495L27.9751 26.4355L17.9043 33.1495Z" fill="#6E1F8C"></path><path d="M21.3043 22.1006L17.9043 33.1505L27.9751 26.4364L21.3043 22.1006Z" fill="white"></path><path d="M21.3035 22.1004L17.9578 33.1504L15.3535 18.7004L50.2033 0.850586L21.3035 22.1004Z" fill="white"></path><path d="M49.39 2.40719C49.2407 2.41205 49.093 2.37594 48.9628 2.30278C48.8326 2.22962 48.7249 2.12221 48.6514 1.99219L21.3047 22.1L38.3046 33.15L49.6504 2.35432C49.5667 2.3848 49.4789 2.40262 49.39 2.40719Z" fill="white"></path><path d="M45.1045 4.24946L21.3047 22.0993L36.6046 31.4493L46.8045 3.39941L45.1045 4.24946Z" fill="#6E1F8C" fill-opacity="0.1"></path><path d="M47.4349 1.42188L0.849609 11.0497L15.3535 18.6997L48.0675 1.94361C47.9256 1.9198 47.7924 1.85905 47.6813 1.76747C47.5703 1.67589 47.4853 1.5567 47.4349 1.42188Z" fill="white"></path><path d="M45.1028 3.39941L3.45312 12.7494L15.353 18.6993L45.7354 3.92115C45.5934 3.89734 45.4603 3.83659 45.3492 3.74501C45.2382 3.65343 45.1532 3.53424 45.1028 3.39941Z" fill="#6E1F8C" fill-opacity="0.1"></path><path d="M38.3038 33.9998C38.1394 33.9999 37.9785 33.9523 37.8406 33.8629L20.8407 22.8129C20.7254 22.7381 20.6299 22.6364 20.5625 22.5165C20.4951 22.3966 20.4578 22.2622 20.4538 22.1247C20.4498 21.9873 20.4792 21.8509 20.5395 21.7273C20.5998 21.6037 20.6892 21.4966 20.8 21.4151L41.194 6.41985L15.7415 19.4562C15.6201 19.5185 15.4853 19.5507 15.3488 19.55C15.2123 19.5492 15.0779 19.5157 14.9571 19.452L0.453278 11.802C0.298424 11.7202 0.172591 11.5926 0.092971 11.4367C0.0133515 11.2807 -0.0161704 11.104 0.00843902 10.9306C0.0330484 10.7572 0.110589 10.5957 0.230465 10.468C0.350342 10.3404 0.506707 10.2529 0.678196 10.2174L50.0161 0.0207704C50.1822 -0.0166261 50.3558 -0.00331139 50.5143 0.0589927C50.6728 0.121297 50.8089 0.229724 50.9051 0.37025C50.923 0.395668 50.9391 0.422301 50.9532 0.449948C51.0327 0.597818 51.0662 0.766054 51.0495 0.933102C51.0455 0.977154 51.0377 1.0207 51.0262 1.06343C51.0185 1.09382 51.0091 1.12379 50.998 1.15306L39.1015 33.4436C39.0416 33.6069 38.9329 33.7478 38.7902 33.8473C38.6475 33.9467 38.4777 34 38.3038 33.9998ZM22.7972 22.0568L37.8746 31.8567L48.4282 3.21084L22.7972 22.0568ZM3.34116 11.4027L15.3597 17.7419L44.2372 2.95098L3.34116 11.4027Z" fill="#6E1F8C"></path><path d="M17.9051 33.9988C17.7227 33.9989 17.5451 33.9403 17.3985 33.8316C17.2519 33.7229 17.1442 33.57 17.0913 33.3954C17.0383 33.2208 17.0429 33.0339 17.1044 32.8621C17.1659 32.6903 17.2811 32.5429 17.4328 32.4416L27.5033 25.728C27.5961 25.6644 27.7007 25.6198 27.8108 25.5969C27.921 25.574 28.0347 25.5732 28.1452 25.5946C28.2557 25.6159 28.3609 25.659 28.4546 25.7213C28.5483 25.7836 28.6287 25.864 28.6911 25.9576C28.7536 26.0513 28.7968 26.1564 28.8183 26.2668C28.8398 26.3773 28.8391 26.491 28.8163 26.6012C28.7935 26.7114 28.7491 26.816 28.6856 26.9089C28.6221 27.0018 28.5407 27.0812 28.4463 27.1424L18.3758 33.856C18.2364 33.949 18.0727 33.9987 17.9051 33.9988Z" fill="#6E1F8C"></path><path d="M17.9581 34.0001C17.9423 34.0001 17.9257 33.9992 17.9091 33.9983C17.7186 33.9874 17.5373 33.9127 17.3944 33.7863C17.2515 33.6598 17.1553 33.4889 17.1213 33.3011L14.5174 18.8511C14.485 18.6717 14.5112 18.4867 14.5921 18.3233C14.673 18.16 14.8043 18.0269 14.9665 17.9439L49.8163 0.0940272C50.0063 -0.00306487 50.226 -0.0251047 50.4315 0.0322856C50.6371 0.0896758 50.8136 0.222297 50.9259 0.4038C51.0382 0.585303 51.0781 0.802405 51.0376 1.01197C50.9972 1.22154 50.8795 1.40824 50.7077 1.53498L22.0354 22.6172L18.7716 33.3965C18.7188 33.5711 18.6112 33.7241 18.4647 33.8328C18.3182 33.9415 18.1405 34.0001 17.9581 34.0001ZM16.3021 19.1691L18.168 29.5235L20.4906 21.8537C20.5437 21.6779 20.6523 21.5242 20.8002 21.4154L41.1942 6.42009L16.3021 19.1691Z" fill="#6E1F8C"></path><path d="M17.9049 33.9993C17.7719 33.9993 17.6407 33.9681 17.5219 33.9082C17.4032 33.8483 17.3001 33.7614 17.2211 33.6544C17.142 33.5474 17.0892 33.4234 17.0668 33.2923C17.0444 33.1611 17.0531 33.0266 17.0922 32.8995L20.4922 21.8495C20.5308 21.7237 20.5981 21.6086 20.6888 21.5133C20.7795 21.418 20.8911 21.345 21.0147 21.3001C21.1384 21.2552 21.2708 21.2396 21.4016 21.2545C21.5323 21.2695 21.6577 21.3146 21.7681 21.3863L28.4386 25.7226C28.5566 25.7994 28.6537 25.9043 28.7212 26.0278C28.7887 26.1513 28.8244 26.2897 28.8252 26.4305C28.8261 26.5713 28.7919 26.7101 28.7259 26.8344C28.6598 26.9587 28.564 27.0647 28.4469 27.1428L18.3764 33.8564C18.2369 33.9498 18.0727 33.9995 17.9049 33.9993ZM21.7863 23.4259L19.4189 31.1181L26.4297 26.4449L21.7863 23.4259Z" fill="#6E1F8C"></path></svg> 