<?xml version="1.0" encoding="UTF-8"?> <svg xmlns="http://www.w3.org/2000/svg" width="52" height="52" viewBox="0 0 52 52" fill="none"><path d="M40.7339 33.8001C40.7339 46.8001 31.8072 51.1334 20.8005 51.1334C9.79385 51.1334 0.867188 46.8001 0.867188 33.8001C0.867188 21.6668 9.79385 13.0001 20.8005 13.0001C23.4785 12.9914 26.1314 13.5218 28.6005 14.5601V15.6001C28.6005 16.2897 28.8745 16.951 29.362 17.4386C29.8496 17.9262 30.511 18.2001 31.2005 18.2001H32.0672C32.297 18.2001 32.5175 18.2914 32.68 18.4539C32.8425 18.6165 32.9339 18.8369 32.9339 19.0668V21.8661C32.9339 22.0191 32.9744 22.1693 33.0513 22.3016C33.1282 22.4338 33.2387 22.5433 33.3716 22.619C33.5045 22.6947 33.6551 22.7339 33.8081 22.7326C33.9611 22.7313 34.1109 22.6895 34.2425 22.6114L36.7819 21.0861C39.4095 24.8001 40.793 29.251 40.7339 33.8001Z" fill="#6E1F8C" fill-opacity="0.1"></path><path d="M27.734 24.2666H13.8673C8.6022 24.2666 4.33398 28.5348 4.33398 33.7999C4.33398 39.0651 8.6022 43.3333 13.8673 43.3333H27.734C32.9991 43.3333 37.2673 39.0651 37.2673 33.7999C37.2673 28.5348 32.9991 24.2666 27.734 24.2666Z" fill="white"></path><path d="M11.266 35.533C12.702 35.533 13.866 34.3689 13.866 32.933C13.866 31.4971 12.702 30.333 11.266 30.333C9.83008 30.333 8.66602 31.4971 8.66602 32.933C8.66602 34.3689 9.83008 35.533 11.266 35.533Z" fill="#6E1F8C" fill-opacity="0.1"></path><path d="M30.3344 35.533C31.7703 35.533 32.9344 34.3689 32.9344 32.933C32.9344 31.4971 31.7703 30.333 30.3344 30.333C28.8984 30.333 27.7344 31.4971 27.7344 32.933C27.7344 34.3689 28.8984 35.533 30.3344 35.533Z" fill="#6E1F8C" fill-opacity="0.1"></path><path d="M6.06732 12.9999C7.02461 12.9999 7.80065 12.2238 7.80065 11.2665C7.80065 10.3092 7.02461 9.5332 6.06732 9.5332C5.11002 9.5332 4.33398 10.3092 4.33398 11.2665C4.33398 12.2238 5.11002 12.9999 6.06732 12.9999Z" fill="#6E1F8C" fill-opacity="0.1"></path><path d="M20.8005 51.1333C21.2339 51.1333 21.6672 51.1238 22.1005 51.1099C11.7005 50.7728 3.46719 46.28 3.46719 33.8C3.46719 22.1485 11.7005 13.6985 22.1005 13.0459C21.6672 13.0182 21.2339 13 20.8005 13C9.79385 13 0.867188 21.6667 0.867188 33.8C0.867188 46.8 9.79385 51.1333 20.8005 51.1333Z" fill="white"></path><path d="M1.07553 26.7119L2.72913 27.2319C2.08807 29.363 1.7528 31.5742 1.73333 33.7995H0C0.0190667 31.398 0.381333 29.0112 1.07553 26.7119Z" fill="white"></path><path d="M3.4668 33.8004C3.47286 39.5412 8.126 44.1943 13.8668 44.2004H27.7335C33.4769 44.2004 38.1335 39.5438 38.1335 33.8004C38.1335 28.057 33.4769 23.4004 27.7335 23.4004H13.8668C8.126 23.4065 3.47286 28.0596 3.4668 33.8004ZM36.4001 33.8004C36.3949 38.5844 32.5175 42.4619 27.7335 42.4671H13.8668C9.0802 42.4671 5.20013 38.587 5.20013 33.8004C5.20013 29.0138 9.0802 25.1337 13.8668 25.1337H27.7335C32.5175 25.1389 36.3949 29.0164 36.4001 33.8004Z" fill="#6E1F8C"></path><path d="M11.2674 29.4663C10.348 29.4663 9.46627 29.8316 8.81614 30.4817C8.16602 31.1318 7.80078 32.0136 7.80078 32.933C7.80078 33.8524 8.16602 34.7342 8.81614 35.3843C9.46627 36.0344 10.348 36.3997 11.2674 36.3997C12.1869 36.3997 13.0686 36.0344 13.7188 35.3843C14.3689 34.7342 14.7341 33.8524 14.7341 32.933C14.7341 32.0136 14.3689 31.1318 13.7188 30.4817C13.0686 29.8316 12.1869 29.4663 11.2674 29.4663ZM11.2674 34.6663C10.8077 34.6663 10.3669 34.4837 10.0418 34.1587C9.71673 33.8336 9.53411 33.3927 9.53411 32.933C9.53411 32.4733 9.71673 32.0324 10.0418 31.7074C10.3669 31.3823 10.8077 31.1997 11.2674 31.1997C11.7272 31.1997 12.168 31.3823 12.4931 31.7074C12.8182 32.0324 13.0008 32.4733 13.0008 32.933C13.0008 33.3927 12.8182 33.8336 12.4931 34.1587C12.168 34.4837 11.7272 34.6663 11.2674 34.6663ZM30.3341 36.3997C31.2535 36.3997 32.1353 36.0344 32.7854 35.3843C33.4355 34.7342 33.8008 33.8524 33.8008 32.933C33.8008 32.0136 33.4355 31.1318 32.7854 30.4817C32.1353 29.8316 31.2535 29.4663 30.3341 29.4663C29.4147 29.4663 28.5329 29.8316 27.8828 30.4817C27.2327 31.1318 26.8674 32.0136 26.8674 32.933C26.8674 33.8524 27.2327 34.7342 27.8828 35.3843C28.5329 36.0344 29.4147 36.3997 30.3341 36.3997ZM30.3341 31.1997C30.7938 31.1997 31.2347 31.3823 31.5598 31.7074C31.8848 32.0324 32.0674 32.4733 32.0674 32.933C32.0674 33.3927 31.8848 33.8336 31.5598 34.1587C31.2347 34.4837 30.7938 34.6663 30.3341 34.6663C29.8744 34.6663 29.4335 34.4837 29.1085 34.1587C28.7834 33.8336 28.6008 33.3927 28.6008 32.933C28.6008 32.4733 28.7834 32.0324 29.1085 31.7074C29.4335 31.3823 29.8744 31.1997 30.3341 31.1997ZM17.3341 20.7997C17.3341 21.0295 17.4254 21.25 17.588 21.4125C17.7505 21.575 17.9709 21.6663 18.2008 21.6663H23.4008C23.6306 21.6663 23.8511 21.575 24.0136 21.4125C24.1761 21.25 24.2674 21.0295 24.2674 20.7997C24.2674 20.5698 24.1761 20.3494 24.0136 20.1868C23.8511 20.0243 23.6306 19.933 23.4008 19.933H18.2008C17.9709 19.933 17.7505 20.0243 17.588 20.1868C17.4254 20.3494 17.3341 20.5698 17.3341 20.7997ZM21.6674 19.0663C21.8973 19.0663 22.1177 18.975 22.2803 18.8125C22.4428 18.65 22.5341 18.4295 22.5341 18.1997C22.5341 17.9698 22.4428 17.7494 22.2803 17.5868C22.1177 17.4243 21.8973 17.333 21.6674 17.333H19.9341C19.7043 17.333 19.4838 17.4243 19.3213 17.5868C19.1588 17.7494 19.0674 17.9698 19.0674 18.1997C19.0674 18.4295 19.1588 18.65 19.3213 18.8125C19.4838 18.975 19.7043 19.0663 19.9341 19.0663H21.6674Z" fill="#6E1F8C"></path><path d="M48.5333 0H31.2C30.2806 0 29.3988 0.365237 28.7487 1.01536C28.0986 1.66549 27.7333 2.54725 27.7333 3.46667V13.3007C25.505 12.522 23.1605 12.1272 20.8 12.1333C15.6731 12.1065 10.7235 14.0081 6.93333 17.4607V13.7072C7.51159 13.5028 7.99895 13.1005 8.30928 12.5715C8.61961 12.0424 8.73294 11.4207 8.62922 10.8162C8.52551 10.2117 8.21143 9.66337 7.74251 9.26804C7.27358 8.87272 6.68 8.6559 6.06667 8.6559C5.45334 8.6559 4.85975 8.87272 4.39083 9.26804C3.9219 9.66337 3.60783 10.2117 3.50411 10.8162C3.4004 11.4207 3.51372 12.0424 3.82405 12.5715C4.13439 13.1005 4.62175 13.5028 5.2 13.7072V19.24C3.3342 21.4261 1.9311 23.9678 1.07553 26.7115C1.03708 26.8214 1.0219 26.938 1.03095 27.054C1.04 27.17 1.07308 27.2829 1.1281 27.3854C1.18312 27.4879 1.25886 27.5779 1.35053 27.6496C1.44219 27.7213 1.54776 27.7731 1.66053 27.8018C1.87791 27.8572 2.10814 27.8292 2.30591 27.7233C2.50368 27.6175 2.65466 27.4414 2.72913 27.2298C3.89276 23.3488 6.28239 19.9492 9.54012 17.5401C12.7979 15.1311 16.7484 13.8423 20.8 13.8667C23.1721 13.8641 25.5233 14.3052 27.7333 15.1667V15.6C27.7333 16.5194 28.0986 17.4012 28.7487 18.0513C29.3988 18.7014 30.2806 19.0667 31.2 19.0667H32.0667V21.8695C32.0667 22.1762 32.1481 22.4774 32.3025 22.7424C32.457 23.0074 32.6791 23.2267 32.946 23.3778C33.2129 23.529 33.5152 23.6065 33.8219 23.6027C34.1286 23.5988 34.4288 23.5136 34.6918 23.3558L36.5187 22.2595C38.7465 25.6928 39.9111 29.7075 39.8667 33.8C39.8667 44.7261 33.4533 50.2667 20.8 50.2667C8.14667 50.2667 1.73333 44.7261 1.73333 33.8C1.73333 33.5701 1.64202 33.3497 1.47949 33.1872C1.31696 33.0246 1.09652 32.9333 0.866667 32.9333C0.636812 32.9333 0.416372 33.0246 0.253841 33.1872C0.0913093 33.3497 0 33.5701 0 33.8C0 45.7063 7.19333 52 20.8 52C34.4067 52 41.6 45.7063 41.6 33.8C41.644 29.3934 40.3941 25.0707 38.0051 21.3677L41.8401 19.0667H48.5333C49.4528 19.0667 50.3345 18.7014 50.9846 18.0513C51.6348 17.4012 52 16.5194 52 15.6V3.46667C52 2.54725 51.6348 1.66549 50.9846 1.01536C50.3345 0.365237 49.4528 0 48.5333 0ZM6.06667 10.4C6.29652 10.4 6.51696 10.4913 6.67949 10.6538C6.84202 10.8164 6.93333 11.0368 6.93333 11.2667C6.93333 11.4965 6.84202 11.717 6.67949 11.8795C6.51696 12.042 6.29652 12.1333 6.06667 12.1333C5.83681 12.1333 5.61637 12.042 5.45384 11.8795C5.29131 11.717 5.2 11.4965 5.2 11.2667C5.2 11.0368 5.29131 10.8164 5.45384 10.6538C5.61637 10.4913 5.83681 10.4 6.06667 10.4ZM50.2667 15.6C50.2667 16.0597 50.084 16.5006 49.759 16.8257C49.4339 17.1507 48.993 17.3333 48.5333 17.3333H41.8401C41.5263 17.3333 41.2178 17.4191 40.9483 17.5803L36.2839 20.3788L36.2735 20.384L33.8 21.8695V19.0667C33.8 18.607 33.6174 18.1661 33.2923 17.841C32.9673 17.516 32.5264 17.3333 32.0667 17.3333H31.2C30.7403 17.3333 30.2994 17.1507 29.9743 16.8257C29.6493 16.5006 29.4667 16.0597 29.4667 15.6V3.46667C29.4667 3.00696 29.6493 2.56608 29.9743 2.24101C30.2994 1.91595 30.7403 1.73333 31.2 1.73333H48.5333C48.993 1.73333 49.4339 1.91595 49.759 2.24101C50.084 2.56608 50.2667 3.00696 50.2667 3.46667V15.6Z" fill="#6E1F8C"></path><path d="M20.8003 39.8669C21.975 39.9174 23.1245 39.5164 24.013 38.7463C24.1735 38.5851 24.2635 38.367 24.2635 38.1396C24.2635 37.9122 24.1735 37.6941 24.013 37.5329C23.8533 37.3699 23.6361 37.2759 23.408 37.2712C23.1798 37.2665 22.9589 37.3515 22.7927 37.5078C22.225 37.9483 21.5179 38.1704 20.8003 38.1335C20.0829 38.171 19.3759 37.9506 18.8069 37.5121C18.6406 37.3658 18.4245 37.2887 18.2031 37.2967C17.9817 37.3047 17.7717 37.3972 17.6164 37.5552C17.4611 37.7132 17.3722 37.9247 17.3679 38.1462C17.3637 38.3677 17.4444 38.5824 17.5936 38.7463C18.4805 39.515 19.6276 39.9158 20.8003 39.8669ZM46.8003 5.2002H32.9336C32.7037 5.2002 32.4833 5.2915 32.3208 5.45404C32.1582 5.61657 32.0669 5.83701 32.0669 6.06686C32.0669 6.29672 32.1582 6.51716 32.3208 6.67969C32.4833 6.84222 32.7037 6.93353 32.9336 6.93353H46.8003C47.0301 6.93353 47.2505 6.84222 47.4131 6.67969C47.5756 6.51716 47.6669 6.29672 47.6669 6.06686C47.6669 5.83701 47.5756 5.61657 47.4131 5.45404C47.2505 5.2915 47.0301 5.2002 46.8003 5.2002ZM32.9336 10.4002H37.2669C37.4968 10.4002 37.7172 10.3089 37.8797 10.1464C38.0423 9.98382 38.1336 9.76338 38.1336 9.53353C38.1336 9.30367 38.0423 9.08323 37.8797 8.9207C37.7172 8.75817 37.4968 8.66686 37.2669 8.66686H32.9336C32.7037 8.66686 32.4833 8.75817 32.3208 8.9207C32.1582 9.08323 32.0669 9.30367 32.0669 9.53353C32.0669 9.76338 32.1582 9.98382 32.3208 10.1464C32.4833 10.3089 32.7037 10.4002 32.9336 10.4002ZM44.2003 12.1335H32.9336C32.7037 12.1335 32.4833 12.2248 32.3208 12.3874C32.1582 12.5499 32.0669 12.7703 32.0669 13.0002C32.0669 13.2301 32.1582 13.4505 32.3208 13.613C32.4833 13.7756 32.7037 13.8669 32.9336 13.8669H44.2003C44.4301 13.8669 44.6506 13.7756 44.8131 13.613C44.9756 13.4505 45.0669 13.2301 45.0669 13.0002C45.0669 12.7703 44.9756 12.5499 44.8131 12.3874C44.6506 12.2248 44.4301 12.1335 44.2003 12.1335ZM1.15812 31.2097C0.928266 31.2109 0.707369 31.1207 0.544025 30.959C0.380681 30.7972 0.288269 30.5773 0.28712 30.3474C0.285971 30.1175 0.376178 29.8966 0.537897 29.7333C0.699616 29.57 0.919599 29.4775 1.14945 29.4764H1.15812C1.38797 29.4764 1.60841 29.5677 1.77095 29.7302C1.93348 29.8928 2.02479 30.1132 2.02479 30.3431C2.02479 30.5729 1.93348 30.7934 1.77095 30.9559C1.60841 31.1184 1.38797 31.2097 1.15812 31.2097Z" fill="#6E1F8C"></path></svg> 