<?xml version="1.0" encoding="UTF-8"?> <svg xmlns="http://www.w3.org/2000/svg" width="45" height="60" viewBox="0 0 45 60" fill="none"><path d="M23.6276 59.7971C30.4479 60.2057 34.7737 60.1603 42.9615 58.0957C44.7005 57.6574 45.0226 55.8053 43.3049 55.7698C39.1934 55.685 35.843 55.7941 32.4752 56.2512C42.504 50.7833 47.2436 36.5787 40.2596 25.6322C40.3054 25.5962 40.3573 25.5701 40.3942 25.5216C43.5294 21.3856 44.4338 15.7652 42.7549 10.8538C42.6386 10.5131 42.2839 10.3186 41.9292 10.4045C37.6742 11.4656 33.9427 14.2286 31.6829 17.986C31.2012 17.7513 30.7089 17.5346 30.2059 17.3354C30.1865 17.2381 24.5286 1.81436 24.0012 0.449969C23.7411 -0.21974 22.879 -0.0861746 22.6924 0.484805C21.062 5.4704 19.1329 11.1986 16.7946 16.608C16.266 16.7532 15.7455 16.921 15.2313 17.1068C13.0372 13.5683 9.94529 10.6774 6.25379 8.74144C5.89394 8.55027 5.43916 8.71444 5.28561 9.09975C3.63598 13.2455 4.54455 19.6275 6.33822 23.2536C5.06647 24.7376 4.01714 26.3815 3.20703 28.134C-4.04895 41.3923 5.21582 58.6939 23.6276 59.7971ZM39.6603 46.7133L39.6599 46.7143C39.649 46.7296 39.6391 46.7459 39.6296 46.7631C32.7 58.9986 15.5527 60.2921 6.86003 49.246C5.87532 48.0092 5.45057 47.1666 5.34714 47.0201L5.3485 47.0192C-1.02878 36.1671 4.28854 21.9277 16.5525 18.1266C16.5861 18.168 16.6179 18.2108 16.6617 18.2445C20.2946 21.0356 25.4302 21.2537 29.3416 18.487C40.7477 22.7538 45.5777 36.2102 39.6603 46.7133ZM20.083 12.1733C22.3456 12.3935 24.5118 11.7575 26.2329 10.5481C26.5477 11.4222 26.8618 12.2958 27.1833 13.1763C24.714 15.2067 21.5411 16.3985 18.3458 16.4972C18.9534 15.0651 19.5303 13.6224 20.083 12.1733ZM21.8245 7.40743C22.4396 7.38109 23.6802 7.0042 24.6972 6.29668C25.0478 7.2622 25.3949 8.22563 25.7377 9.17836C24.2901 10.3124 22.4331 10.9047 20.5965 10.82C21.022 9.67257 21.4301 8.53689 21.8245 7.40743ZM41.6352 11.9247C42.8387 16.11 41.9968 20.9213 39.4434 24.4457C37.7105 22.0978 35.4952 20.113 32.9159 18.6379C34.8781 15.4138 38.0227 12.9954 41.6352 11.9247ZM18.625 17.874C21.8853 17.7226 25.1077 16.5387 27.6928 14.5442C28.0265 15.4464 28.3588 16.3517 28.6996 17.2406C25.8166 19.3744 21.8962 19.7 18.625 17.874ZM23.4013 2.77947C23.6681 3.48949 23.9294 4.20662 24.192 4.92224C23.651 5.36114 23.0276 5.69124 22.3573 5.87955C22.7159 4.8304 23.0673 3.78899 23.4013 2.77947ZM6.31893 10.3615C9.40686 12.1295 12.0083 14.6273 13.9187 17.6315C11.4953 18.6968 9.26768 20.2132 7.35186 22.146C5.94801 18.9467 5.27933 13.8694 6.31893 10.3615Z" fill="#6F0B8C"></path><path d="M15.3062 33.61C16.9598 32.7268 18.2736 31.3587 19.2332 30.2661C19.8412 29.5734 18.7932 28.6587 18.189 29.3486C17.3068 30.3535 16.1074 31.6062 14.6511 32.3839C11.2973 34.1782 8.19505 32.4919 8.01682 29.9151C7.99058 29.5323 7.65444 29.2446 7.27576 29.2699C6.89302 29.2962 6.60392 29.6282 6.63062 30.011C6.87477 33.5546 11.0405 35.89 15.3062 33.61Z" fill="#6F0B8C"></path><path d="M29.7857 32.1989C28.2881 31.4723 27.0259 30.2625 26.0935 29.2898C25.4569 28.6252 24.4539 29.5885 25.09 30.2517C27.1229 32.3718 29.4968 34.2393 32.4613 34.2393C35.6319 34.2393 37.6293 31.8374 37.6708 29.5319C37.6872 28.6091 36.2983 28.5919 36.281 29.5066C36.235 32.0971 33.2251 33.8673 29.7857 32.1989Z" fill="#6F0B8C"></path><path d="M32.7714 39.6639C32.2568 40.2077 31.4092 40.139 30.9685 39.6014C30.7264 39.3047 30.2876 39.2603 29.9908 39.5046C29.2706 40.0944 30.1203 40.92 30.9947 41.2502C30.9876 41.2927 30.9711 41.3321 30.9721 41.3767C31.0445 44.5572 29.2375 47.7531 26.4755 49.3293C23.7135 50.9065 20.0426 50.8368 17.3421 49.1574C14.6955 47.5119 13.0353 44.3486 13.1496 41.2347C15.3569 40.9653 14.2718 39.1495 13.364 39.7462C12.9157 40.0368 12.1747 39.8538 11.9176 39.3816C11.7348 39.045 11.3118 38.9219 10.9752 39.1029C10.137 39.5597 10.8645 40.6073 11.761 41.0289C11.4729 46.4554 15.6508 51.8502 22.0649 51.8502C28.2836 51.8502 32.4593 46.6421 32.3602 41.3814C33.3683 41.1933 34.4761 40.3181 33.754 39.6358C33.4753 39.3707 33.0347 39.3843 32.7714 39.6639Z" fill="#6F0B8C"></path></svg> 