<?xml version="1.0" encoding="UTF-8"?> <svg xmlns="http://www.w3.org/2000/svg" width="46" height="53" viewBox="0 0 46 53" fill="none"><path d="M21.3971 6.00807C13.8367 6.52469 7.45206 10.9179 4.04066 17.1081C-0.32094 23.918 -0.310644 32.0029 3.76653 38.9429C4.24779 41.5155 5.20497 43.8695 6.59843 45.7945C11.7455 52.9054 23.2197 55.0611 30.5096 50.8772C34.4728 50.8266 38.2785 50.3387 43.815 48.9427C45.5926 48.4944 45.9133 46.607 44.1651 46.571C39.9727 46.4846 36.5563 46.5957 33.1223 47.0619C40.9981 42.7677 44.8436 33.9093 44.3012 25.9764C43.494 14.1586 33.2179 5.19657 21.3971 6.00807ZM5.90862 42.0012C7.50144 43.9137 9.40515 45.5616 11.5381 46.835C15.1 49.5819 21.5067 50.5221 24.1007 50.6775C25.3523 50.7525 26.5197 50.8116 27.6444 50.8473C20.2887 53.4711 9.38464 50.6298 5.90862 42.0012ZM43.0907 26.0585C44.1179 41.1002 28.9143 51.9441 15.0777 46.1667C10.8819 44.4157 6.94947 41.0295 4.66692 36.3797C4.39973 32.1414 5.45153 28.0048 6.94166 24.0294C7.40148 24.1436 7.85995 24.1401 8.36751 23.9299C9.4575 27.9183 13.9737 29.7024 17.4672 27.6847C20.7636 25.7808 21.6423 21.3037 19.1002 18.2894C19.4749 18.424 19.5663 18.4635 19.6962 18.4635C20.3689 18.4635 20.5384 17.5264 19.9107 17.2893C17.0701 16.2139 14.0916 15.6694 11.0573 15.6694C10.727 15.6655 10.4232 15.9326 10.424 16.2771C10.4244 16.6121 10.6958 16.8831 11.0309 16.8831C11.1243 16.8854 11.2667 16.8884 11.3173 16.889C10.0116 17.6232 9.08763 18.7343 8.5814 20.0267C7.68723 19.5289 6.4845 19.7167 5.81656 20.5116C5.12517 21.333 5.17287 22.6056 5.88071 23.3963C5.42143 24.8489 3.8123 28.6118 3.47031 33.361C-0.335486 20.8101 8.56221 8.10106 21.48 7.2186C32.621 6.46163 42.3285 14.9085 43.0907 26.0585ZM8.15758 22.6446C7.80808 22.9576 7.18078 22.9687 6.83351 22.6513C6.47635 22.3234 6.43329 21.6636 6.7454 21.293C7.05673 20.9217 7.71375 20.8505 8.09817 21.1469C8.14311 21.1816 8.19442 21.1989 8.24459 21.2192C8.15955 21.6939 8.13199 22.1712 8.15758 22.6446ZM15.6545 17.4734C19.9439 18.6216 20.6963 24.4188 16.8603 26.6338C13.0358 28.842 8.37471 25.3221 9.53034 21.0086C10.2454 18.3396 12.9844 16.7581 15.6545 17.4734Z" fill="#6F0B8C"></path><path d="M11.7616 38.8082C11.2315 39.4123 12.1439 40.2122 12.6735 39.6095C17.993 33.5543 25.8082 33.053 31.5569 38.3989C32.1462 38.9465 32.9704 38.0572 32.3834 37.5108C26.1194 31.6859 17.5208 32.2517 11.7616 38.8082Z" fill="#6F0B8C"></path><path d="M24.9758 19.2924C28.5028 18.4674 32.1351 18.0289 35.7711 17.9902C36.1065 17.9862 36.3752 17.7121 36.3716 17.377C36.3653 16.7871 35.6774 16.741 35.7584 16.7765C32.0336 16.8168 28.3127 17.2656 24.6993 18.1103C24.3729 18.1869 24.1703 18.5133 24.2465 18.8396C24.3247 19.1732 24.6589 19.3676 24.9758 19.2924Z" fill="#6F0B8C"></path><path d="M33.5913 20.0738C33.5111 20.0422 33.4266 20.0232 33.3377 20.0311C26.7872 20.3541 26.9877 20.2552 26.7433 20.4064C25.955 20.8972 26.054 21.5288 26.4937 21.8453C27.4328 22.5222 31.4171 22.357 32.6546 22.2104C34.0125 22.0484 34.5597 21.7932 34.6734 21.2685C34.8232 20.5692 34.022 20.2468 33.5913 20.0738Z" fill="#6F0B8C"></path><path d="M11.9183 22.8328C12.3356 22.8328 12.1822 22.7279 16.082 19.3434C16.6838 18.8109 15.8753 17.9013 15.2769 18.4363L11.5153 21.7716C11.0977 22.1425 11.3622 22.8328 11.9183 22.8328Z" fill="#6F0B8C"></path><path d="M14.3921 24.5163L17.4571 21.9735C18.0755 21.4603 17.2992 20.5272 16.682 21.0395L13.6177 23.5823C12.9988 24.0941 13.7752 25.0296 14.3921 24.5163Z" fill="#6F0B8C"></path><path d="M27.6174 2.84899C27.1614 3.04882 26.7371 3.22022 26.4396 3.62493C26.1844 3.97102 26.1271 4.45619 26.2931 4.85996C26.6235 5.66471 27.6478 5.69998 27.7604 4.98481C27.8035 4.7122 27.6577 4.45303 27.4195 4.34082C27.696 3.97454 29.0874 3.86955 29.2044 2.67673C29.2876 1.84464 28.6086 1.43143 28.5494 1.05452C28.7655 0.856191 28.8109 0.524322 28.6438 0.272259C28.2914 -0.258938 27.5064 0.0286895 27.357 0.775594C27.1678 1.71781 28.0219 2.30785 27.9967 2.55742C27.9927 2.59693 27.8947 2.72098 27.6174 2.84899Z" fill="#6F0B8C"></path><path d="M32.2196 4.2427C31.3868 4.65754 30.9763 5.70293 31.3046 6.57369C31.5871 7.32376 32.7235 6.89819 32.44 6.14542C32.333 5.86096 32.4886 5.46509 32.7605 5.32918C33.148 5.13684 34.0308 5.07472 34.31 4.27194C34.547 3.59158 34.0839 3.01843 34.0808 2.77615C34.3123 2.66553 34.4573 2.41505 34.4214 2.14718C34.2821 1.09991 32.2783 1.65374 33.0489 3.52523C33.0943 3.63506 33.1706 3.81917 33.167 3.86737C33.1208 3.92268 32.8849 3.99854 32.7443 4.04358C32.5621 4.10205 32.3804 4.16289 32.2196 4.2427Z" fill="#6F0B8C"></path><path d="M34.8301 6.51742C34.0128 7.30583 34.4667 8.72515 35.3513 8.72515C35.9946 8.72515 36.1948 7.8486 35.6136 7.57072C35.5951 6.92356 37.8153 7.27036 38.1686 5.72094C38.2953 5.16872 38.0438 4.67509 38.0983 4.46299C38.3669 4.38635 38.5558 4.13112 38.5372 3.84034C38.4928 3.15948 37.6492 3.09404 37.1892 3.63253C36.5946 4.32838 37.048 5.17799 36.9857 5.4507C36.9186 5.74029 35.5545 5.8171 34.8301 6.51742Z" fill="#6F0B8C"></path></svg> 