<?xml version="1.0" encoding="UTF-8"?> <svg xmlns="http://www.w3.org/2000/svg" width="46" height="45" viewBox="0 0 46 45" fill="none"><path d="M6.86668 13.0259C6.59056 13.1272 6.44904 13.4338 6.55032 13.7099C6.65196 13.986 6.9586 14.1276 7.23437 14.0263C8.63681 13.5108 10.0871 12.978 11.5485 12.8559C13.1126 12.7289 14.5199 13.1223 15.5127 13.9729C15.6129 14.0589 15.7364 14.1012 15.8589 14.1012C16.3497 14.1012 16.582 13.489 16.2075 13.1653L11.647 9.22752C11.4247 9.03466 11.0886 9.05963 10.8954 9.28233C10.7032 9.50503 10.7278 9.8415 10.9505 10.0337L13.0186 11.8194C10.8901 11.5602 8.85064 12.2971 6.86668 13.0259Z" fill="#6F0B8C"></path><path d="M24.3695 14.4663C25.3057 13.554 26.688 13.0781 28.2539 13.0982C29.7212 13.1266 31.202 13.5665 32.6343 13.9911C32.9159 14.0764 33.2129 13.914 33.2968 13.6324C33.3804 13.35 33.2195 13.0531 32.9375 12.9698C30.8906 12.3622 28.8318 11.7641 26.7213 12.1574L28.6708 10.2434C28.8807 10.0373 28.8838 9.69944 28.6778 9.48993C28.4714 9.27972 28.1342 9.27625 27.9243 9.48299L23.6244 13.7045C23.4145 13.9106 23.4114 14.2471 23.6168 14.4573C23.8209 14.6661 24.1582 14.6726 24.3695 14.4663Z" fill="#6F0B8C"></path><path d="M9.19565 19.6583C8.97851 19.166 8.25673 19.2703 8.18068 19.7964C7.75679 22.7255 7.31834 25.7551 8.33712 28.7092C12.1528 39.7736 26.149 41.3781 30.6485 29.686C31.9452 26.3185 31.9944 23.0009 31.9295 19.616C31.9185 19.0443 31.1285 18.8879 30.9052 19.4204C29.1621 23.5802 24.7227 26.5196 20.1096 26.5696C15.4999 26.6487 11.0091 23.7772 9.19565 19.6583ZM14.002 34.7199C15.0796 33.9282 16.5818 33.5069 18.0729 33.5521L17.4924 34.5645C17.346 34.8198 17.4341 35.1452 17.6894 35.2916C17.9453 35.4381 18.2704 35.3497 18.4164 35.0945C19.2312 33.6406 19.147 33.8743 19.1985 33.6745C20.7561 33.9861 21.883 34.8287 22.4127 36.3738C19.7891 37.0631 16.6719 36.6053 14.002 34.7199ZM20.1214 27.6352C24.4151 27.5887 28.5728 25.2397 30.8788 21.7251C30.8535 24.2788 30.6194 26.7958 29.654 29.303C28.4255 32.4959 26.1186 34.9593 23.4211 36.0374C22.8098 34.2462 21.4784 33.074 19.5258 32.649C17.2911 32.1644 14.7402 32.725 13.1311 34.0404C11.4493 32.5909 10.1271 30.6311 9.34447 28.3623C8.5841 26.1568 8.70759 23.9118 9.00903 21.5717C11.3555 25.3083 15.7743 27.7048 20.1214 27.6352Z" fill="#6F0B8C"></path><path d="M1.92622 9.46672C3.20911 10.0924 4.68562 10.0297 6.13207 9.97933C-0.690359 20.8506 3.8413 36.146 15.5946 41.3342C12.1743 41.158 8.80049 41.3302 4.6789 41.7609C2.95109 41.9413 3.43762 43.7738 5.21916 44.0677C13.6149 45.4529 17.9628 45.135 24.7774 44.1514C27.3192 43.7846 33.5511 42.3307 36.8327 39.3319C42.4391 35.315 46.0238 28.5207 45.9987 21.6039C45.9842 17.5848 44.2829 13.1398 42.4128 10.1072C44.6918 9.48243 45.6254 7.41693 45.0432 5.96184C44.2698 4.0276 41.1206 3.34487 38.4998 5.68568C29.5354 -2.62656 15.6099 -1.67757 7.88633 7.56881C7.43786 6.84461 6.9282 6.04687 6.67572 5.73151C5.71867 4.53616 4.39498 3.82783 3.12192 3.82783C1.60286 3.82783 0.0471715 5.00002 0.0010343 6.60218C-0.0322663 7.73718 0.741278 8.88813 1.92622 9.46672ZM44.0539 6.35728C44.4119 7.25293 43.7268 8.34144 42.8623 8.79586C41.2015 9.66959 39.1513 9.02654 36.9699 9.22044C38.3655 7.24027 39.7197 5.27085 42.1474 5.27085C43.1305 5.27085 43.8267 5.78987 44.0539 6.35728ZM37.7485 6.44223C36.8059 7.50195 36.1181 8.64138 35.3402 9.64225C35.0276 10.0452 35.4069 10.6158 35.9008 10.4831C37.6746 10.0011 39.2448 10.4137 40.9927 10.3214C44.8818 16.382 45.1064 23.7193 42.2511 29.7884C42.2407 29.8162 42.2248 29.8397 42.1932 29.898C35.5371 43.7833 16.1192 45.3056 7.42151 32.4143C7.41458 32.4039 7.40625 32.3928 7.39758 32.3817C2.76785 25.5116 2.89149 16.5884 7.44692 9.90444C8.5128 9.80723 8.60646 9.6589 8.70567 9.49517C8.80036 9.33838 8.80938 9.12401 8.72752 8.96097C8.71572 8.93717 8.61886 8.77266 8.47373 8.53123C15.6768 -0.408743 29.032 -1.59578 37.7485 6.44223ZM3.12331 4.89345C4.07411 4.89345 5.08804 5.45331 5.8439 6.39752C6.14673 6.77632 6.94074 8.05769 7.4118 8.83263C6.81239 8.88396 5.8942 8.92559 5.12134 8.93946C4.23992 8.95889 3.22842 8.91657 2.39347 8.50933C1.71532 8.17771 1.04168 7.46938 1.06596 6.63271C1.09442 5.65743 2.15914 4.89345 3.12331 4.89345Z" fill="#6F0B8C"></path></svg> 