<?xml version="1.0" encoding="UTF-8"?> <svg xmlns="http://www.w3.org/2000/svg" width="45" height="50" viewBox="0 0 45 50" fill="none"><path d="M0.539687 18.2343L2.85563 18.3944C-1.51375 28.9108 3.45777 41.6456 13.3039 46.3305C13.3118 46.3227 13.3118 46.3305 13.3197 46.3305C13.322 46.3317 13.3244 46.3326 13.3267 46.3337C9.92526 46.0547 6.55833 46.1233 2.43965 46.4263C0.710756 46.5536 1.13992 48.3961 2.9079 48.7438C11.2397 50.3825 15.5861 50.1985 22.4134 49.4262C24.9495 49.1393 31.167 47.8878 34.5416 45.0224C34.5448 45.0202 34.5481 45.0185 34.5512 45.0164C34.5748 45.0006 34.5984 44.9849 34.622 44.9613C43.8903 38.7397 47.6412 25.7815 40.6289 15.6208L42.7503 15.1508C43.2174 15.0479 43.3654 14.4503 42.9968 14.141L38.4617 10.3471L39.0152 4.45682C39.0603 3.97905 38.5357 3.65737 38.1314 3.9116L33.1249 7.04717L27.6987 4.69738C27.2595 4.50784 26.7916 4.90319 26.9065 5.36778L27.0189 5.81901C22.7422 4.88026 18.5111 5.25996 14.6808 6.78276C14.6717 6.45217 14.9115 5.91676 14.465 5.64001C14.2772 5.52538 14.0404 5.52614 13.8534 5.64227L8.84048 8.78085L3.41433 6.42955C2.96954 6.23905 2.50629 6.63966 2.62214 7.10146L4.05758 12.8394L0.145291 17.2736C-0.17126 17.6318 0.0606814 18.2014 0.539687 18.2343ZM32.9443 8.23111C33.1188 8.30727 33.3198 8.29294 33.4816 8.19039L37.7524 5.51558L37.28 10.5417C37.2619 10.7317 37.3388 10.918 37.4847 11.0401L41.351 14.2745C40.7433 14.41 36.1843 15.4268 36.4245 15.3732C36.2378 15.4147 36.084 15.5452 36.0127 15.7224L34.1297 20.4016L31.5635 16.061C31.4666 15.8966 31.295 15.791 31.1046 15.7782L26.0736 15.4335L29.4064 11.6472C29.5319 11.5047 29.5795 11.3094 29.5335 11.1246L28.3118 6.22519L32.9443 8.23111ZM27.3333 7.0819L28.3363 11.1103L24.4293 15.5489C24.1129 15.9079 24.3462 16.4761 24.8245 16.5089L30.7215 16.9131L33.73 22.0018C33.9708 22.4088 34.5852 22.3723 34.7658 21.9234L36.9734 16.438L39.3882 15.8935C43.7937 22.9297 43.2669 31.6568 38.784 38.0091C30.5201 49.7317 12.9496 49.1744 5.45305 37.0831C1.85476 31.3462 1.50781 24.3435 4.08025 18.4791L6.43904 18.6423L9.44829 23.734C9.55273 23.9112 9.74314 24.0183 9.94675 24.0183C10.1854 24.0183 10.3962 23.8729 10.484 23.6555L12.6947 18.1709L18.4666 16.8822C18.9333 16.7774 19.0804 16.1809 18.7121 15.8724L14.1788 12.0755L14.5567 8.09132C18.6355 6.32443 23.0546 6.01433 27.3333 7.0819ZM5.12765 13.3771C5.25359 13.2346 5.30147 13.0385 5.2551 12.8538L4.03081 7.95888L8.6595 9.96479C8.8352 10.0402 9.03617 10.0259 9.19717 9.92407L13.4733 7.247L12.9971 12.2686C12.979 12.4586 13.0555 12.6449 13.2018 12.7678L17.0689 16.0074L12.145 17.1062C11.9591 17.1484 11.8052 17.2781 11.734 17.4553L9.84834 22.1345L7.28137 17.7909C7.18447 17.6272 7.01291 17.5209 6.82288 17.5081L1.79037 17.1597L5.12765 13.3771Z" fill="#6F0B8C"></path><path d="M10.7471 27.9246C10.5496 31.346 11.1276 34.9725 12.2927 37.6254C13.6172 40.6426 15.4331 42.5603 18.18 43.843C21.3051 45.3014 24.8522 45.1194 27.4603 43.5836C30.1604 41.9932 31.5789 39.2754 32.2934 37.2755C33.2153 34.6973 33.7216 30.1726 33.9648 27.9978C34.0298 27.4222 33.3079 27.1597 32.9227 27.4971C29.8968 30.1289 25.589 31.7947 21.9859 31.7148C18.2131 31.6431 14.472 30.1198 11.7218 27.5355C11.3621 27.1989 10.775 27.4365 10.7471 27.9246ZM26.8721 42.5852C24.5137 43.975 21.3706 44.0542 18.6701 42.7933C16.0074 41.5502 13.9839 39.4828 12.7798 35.596C18.5872 39.7778 26.0265 39.598 31.5502 35.7261C30.6323 39.2121 28.7557 41.476 26.8721 42.5852ZM21.9637 32.8731C25.4604 32.9349 29.5292 31.5195 32.6629 29.1908C32.4972 30.586 32.2613 32.3598 31.9432 33.9926C31.6247 34.1738 27.8843 37.6477 21.9531 37.5221C18.4425 37.453 14.9403 36.0761 12.3127 33.748C12.02 32.2979 11.8619 30.7436 11.867 29.1953C14.7077 31.4765 18.3221 32.8037 21.9637 32.8731Z" fill="#6F0B8C"></path><path d="M39.8688 0.0289948C39.5645 -0.0697927 39.2373 0.0915854 39.1366 0.395489L38.4481 2.46173C38.3232 2.83633 38.6021 3.22413 38.9975 3.22413C39.2399 3.22413 39.4658 3.07105 39.5468 2.82823L40.2353 0.761983C40.3364 0.45808 40.1723 0.130045 39.8688 0.0289948Z" fill="#6F0B8C"></path><path d="M42.6608 1.54293L40.3144 3.23514C39.8606 3.56232 40.0925 4.28409 40.6538 4.28409C40.9843 4.28409 40.9305 4.17248 43.3388 2.48254C43.5982 2.29552 43.6566 1.93355 43.4696 1.67414C43.2811 1.41473 42.9202 1.35591 42.6608 1.54293Z" fill="#6F0B8C"></path><path d="M41.5616 6.26337L44.2179 5.77169C44.5324 5.71362 44.7401 5.41123 44.6817 5.09677C44.6236 4.78231 44.319 4.57417 44.0068 4.63299L41.3512 5.12467C40.6014 5.26312 40.8047 6.4083 41.5616 6.26337Z" fill="#6F0B8C"></path></svg> 