<?xml version="1.0" encoding="UTF-8"?> <svg xmlns="http://www.w3.org/2000/svg" width="46" height="45" viewBox="0 0 46 45" fill="none"><path d="M39.1072 7.18116C35.309 2.92725 30.0003 0.405924 24.3835 0.0931016C16.9171 -0.324376 9.94674 3.0662 5.66456 9.17431C3.439 9.09338 1.22031 10.5377 0.388201 12.613C-0.539406 14.9113 0.291193 17.6453 1.86501 19.446C1.0294 27.8374 5.08275 36.9608 13.1277 41.2087C9.69677 40.7871 6.28548 40.7183 2.10472 40.8554C0.347495 40.9129 0.704993 42.7975 2.48362 43.2232C10.8595 45.2275 15.2718 45.2204 22.2226 44.7194C24.8161 44.5324 31.2166 43.5138 34.745 40.7209C43.1582 35.5683 48.009 24.4961 43.716 14.3508C45.4475 10.6779 43.306 6.86933 39.1072 7.18116ZM20.0368 15.3192C20.3052 14.7296 20.4634 14.1206 20.5373 13.5183C20.5558 13.5089 20.5762 13.5067 20.5939 13.4948C21.4374 12.9274 22.6822 12.965 23.4881 13.5829C23.5558 13.6345 23.6331 13.6609 23.7118 13.6756C23.7283 15.8214 24.9207 17.8956 26.3925 19.2455C28.4342 21.1184 31.5341 22.2333 34.0243 23.1301C34.1646 23.1802 34.3215 23.169 34.4522 23.0973C36.7637 21.8429 37.937 20.5795 39.9103 18.9515C40.8394 18.186 41.9236 17.0714 42.7655 15.9135C44.1999 20.9527 43.6759 26.5916 40.8153 31.6396C33.0964 45.16 13.4211 45.2599 5.55036 31.6505C5.54284 31.6382 5.53533 31.6259 5.52712 31.6143C3.57696 28.2307 2.65007 24.3816 2.84351 20.4512C4.87502 22.223 7.87648 23.3078 10.3017 24.1834C10.4446 24.2361 10.5997 24.2231 10.731 24.1513C12.461 23.2107 13.552 22.2654 14.8152 21.1703C15.241 20.8019 15.6888 20.4136 16.1905 20.0008C17.559 18.8757 19.2788 16.9911 20.0368 15.3192ZM42.5078 9.47823C43.3802 10.5482 43.6166 12.3773 42.5747 14.2757C42.4997 14.3442 42.4516 14.4346 42.4262 14.5363C41.6329 15.862 40.3255 17.2488 39.2425 18.1415C37.3342 19.7152 36.2151 20.9075 34.1562 22.0617C31.7952 21.2107 28.9305 20.1484 27.102 18.4717C25.4683 16.9727 24.1388 14.2931 25.0814 11.9513C25.7308 10.3402 27.415 9.19456 29.1772 9.16585C30.8335 9.11566 32.6344 10.1638 33.364 11.8173C33.5379 12.2109 34.0673 12.2261 34.2854 11.8905C34.8398 11.0347 36.3278 8.98129 38.1673 8.40848C39.7955 7.90128 41.5809 8.34217 42.5078 9.47823ZM24.3247 1.14167C29.2223 1.41394 33.9899 3.41109 37.872 7.40255C37.8017 7.4485 35.957 7.80795 33.893 10.6116C32.8664 9.08109 31.0201 8.06738 29.1601 8.11592C26.7734 8.15497 24.3404 9.87638 23.8173 12.5514C22.8489 11.9706 21.6039 11.8891 20.5652 12.3289C20.2533 8.95753 16.9405 7.58718 14.1371 8.45906C12.4241 8.99291 11.0379 10.4912 10.1718 11.6635C9.409 10.5309 8.18681 9.67851 6.83339 9.33468C10.9278 3.80204 17.4093 0.74384 24.3247 1.14167ZM1.36226 13.0047C2.06025 11.263 3.97863 10.0561 5.87437 10.2336L5.87693 10.2332L5.87778 10.2336C7.4978 10.373 9.01049 11.4311 9.64209 12.8666C9.80916 13.2447 10.3323 13.2943 10.5628 12.9418C11.1192 12.086 12.6121 10.034 14.4495 9.46114C16.0798 8.95395 17.8624 9.39484 18.7887 10.535C19.7989 11.764 19.6636 13.6048 19.0805 14.8851C17.995 17.2804 15.4426 19.2372 14.1275 20.3774C12.9621 21.387 11.9491 22.2647 10.4343 23.115C7.85728 22.1833 4.60822 20.9879 2.80455 18.9338L2.80374 18.9331C2.78968 18.9167 2.76588 18.889 2.76217 18.8852L2.75512 18.8915C2.73042 18.8695 2.70637 18.847 2.67852 18.8304L2.69723 18.8059C2.62136 18.7171 2.54548 18.6227 2.47029 18.5202C1.10524 16.7307 0.691013 14.6691 1.36226 13.0047Z" fill="#6F0B8C"></path><path d="M6.50345 17.9965L7.96625 16.1872C8.14875 15.9623 8.11389 15.6315 7.88832 15.4489C7.66412 15.2671 7.33328 15.3006 7.15009 15.5269L5.68729 17.3362C5.50479 17.5618 5.53965 17.8926 5.76522 18.0745C5.99155 18.2577 6.32335 18.2208 6.50345 17.9965Z" fill="#6F0B8C"></path><path d="M9.59724 18.9485C10.1075 18.9485 10.0173 18.4562 11.49 17.0626C11.7005 16.863 11.7094 16.5308 11.5105 16.3202C11.3116 16.109 10.9794 16.1015 10.7682 16.2997C10.1865 16.8507 9.64987 17.4611 9.17344 18.1145C8.91976 18.463 9.17357 18.9485 9.59724 18.9485Z" fill="#6F0B8C"></path><path d="M32.2562 13.6246L30.3963 15.5037C30.0681 15.8351 30.3067 16.3978 30.7695 16.3978C31.1563 16.3978 31.1425 16.1672 33.0027 14.3628C33.2064 14.1571 33.205 13.8242 32.9986 13.6205C32.7921 13.4168 32.4599 13.4182 32.2562 13.6246Z" fill="#6F0B8C"></path><path d="M35.8665 14.1471L33.822 16.2504C33.6203 16.4582 33.6251 16.7904 33.8329 16.9927C34.0398 17.194 34.3719 17.1904 34.5752 16.9818L36.6197 14.8785C36.8214 14.6707 36.8173 14.3385 36.6088 14.1362C36.4017 13.9352 36.0695 13.9393 35.8665 14.1471Z" fill="#6F0B8C"></path><path d="M21.4799 27.579C21.4681 27.6312 21.4571 27.684 21.4622 27.7402C21.6262 29.566 22.1074 30.931 22.9345 31.9146C23.9698 33.1441 25.7876 33.8207 27.301 33.089C28.9292 32.3022 29.4166 30.2803 29.0489 28.7771C28.7517 27.5622 27.9971 26.4324 26.6976 25.243C27.0637 24.7059 27.3691 24.1119 27.5738 23.4687C27.6613 23.1925 27.5088 22.8973 27.2327 22.8091C26.9552 22.7236 26.6612 22.874 26.5731 23.1502C25.9756 25.0292 24.4718 26.4763 22.9174 26.6704C21.4095 26.853 19.8907 25.8235 19.2365 24.1529C19.1306 23.8836 18.8271 23.7496 18.5564 23.8556C18.2864 23.9615 18.1531 24.2657 18.259 24.5357C18.8667 26.0872 20.089 27.1903 21.4799 27.579ZM23.9152 27.4938C24.22 28.0821 24.6497 28.5981 25.1882 28.9897C25.2818 29.0574 25.3898 29.0902 25.4965 29.0902C26.0038 29.0902 26.2169 28.4389 25.8061 28.1408C25.4123 27.8544 25.086 27.4656 24.8565 27.0331C25.28 26.7706 25.6762 26.4442 26.0374 26.0615C27.1469 27.0867 27.787 28.0359 28.029 29.0266C28.3031 30.1449 27.9347 31.6173 26.8444 32.1436C25.763 32.6679 24.4356 32.0664 23.7377 31.2386C23.0677 30.442 22.6693 29.2948 22.5185 27.7383C22.9855 27.7435 23.3539 27.6926 23.9152 27.4938Z" fill="#6F0B8C"></path><path d="M0.370864 5.72163C0.189723 5.94857 0.226635 6.27872 0.45289 6.45986C2.16627 7.78167 2.15695 7.93428 2.47961 7.93428C2.97446 7.93428 3.19385 7.30901 2.80772 6.99987L1.1091 5.63961C0.882842 5.45983 0.553371 5.49606 0.370864 5.72163Z" fill="#6F0B8C"></path><path d="M4.92401 5.91796C5.19538 5.81611 5.33278 5.5133 5.23093 5.24193C4.829 4.17081 4.17006 3.19538 3.32519 2.42092C3.11124 2.22543 2.77904 2.23978 2.58354 2.45305C2.38736 2.667 2.40172 2.9992 2.61567 3.1947C3.33955 3.85774 3.90416 4.69372 4.24798 5.61104C4.34899 5.87925 4.64786 6.02035 4.92401 5.91796Z" fill="#6F0B8C"></path><path d="M7.62697 0.00672822C7.34193 -0.0390696 7.07124 0.153691 7.02408 0.440098C6.83884 1.57069 6.83063 2.71632 7.00084 3.84554C7.0398 4.10597 7.26332 4.29258 7.51897 4.29258C7.83924 4.29258 8.08708 4.00798 8.03847 3.68969C7.88535 2.66847 7.89287 1.63221 8.06034 0.609619C8.1075 0.323895 7.91338 0.0538931 7.62697 0.00672822Z" fill="#6F0B8C"></path></svg> 