<?xml version="1.0" encoding="UTF-8"?> <svg xmlns="http://www.w3.org/2000/svg" width="45" height="45" viewBox="0 0 45 45" fill="none"><path d="M10.9547 41.0365C14.5475 43.7746 20.9864 44.6823 23.5921 44.8236C30.5787 45.2026 35.0082 45.131 43.3807 42.9694C45.2002 42.4995 45.4429 40.6113 43.7188 40.5856C39.5081 40.5225 36.0777 40.6536 32.6317 41.1413C33.764 40.5156 34.8455 39.7976 35.8442 38.9688C40.4528 35.1441 43.2645 29.3136 43.6342 23.3523C44.7768 10.0976 33.7407 -0.91636 20.6288 0.0603437C13.5207 0.586209 7.4708 4.53373 3.96447 10.1663C1.13308 14.1189 -0.355929 18.9231 0.0726697 23.922C0.67312 30.9254 4.9164 37.4781 10.9547 41.0365ZM20.7071 1.11345C27.5032 0.606789 33.7783 3.50743 37.8649 8.36173C37.1359 8.02559 36.357 7.7895 35.6001 7.68317L35.7613 6.50753C35.8012 6.21882 35.5991 5.9528 35.3097 5.91293C35.0244 5.87099 34.755 6.07515 34.7151 6.36455C34.6415 6.91692 34.5626 7.44222 34.5477 7.62474C33.2148 7.67412 31.8088 8.33986 30.7366 9.10443L30.491 7.85898C30.4346 7.57301 30.1569 7.39085 29.8709 7.44241C29.585 7.49877 29.3987 7.77649 29.4544 8.06245L29.8099 9.8598C29.093 10.533 28.5043 11.3228 28.1786 12.1814C28.0748 12.4536 28.2122 12.7588 28.4851 12.8619C28.7534 12.9644 29.0615 12.8311 29.1657 12.5553C29.8895 10.6471 32.3078 9.03307 34.1123 8.72305C35.9992 8.39928 38.8808 9.67648 39.826 11.2541C39.8705 11.3288 39.9333 11.3829 40.0025 11.4259C41.4515 13.975 42.3741 16.8737 42.6045 19.9862C43.7324 35.2313 28.3324 46.1123 14.4744 40.4208C7.52294 37.5648 2.42668 31.0122 1.83368 23.0032C1.0026 11.7648 9.46871 1.94453 20.7071 1.11345Z" fill="#6F0B8C"></path><path d="M16.2547 22.0369C16.9707 21.8451 17.5784 21.2949 17.8072 20.5799C17.8959 20.3015 17.7426 20.0045 17.4649 19.9158C17.1858 19.8299 16.8902 19.9811 16.8009 20.2582C16.662 20.6933 16.2138 21.0377 15.7574 21.0583C15.3037 21.0755 14.8232 20.7778 14.6458 20.3571C14.5317 20.0884 14.2224 19.9633 13.9536 20.076C13.6855 20.1894 13.5591 20.4994 13.6725 20.7682C13.9379 21.3963 14.5034 21.8609 15.1525 22.0357C16.2336 25.9995 19.4364 29.3901 23.3354 30.6861C27.233 31.981 31.8656 31.1933 35.1292 28.6122C38.3459 26.0693 40.1992 21.8007 39.8729 17.7129C40.7513 17.3676 41.0668 16.2605 40.3356 16.098C40.0497 16.0368 39.7685 16.2148 39.706 16.4994C39.6778 16.6266 39.5499 16.7428 39.42 16.7593C39.2853 16.7751 39.1388 16.6939 39.0804 16.5778C38.9491 16.3172 38.6309 16.2114 38.3717 16.3434C37.8288 16.617 38.092 17.3534 38.8188 17.6809C38.8191 17.6903 38.815 17.6985 38.8158 17.7079C39.1498 21.4797 37.4458 25.435 34.4748 27.7846C31.5038 30.1328 27.2625 30.8786 23.6681 29.6839C20.1882 28.5271 17.3166 25.5478 16.2547 22.0369Z" fill="#6F0B8C"></path><path d="M11.7571 13.0811C11.7763 13.1142 11.7897 13.1499 11.8169 13.1792C12.0155 13.3937 12.3503 13.4047 12.5627 13.2087C14.0317 11.8504 15.3337 10.9582 16.6604 10.4007C20.4917 8.78923 23.8533 10.4104 24.6027 13.0376C24.6693 13.2692 24.8804 13.4205 25.1107 13.4205C25.4628 13.4205 25.7142 13.0835 25.6186 12.7475C25.3053 11.651 24.6019 10.6792 23.652 9.96444C23.9164 9.71209 23.7787 9.45392 23.8939 7.93633C23.9084 7.64487 23.6836 7.39741 23.3921 7.38366C23.1007 7.36716 22.8539 7.59401 22.8395 7.88547L22.7668 9.42126C21.1876 8.61101 19.4406 8.53702 17.741 8.94188L17.7368 8.20649C17.7355 7.91571 17.499 7.68131 17.2089 7.68131H17.2062C16.9147 7.68268 16.6796 7.92052 16.681 8.21198L16.6869 9.26299C14.9945 9.88189 13.5618 10.9047 12.2137 12.1039C11.971 11.9329 11.7616 11.7095 11.6313 11.4428C11.5027 11.1816 11.1879 11.073 10.9246 11.2008C10.6627 11.3294 10.5548 11.6456 10.6827 11.9075C10.9186 12.3882 11.2998 12.8039 11.7571 13.0811Z" fill="#6F0B8C"></path><path d="M4.3193 19.9479C4.47033 22.7617 7.54571 24.1571 9.63915 22.7642C11.8803 21.2717 11.7959 17.4723 9.41299 16.0283C6.69433 14.3826 4.16393 17.0607 4.3193 19.9479ZM9.05347 21.8857C7.57422 22.8708 5.47732 21.8247 5.37378 19.8915C5.30779 18.6631 5.91546 17.3783 6.81871 16.8367C7.49723 16.4318 8.19254 16.524 8.86581 16.9315C10.5806 17.9712 10.6546 20.8194 9.05347 21.8857Z" fill="#6F0B8C"></path></svg> 