<?xml version="1.0" encoding="UTF-8"?> <svg xmlns="http://www.w3.org/2000/svg" width="52" height="50" viewBox="0 0 52 50" fill="none"><path d="M4.3654 43.1888C6.77222 43.1888 8.73042 41.1729 8.73042 38.6949C8.73042 36.9541 7.76226 35.4448 6.35297 34.6988C7.12156 34.0373 7.87754 33.3863 8.41999 32.5079C10.7102 28.7846 7.44183 23.3502 10.1338 20.6189C10.3921 20.8923 10.7129 21.1193 11.0776 21.2716C10.6655 21.9775 10.8514 22.7447 11.3718 23.1299C11.3762 23.1331 11.381 23.1348 11.3854 23.138C8.25898 32.2316 12.8086 41.8395 20.3452 46.3143C20.3548 46.3191 20.3619 46.3239 20.3692 46.3287C23.6544 48.813 29.4741 49.668 31.8412 49.8099C38.2306 50.1927 42.2832 50.1502 49.9538 48.216C51.5829 47.8053 51.8846 46.0703 50.2755 46.037C46.4283 45.9576 43.2923 46.0592 40.1411 46.4863C47.283 42.6309 50.9414 34.4335 50.4375 27.0722C49.7258 18.9966 44.7499 12.8594 38.1969 10.1748C38.3799 9.43124 37.9805 8.68328 37.2646 8.45791C36.8799 8.33714 36.4851 8.38011 36.1375 8.41881C35.9683 8.43739 35.6858 8.46836 35.654 8.49313C35.6463 8.46371 35.6474 8.37236 35.6486 8.31159L35.6482 8.1409C35.6188 7.14728 34.7936 6.20669 33.5948 5.80027C32.0735 5.28371 30.0947 5.62285 28.5232 5.99811C28.5312 5.9326 28.5343 5.86563 28.5191 5.79756C28.1541 4.15908 26.684 2.89142 25.0331 2.78381C24.4612 2.73806 23.799 2.83758 23.3699 2.69169C22.9076 2.53131 22.5132 2.03175 22.036 1.59473C15.4907 -4.32903 2.39544 7.16738 4.21445 20.9762C4.57692 23.7977 5.55062 26.5325 5.55062 29.3029C5.55769 30.938 5.22619 32.5475 4.90126 34.2384C2.26085 33.9038 0 36.0329 0 38.6949C-7.92725e-08 41.1729 1.9582 43.1888 4.3654 43.1888ZM46.9356 37.5243C39.8633 49.6483 23.9757 49.9454 16.091 39.959C12.3023 35.1127 11.2416 29.0145 12.8258 23.3943C17.2226 22.775 20.3298 18.8216 23.7651 16.9228C27.7157 14.7398 34.4774 14.0545 37.5448 11.1912C48.0254 15.3397 52.3955 27.8027 46.9356 37.5243ZM33.2131 6.92665C33.9211 7.16663 34.4452 7.69228 34.4599 8.17689C34.4596 8.33977 34.4585 8.32626 34.4602 8.43406C31.8687 8.65938 29.2742 9.36119 26.9333 10.4831C26.2282 10.8213 26.7359 11.8977 27.4473 11.5553C31.602 9.56388 34.7829 9.70084 35.1396 9.52391C35.8873 9.83999 36.847 9.34793 37.025 9.69344C37.1846 10.0033 36.6608 10.4109 36.3775 10.6189C32.7832 13.2583 27.3655 13.5744 23.1899 15.8823C19.4868 17.9283 17.0185 21.4078 12.8264 22.1916C11.7924 22.3845 11.8333 22.0443 12.5876 21.3354C12.7951 21.1406 12.8493 20.8051 12.6534 20.5457C13.2445 19.8712 13.9703 19.3077 14.778 18.9185C15.486 18.5775 14.9706 17.5057 14.2617 17.8471C13.2267 18.3461 12.2965 19.08 11.5715 19.9702C11.5306 20.0205 11.5067 20.0779 11.4846 20.1354C11.1424 19.9783 10.8601 19.7319 10.7583 19.4345C10.5055 18.6975 11.755 16.9948 12.2528 16.3163C14.4579 13.3111 18.3038 11.4844 21.6753 9.89588C24.2851 8.66617 30.1999 5.90245 33.2131 6.92665ZM5.39347 20.8226C3.73761 8.25216 15.6572 -3.09262 21.5588 2.78768C21.9447 3.17205 22.3817 3.6075 22.9824 3.81575C23.6934 4.05951 24.3217 3.92092 24.9464 3.9698C26.0728 4.04296 27.1098 4.94019 27.3587 6.05612C27.3772 6.13973 27.4137 6.21381 27.4615 6.2785C24.1959 7.23268 17.6815 10.3015 14.9534 12.1831C13.4179 13.2425 12.1866 14.3964 11.2665 15.6505C10.3369 16.9176 9.39478 18.3459 9.5753 19.519C5.83517 22.722 9.53804 28.4205 7.40779 31.8839C7.12141 32.3477 6.73927 32.7486 6.31915 33.1379C7.4154 27.1783 5.94984 25.1541 5.39347 20.8226ZM4.3654 35.39C6.11652 35.39 7.54133 36.8725 7.54133 38.6949C7.54133 40.5172 6.11652 41.9997 4.3654 41.9997C2.6139 41.9997 1.18909 40.5172 1.18909 38.6949C1.18909 36.8725 2.6139 35.39 4.3654 35.39Z" fill="#6F0B8C"></path><path d="M26.9346 24.503C26.8063 23.7248 25.6341 23.9205 25.761 24.6958C26.102 26.7705 24.683 29.0167 22.6621 29.5996C20.6427 30.1849 18.244 29.0407 17.4261 27.1026C17.12 26.3772 16.0248 26.8407 16.3307 27.5648C17.3902 30.0741 20.3791 31.4968 22.9923 30.7422C25.6069 29.9874 27.3755 27.1881 26.9346 24.503Z" fill="#6F0B8C"></path><path d="M39.7713 24.7453C38.5338 26.0234 36.547 26.5753 34.8272 26.1209C33.1074 25.6661 31.6532 24.2037 31.2089 22.4813C31.0138 21.7223 29.8607 22.0148 30.0577 22.7785C30.7273 25.3736 33.1471 27.4714 36.0836 27.4714C40.4197 27.4714 43.2986 23.3365 42.1289 19.4195C41.9032 18.6641 40.7644 19.0073 40.9894 19.7602C41.4984 21.464 41.0088 23.4675 39.7713 24.7453Z" fill="#6F0B8C"></path><path d="M24.0037 40.2784C23.9324 42.7688 26.096 44.2748 28.4895 43.4749C31.5161 42.4631 32.3407 38.9259 29.9839 36.77C27.4652 34.4631 24.0984 36.9566 24.0037 40.2784Z" fill="#6F0B8C"></path><path d="M3.95113 40.4295C4.62481 40.4295 4.77728 39.4763 4.13306 39.269C3.61226 39.1006 3.30047 38.3804 3.53348 37.8864C3.86819 37.1763 2.79549 36.6649 2.45819 37.3786C2.20079 37.9236 2.20157 38.5777 2.45974 39.1738C2.81352 39.9883 3.57819 40.4295 3.95113 40.4295Z" fill="#6F0B8C"></path></svg> 