<?xml version="1.0" encoding="UTF-8"?> <svg xmlns="http://www.w3.org/2000/svg" width="47" height="50" viewBox="0 0 47 50" fill="none"><path d="M1.81837 28.9651C2.37368 35.9031 6.53842 42.4154 12.4975 45.9729C16.0398 48.7045 22.4109 49.6395 24.9905 49.794C31.9066 50.2085 36.2931 50.1624 44.5958 48.0688C46.3591 47.6241 46.6858 45.7463 44.944 45.7103C40.7749 45.6243 37.3773 45.7348 33.9623 46.1984C43.5688 40.9604 47.1955 28.9747 43.8885 19.576L44.6032 19.1228L44.803 19.8927C44.8829 20.2019 45.1974 20.3874 45.5088 20.3075C45.8188 20.2275 46.0043 19.9108 45.9236 19.6016L45.5239 18.0625C45.4241 17.6792 44.9804 17.5108 44.6537 17.7186L43.4656 18.4721C42.2217 15.4833 40.3015 12.7958 37.7891 10.6051C27.6296 1.74832 11.7973 4.3553 5.11198 16.3045C4.4947 17.2561 3.94877 18.2486 3.49211 19.281C3.00298 19.0012 2.51404 18.7207 2.03688 18.4222C1.80687 18.2774 1.50448 18.3143 1.31444 18.5097C0.663649 19.1808 0.213448 20.0171 0.01361 20.9303C-0.0550137 21.2425 0.142562 21.551 0.455516 21.6196C0.765454 21.6875 1.0769 21.4906 1.14477 21.1777C1.26392 20.6355 1.50825 20.1114 1.84609 19.6657C2.24171 19.907 2.64761 20.1318 3.05101 20.3608C2.03409 23.0604 1.57904 25.9753 1.81837 28.9651ZM25.1344 46.8279C18.2863 47.2907 11.9215 44.2841 7.89251 39.1737C5.37832 35.9838 3.90253 32.1416 3.62351 28.0619C3.46016 25.6701 3.71792 23.3142 4.36362 21.0771C5.99782 21.9331 7.68287 22.6941 9.40982 23.3405L7.76912 27.2881C7.69809 27.4589 7.85381 27.637 8.03263 27.5895C12.6822 26.3898 12.6016 26.2847 12.7704 26.4293L16.3351 29.4813C16.4757 29.6017 16.6932 29.5086 16.7032 29.3239C16.9991 24.5312 16.8742 24.5754 17.0639 24.4595L20.7179 22.2264C21.0684 22.6086 21.6735 22.3745 21.7183 21.8911C21.7741 21.2787 22.1994 20.8195 23.096 20.4032C24.9605 19.5396 26.8448 20.5025 27.0136 21.9212C27.0754 22.4337 27.7341 22.6165 28.0488 22.2014C31.2674 24.0453 31.3065 23.9282 31.3269 24.1487L31.7585 28.8217C31.7755 29.0059 31.9964 29.0907 32.1323 28.9651L35.5789 25.7801C35.7377 25.6332 35.6382 25.7314 40.3572 26.7599C40.5376 26.8006 40.6865 26.6167 40.609 26.4487L38.8998 22.7396L42.8845 20.2126C47.1203 32.7804 38.3281 45.9271 25.1344 46.8279ZM22.3819 6.5518C31.4675 5.93989 39.3421 11.3668 42.4717 19.1024L39.0914 21.2461L41.0534 17.9449C41.1478 17.7859 41.019 17.5875 40.8353 17.6092C36.0625 18.1372 36.1274 18.2527 35.9809 18.0857L32.885 14.5589C32.7629 14.4198 32.5344 14.4811 32.4983 14.6625C31.5256 19.3648 31.6555 19.3387 31.4514 19.4266L27.9259 20.9432C27.0718 19.0595 24.6599 18.3995 22.6081 19.3528C21.4681 19.8821 20.8158 20.5731 20.6192 21.4542C16.583 19.8581 16.5692 19.9838 16.5172 19.7675L15.4273 15.203C15.3843 15.023 15.1536 14.9704 15.0369 15.114L12.077 18.7556C12.0306 18.8126 11.9592 18.8432 11.886 18.8374L7.20802 18.4635C7.02359 18.4488 6.90232 18.6519 7.00281 18.8073L9.03097 21.9429C7.56146 21.3602 6.12361 20.6973 4.72597 19.9569C7.31337 12.6454 14.0397 7.12144 22.3819 6.5518Z" fill="#6F0B8C"></path><path d="M15.8854 32.1809C14.2286 31.9546 12.0176 32.3483 11.0742 33.7464C10.1067 35.1784 9.98981 37.2914 10.7959 38.7702C11.6051 40.2536 13.2438 41.1992 14.9503 41.1992C16.8879 41.1992 18.6966 39.927 19.4523 38.2167C20.7269 35.3282 18.8454 32.5869 15.8854 32.1809ZM12.7376 39.2745C13.1026 38.9153 13.7843 38.7133 14.3523 38.8351C14.9945 38.9739 15.484 39.5139 15.4185 39.9997C14.4116 40.1395 13.4751 39.8394 12.7376 39.2745ZM18.3928 37.7492C18.028 38.5738 17.3533 39.2461 16.5556 39.6453C16.4236 38.7426 15.6496 37.93 14.5966 37.7024C13.6482 37.4987 12.5998 37.8146 11.952 38.429C11.1511 37.2078 11.3124 35.4633 12.0342 34.3949C12.6903 33.4211 14.5452 33.1657 15.7286 33.3286C17.9021 33.6267 19.3659 35.5433 18.3928 37.7492Z" fill="#6F0B8C"></path><path d="M15.8712 5.95003C16.1434 5.78261 16.2278 5.42592 16.0604 5.15294L14.6661 2.88835C14.4987 2.61688 14.1427 2.53166 13.869 2.69907C13.5968 2.86649 13.5123 3.22318 13.6797 3.49616L15.0741 5.76075C15.2399 6.02943 15.5942 6.1193 15.8712 5.95003Z" fill="#6F0B8C"></path><path d="M18.214 5.42606C18.533 5.40343 18.7728 5.12592 18.7501 4.80694C18.6393 3.26705 18.2751 1.76789 17.6665 0.350168C17.5406 0.0568206 17.2005 -0.0781644 16.9056 0.0462631C16.6115 0.172953 16.4758 0.513055 16.6017 0.807156C17.159 2.10573 17.4931 3.47971 17.5949 4.88989C17.6164 5.18976 17.8688 5.44422 18.214 5.42606Z" fill="#6F0B8C"></path><path d="M21.2775 4.11581L21.8853 1.5888C21.96 1.27735 21.7685 0.965153 21.4578 0.889742C21.1486 0.81961 20.8341 1.00587 20.7587 1.31732L20.1509 3.84433C20.0762 4.15578 20.2678 4.46798 20.5785 4.54339C20.9035 4.61797 21.2049 4.41657 21.2775 4.11581Z" fill="#6F0B8C"></path></svg> 